<mxfile host="app.diagrams.net" agent="Mozilla/5.0 (Windows NT 10.0; Win64; x64) AppleWebKit/537.36 (KHTML, like Gecko) Chrome/130.0.0.0 Safari/537.36" version="24.8.4">
  <diagram name="validateAccountBankNomipay" id="8oLFnIkhLLIa3yIj2qbK">
    <mxGraphModel grid="1" page="1" gridSize="10" guides="1" tooltips="1" connect="1" arrows="1" fold="1" pageScale="1" pageWidth="827" pageHeight="1169" math="0" shadow="0">
      <root>
        <mxCell id="0" />
        <mxCell id="1" parent="0" />
        <mxCell id="NM8_mZAWdIv0FdGWZ86l-37" value="" style="rounded=0;whiteSpace=wrap;html=1;" vertex="1" parent="1">
          <mxGeometry x="-1600" y="-644" width="1050" height="204" as="geometry" />
        </mxCell>
        <mxCell id="NM8_mZAWdIv0FdGWZ86l-35" value="" style="rounded=0;whiteSpace=wrap;html=1;" vertex="1" parent="1">
          <mxGeometry x="-1490" y="-1210" width="1000" height="430" as="geometry" />
        </mxCell>
        <mxCell id="NM8_mZAWdIv0FdGWZ86l-34" value="" style="shape=image;verticalLabelPosition=bottom;labelBackgroundColor=default;verticalAlign=top;aspect=fixed;imageAspect=0;image=data:image/png,iVBORw0KGgoAAAANSUhEUgAAAaIAAADfCAIAAAA7okCTAAAgAElEQVR4Aex9+VNUx/r3+1d01fllqvItTuVWavCmRMwYkRDE8Qq8TiCKEAwkIEYWiewYBxSBEVBk2AaGRZZZEFlmYWbO7Ato3vtnvZDH+3z7nmUc0CgyTaVMT08vT3+6z2ee7j796f9D2B9DgCHAEDjRCPyfE9061jiGAEOAIUAYzbFBwBBgCJxwBBjNnfAOZs1jCDAEGM2xMcAQYAiccATSneYKiwq3XY6Ozo4T3s+seQyBNEbgiDTH8/w/v/76BODGaO4EdCJrAkMgOQKp0lzOhRy6IIvdapww0jEsfCgEMjIyzp8/f6gsLDFDgCFwNATeTXNnvzm7uPxCCAiFRYWEkCuFV/Q9eqfbZVuz6Xv07R3t6sxMqLvudp2+R3+l8MrZb84OGAanTNOXtFpCiEqlKq8oHxoZNs+bm5rvqlQqSJ9zIaexqfH06dOtba3TM6aa2hqO47AZRcXFhiGDed7c3tF++vRpiOc4TveDrn9wYH5xoaOrE6uGb9WZmR1dnfOLC339fWe/OYtFEUKuXb82Nm6cnjFVVVdBLRkZGU3Nd/U9en2Pvu52HZ2YEJKbmztgGKTTE0KSG4xZrl2/Rpd2+vTpzu6u+cWF/sGBouJi+OqnyspQNLy4/EJkJ52RhRkCDIEPgkAymlOpVL2PHkYTMfpprP6lesWyGgyHPD7vimV1yjSddSYLTBkwDHp8XtOsadOxteXcFoL+mtoaQkj+xfwVy+rYuHHk2dNgJLS8upyRkUEIqamtCUZCOz7PpGlqdOx5NBFraWuBou61tkTi0UnTVO/DXovdur6xfurUKUKIOjNzfnFhesZ0UJfg3XY6sHaNRrPtcjjdLsOQYcWy6nA7z317Dkp70PMgmoiZ581DI8MewdvX33dQlFr93Di2Yln1+LwWu5VGs6q6CjjowOBwaGzcCMyYxODaW7V0lgc9D6DA/Iv5Oz6P7aW992HvxNSk1+/7qbISvioqLl7ffBUMh5p/b6b5nbaEhRkCDIH3R0CR5spulO34PB7BW/FThbQapUmrccIYiUcf9DzIOpP1amsDaI7OXt/YIAQE7eUDLw9YAzypjIyM9Y11nAgbJ4y2NVvyh7+ktFQICFjFlGl6y7mN/h0wKSGkpLQkEA62treBGSqVSlSsccJI0xzHcRa71Tw/B8l+q78TDIfKK8qTGJyRkWF7aUfj7/7evOPz5H2fB1l8/3GEaRwgzHFc8+/N/lBgffMVOnrSZCyGIcAQeB8E5Gku60yWw+2cX1xA1hDVkYTmgGs4jsu5kMPzPGSEmam+R2+cMNI05/X7gPIIIXSZ9Y0Nsd34lnO7tb1NrVbTtfM839jUqO/RDz4xBMJBoLl/fv31tssxOjZKp4Rwe0e7PxQouFQg/QpiRDSX932eEPR3dnfBt/THmtoaWYO1l7W+gNDe0a69rNVe1lZVV/kCQlV1FUx+XR63PxQwDBmUbDh16tSq1UJTrZKpLJ4hwBA4AgLyNMdxXM/DHtF0lS6dpiQ6XkQZ8NWturpQNDxjnk2d5oAgno4+23eL4nuJ/XU98K2u6nRCQFixrIpoDnj5D/3bqSJtUmd3l9Ptys7OpiPpsMhm7WVtMBJCmoOS4WMSmguGQ5F4NBgJwX++gHDz55tQC8/znd1d6xvr8b2EfX1No9HQtZ/95qzFbg2GQ013m+h4FmYIMAQ+FALyNAelw+ZDNBHrffQQ9w3gq0PRnMVufbG8BDxFMwUdFnlzdPP6BwcC4SC4QsYJI85MtZe1Xr8PvDm1Wr3p2BqfnKAzQvhea0sgHIT9E+m3hBARzWVnZzvdrkePD9bvCCGFRYWBcPBe68GioZLBed/neQQvpJGtAiKvl10PxyLtHe3wUXbpM0l29hVDgCFwNASS0RyU2HS36WDxaGM9NzcX61hYWoTVK47jaAYUUQakhxkZ99df76OHSDpKrEEIqf71F1ir4jhuwDAoBP2w1DU6NupwO2Hb4U5DfSgarq27BbX09ff5Q4HrZddhp+JWXR0Qa25u7o7PMzE1CXbeKL8B+7/YFqnNU6bpbZdDo9FwHNc/OOD1+/Iv5iehOY7jFl4sbG5vwo7w2W/O4kz8klZbe6sWLCmvKA9Fw8CGV3U6t3dnx+eRXfpE21iAIcAQeH8E3k1zItaAKm/+fNMfCkTi0Ug8al6YAwax2K1v/v3nm3//Gd9L4M7AAWf9Ug2JQ9Hw0sqyw+2E1XolmuN5fnTseXwvEYlHo4lYJB5FD6iwqNDlcUcTsVA0/PLV+tr6S4vNArXzPD8xNbn7Zi+aiO39+dpqt+EmbHlFuS8gJF7vQpmwnwuzUTAY/sXVMY1GY19fg8T+UKD6l2potZLBhBCNRmNbs8X3EuFYJL6XGHk2AlY13W0SAgLEJ17vzs6ZYb2S5/nbd36DNO/fi6wEhgBDIAkCKdGcbH6O477Ly0MqkU2DkSqVKv9iPmwmqFQq3JrABNIAlI8vhWACul6O4778x5f4FSGE5/n8i/my5Z/79py0NDqvKJx1Juu7vDxwxERfKX1Uq9X5F/Ol5JV1Jks2XqkcFs8QYAh8QASOTnMf0AhWFEOAIcAQ+PsQYDT392HLSmYIMASOBQKM5o5FNzAjGAIMgb8PAUZzfx+2rGSGAEPgWCDAaO5YdAMzgiHAEPj7EGA09/dhy0pmCDAEjgUCjOY+RjdUVVe5vTtwyvVj1Pdx6wBJq7rbdeUV5bQw18e1gtV2MhHIuZDTfb/7qk7X1HxXKpiWYpuPNc1lZ2dL30FLsWHHKtlHoDmO47Kzsw/1lt+HgghetDZOGI0TRjyjcqP8xuycGU+DEEKyzmRNTk/+/JeiASGk9McfF5YWex/20mboftDNzpl1P+joSELIuW/Pzc6ZVyyr+B+8MU7Hj449l6q81NbdWrGsNjY1YoF0FvO8WaRyiMmkgYqfKuzra8FIyOl2dXR2qFQq3Q+6SdMUvox57ttzk6YpMJ6uBWwGg0HHDO2p/qV6wDBICGnvaMemYeC5cQx1K2ThkhoJMUq1t3e0L60sg9wOCJHNzpnBfjAMqh4de0533IBhEIwUVSeyGYuCZFLksYqllWV9bw+KSBJCOI5rbGp0ul1C0D89Y6JFGEHHqKn5Lh4rEJmRysdjRHNfffUViMqB3aIjB6k0Jp3TdHZ3IcV8ZBxAHsY4YTQMGdCGvO/zfAGh6/5boRdCyG/1d3wB4UrhFTDPMGQIRcNOt4vWMoAxTR+hgcTqzMz2jvbBJ4bYbtw8P6fv0cOzqr2sFQKCccKo79HPmGdju/Hhp29VHiDjwtJiMByyvbSjMBedZfCJgdYTTILbg54HkXh0wDBYWFTY2t5mX1+7qtOJhih9yBoEIMBUkG4Fgzu7u/b+fL3p2ALtn87uLjh7U15RDslsazYh6O/r7xOpvcrCpWSwUu2rVsven68NQwY4rO0RvCgX1NndhfWuWFYj8eiturdasxa7FQ8I0TUeqA39x1SRwi4hRIo8VtH7sHdjazMYDuH5ogc9D4Sgv7W9rexG2dr6S1pHsqq6KhgO3Wmo33RsodYZSHuk7gMdC5pD2bXnxjFCCEyCjBPGUDQ8+MSAYxqOnbV3tMPM6Nr1a9Mzpsf9j7/66is4btXe0W6eNxuGDPRv0ZXCK3fq72SdydL39kxOT9LSvjzP70tagtxm2Y0ydIXUanVT893pGdPYuJFOD32svawFWWNaCRlsk2oXw/NJD3QcKCqVqu523Yx5VqR1XHe77qpOV1RcPDr2fMAwSP+yYV46AFWY5+dwzAGVqFSqhsZGeLogPXj+GRkZIIN89puz+h69CBNCyOnTp/W9PTPm2dQ9HYvdahgydHZ3bbsceEnIwtLivnIfogpnh+GjWq3e2NoElVOa1JRoDuwXiccQQmhmIYS0tLUEIyEULs37Ps+14zIMPfEIXqRXUZY/9A9QGIJGlQ6XlJYIAaGh8X9dQvj2nTSHOjdYGkC04/P8Vn+HEII0hwlojxgjleDCBKKAFChIYLFbN7Y2QcnxXmvLlnPb6XbBw0L/TO4fVH+xvISCj0loDn/VRAbIIi+qYuHFwsbWpjozU6PRuDxu9OsLLhV4/T4UiNRe1u74POUV5Ra7FZXWTp069WprI/Uj4Z+e5kBE1x8KoIguuNOvtjbiewnbmo2edJz79tzcwrwQ9BuGnghB/5ZzG4n/0eO+ZctK/+CA1W6LxKPVv/4C0Hd2d4VjEY/PO/Ls6eycGR8DdWbmvijxtsvx6HHfyLOnNLJNd5ssduuAYXBhaTG2G6ddklt1deFYZMWyCp7LlGkaalHSLsbpQzAcon+LMjIyXiwv+QKCYchgtduEgHBV93amZrFbfQFh07HVPziw6diCoSAaRvRHqGLb6YjEoxa7FWclIL6yvrEOjgyM3RnzLOqDur07o2Ojs3Pm+F4CdZuv6nRev8/20m4YMvgCAionw3E9ENSDf+lzfue+PbcvEqNWq3EGRwi519ri9ftAWgYmtohkeUW527tTWFQokrp5T5o7f/78js8D3goYsO10aC9rHW4nVn0EmqO9VBr5o9Hc+sb6jHl2YWkxdZpTgos2hg4nobkDWQqn4/z58/uUYZo1eQQvLBnTHAQjBynsCDR3r7VFiryoivrGhmDkQLC2tu6WEPSXlJZiEyx2K+ADVyx8l5enUqlgjGEadWbm2Lgxths3ThiVZDEx8aekOZ7nnxvHlAwVjSG0OOtM1rbT4RG8MGvYJ3X6eQNnkBYi7uzuCoSDsGICjwH8xoIWJgqcYPmiwIx5Fj12jUbj9u4MPx2GNLQ6i5J2MZYmfZ6FoB/0VEB8GPsVRhUcy6XFlrEo2YBoDEGaypuVvoAAAyjv+zy3dwecCGATWNAF+kO3a8o0vWq1ADNeL7vuCwjgD+ZfzHe6XSioF4yEDENPZC3BSFqfqvJm5Y7Pgy6VYcgAE8lHj/vwcUL+pf07LA18N1oKUOrNiTSoF5YW4XcIOhEcSaQ5nudvlJc73a6FFwvoctLVYRjcUvyIAdEQxZLRVJy0NjXfBUihm5qa77o87oJLBSl6c0pwoSWigGjSCrXD2kL/4MC201F7q9Zis3T/cR+lzOjxw/P8q60N0YAUVQFUiBMIuAQG08giT1fxl6z3W/Xvzu6uYCREz8CkokFYsiggdZJECeDjp6Q58LOUxrRoDKH14BcA1/A8n3MhB8Yox3FlN8pgeuh0u9B1osGFvEBz6sxM8PuME+O6H3SigV5UXNz9x319j962ZkOaq6quCoSD0g3TJNrFaLaI5kQOAv2RTqkEAhaLAbqZGKnOzNxyboN23r3WFlwIExWLtQM+A4ZB8NeuXb/m8rhRHgaLTT2wsLQIT4thyIBMCuKAYJVI6f49vTmO42xrNuj6vO/zdnye+sYGQsjBr0XQDyR7QAF/aaDG9xLBSEjfo3/nEo+StrMIRinNbTsdsKiPmwnQTfsyFpuOrd6HvanQXBK4lDoCaE5UOw7+haXF0bHRtfWXP1dX0TQHswGLzeIPBXz/Pb3AR4CuEW5EsNit0EZcaFNCXjREC4sKfX9dciBLczhlpmuUDXMc1/vooRD000QpSvkpae6SVru++YqertLGicYQfoW9hTEgTLJiWd3xeR49Pli7TYXmwB+ub6i32K2x3bjL4wbpTY7jxsaN/lAAlgVpmquprZG92AFMktUuRiNp8hJNCmDygk4NnVIJBCwWA6IxhPHDT4dh3oo/sFLhPMwLDYkmYrTXBgJ5OPvGfcBU6O9ea4vL49Ze1m5sbeK0Eajt6egzfY++r79PCPrRQX5PmgNJVFjBAWobMAyA0HQkHoXlHiSj6l9/CYSDqbyjsD8tOtg0+G+xfimMWDJ6c7Jrc9DRvQ97Nx1bPQ97RAwiXZtLAhf2siggO2nNOpO16diqb2x49LjPI3gtNkt+/sF9TNCPuD8AS+E09R920qqEPA4zsLa27lYwEqqqrrrX2uIPBWiSUnKfRc2ER3hgcCC2Gx8bN8rqEkGWT0lzsJGsdOeL0hMuS3M1tTWBcLDy5ttLs2imoMGVzUsI+S7vQP4XHg/tZa0/FMAVUNp/Lq8oD4SD0nku/N7Kahdjx9AmEUL+0D/Y8XnwqtbxyQl8kOiUSiBgsRigm4mRhJDyinKPz/trza/bTgc6zqJisXZoCK5t0eXQeymyOyp0YgzDD3v/4IDT7cIZ66PHfcFwCOly2+lARej3pLma2ppwLAIT8xnzLFw+BxV5fF6QsEYy4jjOOGFEDxdtlgZ+q78jBP3SzajyinIh6MdNHtozlSUa+ves4FLBjs9jnje/k+aSwCU1FWJkay+4VODxeWtqa8oryqOJ2OjYKP04KI0fkPUWGQm1SBkZ4pWQF1VhnDC6vTsajaaktNQfCoDfDS8eOdxO2UEoam/FTxU7Pk8qGxGfmObA7tOnT8Ni//0Hf2BLQAsTVq/o67jovsHEsOsMj3HOhRyn24WkQ4NL59VoNPWNDfCrlX8x3yN4AdmCSwX+UABcD3VmpsVuRf+Z5/kDIU+7FZY8i4qLS3/8EWxQ0i5GC2nygvvG/KEA3HMIP6q41EWnFPERliYN3GttcXt3vss7uE4MX5442P/9a09zxbK66djCRcya2hq4gA12qJ1uF/pTsC8Jjq06MxM3RqQ1phizsLQYCAdxxgrLZ/QgrrxZKQT98BP1PjR3vez6js+zYlnlef78+fMuj5uWrW9tb4P9EKQ5eClhx+cxTry9oFKpRTzPr1hW1zfW4VJ2dWbmo8d9hUWFsCYAwtQqlco4Ydy/3gjej5ElGprmCCFTpumDeaLNQtcr4o7kcNEZ6bBs7dhwFH+kHwf6MaGLOizNJUEeq1CpVPcf/BFNxGD8Z2RkLK8uw2MFt9D4AoL0FUjaqq+++mpuYV72/gY6GYaPBc2BNdeuX6NvbMjIyJgxz8b3EqFoOBgOgZg49B+I/eIsDyat5vk5WG3x+n0m84zwH6QQXPyhgKlE2Y0yl8cN5Sde79rWbDBAOY4bGhnGeidNU/5QAD24S1rtlnN7981ebDce30sMPjl4BQkMkNUupg0Gs3HRsL2jPbYbj8Sj8b2EeX4OXe6j0VzWmSzbSzvIFLu9O7QQ/KPHfW/+/ScSGcy2AuHgttMBWsf0RTw8z8Peayga/sswM7yvA808wr/3Wlt23+zRM1ZfQEC/GzsFzKuprYnvJWhJZyBEJRjp+FA0PPJsBH6B6hsbPD4vfZXalcIr8GYWPu3QlobGxnAs8s6p68Ev8YsF1KZ2ul2wqQU/xrtv9nbf7OF2DU5a6YaAQ0SPRmisyFES0VxJaWkSuJS6g4YFbLDYrfhmBuailzJpwzABBFAVHIrCGwuME0a6gaAZngT5zu4uSL/352uXx93Y1IgL4qDXDY8V/biJLKE//lxdBb86dKRS+BjRnKyJSnq8solpvd8v//ElgiibGCLVanXBpQKkGExJ18vzPL1UAU+mrLAwr6xdjCXTAfxdpSPfJ0wjgOWUlJZ4BC/NLOgkZp3Jol8BwSyHbQhmPNkBnucLLhVIF+kOK0x9slE6cutkR++RS6MzHneao21l4SMgUFJasrG1aZo10aSPNHeEAk9qliuFV2DNkf73nV7eJ0QDD07QBuNC4Sc07BhWzWjuGHbKBzPpYI08IIyOPRe5qzW1NU63C64r+2CVfeYF4YlL3BtZsazKnuU8Jg0VHSkFs1PZ/j4m9n9MMxjNfUy0WV0MAYbAJ0CA0dwnAJ1VyRBgCHxMBBjNfUy0WV0MAYbAJ0CA0dwnAF1U5dlvztLaW6Jv2UeGAEPgPRFId5orLCrcdjk6OjuUcMy5kNPS1vJOCQSl7O+M398ANc2apKfHR56NvHy1ji/0SssBtV5pPIthCDAERAgwmnsHzaX+7gUooJpmTbJvoolwx4/Xrl/z+LwokYbx76Q5+i1izMUCDAGGgBSBtKO506dPi96ukIJCx9A0l5GRgadQ6TSEEBCESbzeDYb/S1JGlOz8+fP0SSw48QNnLUUp3/mRprnc3FzRC8zvzM4SMATSB4E0ojmVStX76GEkHu2+340axfBqpfQtUJAmHjAMNv/e7PX7QD7hp8rKUDS8uPxCpOjLcdyMeXZs3HinoR4Ti8YQnNuNJmK/1vyKX0nPJxBC8D3V7vvdouMs6sxMUAOvqa2x2t8qDh1WSRVrZwGGQJogkC40JxUzAI3iFcuqx+cVnSsEieDF5Rcjz54GwkHaQQOvLRgOodYxPVBo1w/jUQJ+ffOV6ECyccIodeXgPVXbmi0ci6CmCIpNoeDw7ps9PB57KCVVNIwFGAJpgsDJpzmUP3nY90h2ZkdLLYGkx6ZjC09H1dbd8gUEWgwrCW1JaS6JumlRcfGOz0MTGT3mRCfMQfI7GA6BHBB96BpzJakL07AAQyANETj5NGecMIKiulLvimjuQN0hHMJDM1LmgnJOnTolFZWVJrbYratWC31jGZox/HQY5cgxEgNSmjNOGOkLZei1OcyVipIqJmYBhkCaIHDyaa7sRlly7T0pzfkCAiovSZmLEHL2m7MWuzUYDjXdbaIHijRx090mfyiwvvmKVkYihICqIghA0iVgWJbmUPkOVMBw0gq5VCpVKkqqWAULMATSBIGTT3OgpNz76GE0EZPuHoBeOb02V3CpIBAOouK5iLlgH0OpKFFiGENnvzm7uPxCJAE4/HSYvjxUOtqkNDc6Nup0u7KzsyGxyJuTLj5Ky2QxDIH0RCAtaA66Fq6eCIZDeM8uxIu8Obhna239JcjMGSeMuAVxVadze3eSiDLL0hzUQtNQ/sV8l8edxJWT3lkF1zlH4lG4LfTa9WtC0A/e3GGVVNNzoLNWpzMCaURzcPVEVXUVqASDQjQtf4o+3VWdzhcQ4OaXZcuKx+eFLQie52/f+U1pH4MuCpRURQMLPUFfQAAaFSWAjyiyCgViURzHjY49T7zeDUXDDrdzY2sTJ62HUlKVrZRFMgROMALpRXOpdyTHcd/l5Ul1YlMvQSnl9bLrQtAvvcJdKb0oXq1WywoXi5KxjwwBhgAiwGgOofhIga77Xesb63/fIdmP1AxWDUPg80GA0dzn01fMUoYAQ+BICDCaOxJsLBNDgCHw+SDAaO7z6StmKUOAIXAkBBjNHQk2lokhwBD4fBBgNPf59BWz9BgjwPN83vd5x9jAtDYtfWmu7nYdqDA1Nd8VacAdbURkZGTMLczPLcx/kNKOZgPL9akQaGhsdHnccCdkRkZGU/NdJY2vo1n4TpnroxWbJrnSl+YGDIMrltVtp8PhdibRIk99HHwomlNnZg6NDHv9vkA4uLy6fKP8Btpw9puz5vm5QDi45dxubGrEG6Z1P+gWlhbpC0bvNNRDrqLi4hXLajASsq+vVfxUAZHtHe1LK8twdTEIUs3OmZOLHp/79tzsnJmuAtQNIH7k2VMg93PfnhsbN5779pzUpBXL6sLSou4HHUpgYWn0dahFxcUvlpcC4aDbu/Og5wG8jE3Xbp4319TWYNsPRGUyM40TxinTNN2PeI3pwtJia1srraWqBCNmgRtaRaqC2AvSAM/za+svDUNP4CtsoFTjS5o3xRhGcykCJZss7WhOpB7c2d31PjSnUqno500WYtlIJSFijuMWXix4BG9DY+NVnW5oZNjpdv3rX/8ihGg0mm2nY2ll+apO1/OwJxyLdN3vgsJramsC4eDgEwNewH6l8Aoh5KpO5/X7jBPGqzrdyLOn4Vik+tdfCCGrVsven68NQwZCSGFRoUfwCv8tNiW1WZ2Z2d7RPvjEENuNm+fn9D16YEkQdInEo5U3K+GMmsPt1F7W5lzI6b7fre/RGyeMsd24ccKo79G3d7SrMzPh/IltzYbWoqwpKP1Nmaav6nSt7W1bzu3bd36DYoWAAIUMPjEEw6GxcSMif3DrdtAfiobp83PGCaPT7dL36B897gPthsKiwuQwYhZ9j95iswgB4apOJ4Xi1KlToiuKfqu/s+PzFFwqECUWnSMUffvOj0eeFvA8n/xH651Vn7AEaURzIvVg6EglmsvNzR0wDE7PmKqqq/BxAseho6sTXKdtlyMUDcPjXV5RDg8tPMk4Sq4UXrlTfyfrTJa+t2dyehLU4gghSkLEIBzQ2f2Wv7AcQkjvw16Xxw0n1Qghw0+Ht5zb8Jqx0lnaKdM0CgRwHPdieQlUPC1268bWJuid3Gtt2XJuO90uWlOPrpcOH5BaJESbp72sdbpdG1ubU6ZpmuYwV01tTTASomX1gObwpBqmVGdmbjm3jRP/y1/4lUjI4A/9g0A4iLRiGDJY7FaRlgFNMerMzI2tTbhXKAmMdJbs7Gyn2zU6Noo2wGHBnoc9sd34c+MYxsMh6OGnwxiDAbpAjFSpVHW362bMs339fSKH8dr1a2PjxhXLKujfLC6/4DhOaQqckZHR0NiYfzG/7EbZ5PSkvkeP75y3tbdF4tGxcSPGYO3pGUgXmqNPztM9LUtzVdVVIIY+8uwp7TiAP2WxWeDX3mK35ubmQmkw33m1teEPBWi+6OzuCsciHp935NnT2TlzMBLC221khYiBAlatFtEABR3NGfMsGl9TW+MPBcClkqU5eFAfPe7DLJ3dXULQn/d9nsVunTJNbzsd58+f33+STbMmj+Ctqq7ClEoBWZpzedyP+x+7vTt53+dpL2vBm8MSUqc5ukWYHQJJaE6tVm9sbXbd7+q6/1+OuYhiHj3uE4L+7/O/t63ZlGCks0hpTkm1tKa2xuVxI+fSltMFQnxGRsaL5SWUgKYdxgc9D4Sgf/CJYfCJwePztnW0w4RdaQoMQ2XH57Gt2foHBzyCl74fDga8R/DiSgVtWLqFTz7NJVcPltIcx3EWu9U8PwdO3G/1d4LhELBJe0f7js8Dt96cP39+x+dB9U0YN1K66ezuCoSDuh8O5j6QhXaFZIWIyyvKfQEh8XrXvr5W31APY13qAdFPfk1tjS8gVFVXaS9rtYCByukAACAASURBVJe1cOhVSklgXsVPP227HP2DA9tOR+2tWovN0v3Hfa/fRztcSo+BtEwwo6n57rbT0dreljrN4aQV/d/O7q5g5O2FQee+PQdtgeU2bCzP8zfKy51uFz7S5RXlHp+3pLSkpLRUCAjYChHF1Dc2CAGh8udKh9tJO5JYMi3Jde7bc4YhA/4mgQZ9NBGT+kcZGRmrVgtdIA2dyAZCSE1tjRD0Xy+7DreR2F7aF5YWCSH//PrrbZcDf5MePe6jJVShTFFpOCRgoD563CdafkGpCFn9MdrOEx8++TSXXD1YSnN53+cJQT+SEf2xs7sLFd+knAWDWHTlDV0+jEssGceWVIhYpVLd/Pnm8upyfC+x5dzWaDQ4pjGX9rIW5T9ramtiu/FwLBKMhGC34Z9ffy2lJGDD6l+rHW5nZ3fXwtLi6Njo2vrLn6ur3pPmamprQEGvqLg4RW/O4/PCFgTuftA0Z5o1BSOhxOtdYJCDtoRDkXg0vpcIRkL6Hj3qxBiGDOsb6xl//a1vrCPjiEgBxO5laQ5hNE4YE693w7HI7ps9i82CF3eAF1x2owzBx0DlzUqXx40pMR4CIhsIIYYhA01G+BH6F1UOpZxFszAULhpO9EijzTh//rzT7UJY6K/SJ3zyaS65erB0cIjYgR5MMGk1z5vLbpSZ5807Pg+8QIDDRdabw2FNF4VZlISIIYHuB10gHDQMGdRq9aZjix6s5RXl/lAAnBdpvYQQmqChtHutLf5QoPLnyk3HVn1jw6PHfR7Ba7FZ8vPzpZ4pWkgHRODQunhwS1lbe1uKNEe3Bc0LhIOwUQAxuNyGPlf1r78EwkHcssjIyFjfWF9eXYaFUduaDdcrRRQDy3nXrl9LAiNkycjIWF5dttituDkLSoX+UEAkFg3LnbAoSaOEYZENQFU4Hggh9PA7mLQGhKbmu03Nd2H2iuVAQFSaaDjRRWHGouLibZfDI3hlORqTnfjAyae55OrB0sEhWtIqLCoMhIP3WltgljG/uGAyz8wvLuh7e0TbbYf15lKZU8BQBkaYMc+C2wKDsut+ly8gwCupsjQHFECvQxknjJuOretl1z0+b01tTXlFeTQRGx0bFT0whJCsM1myck9JaA6eeYvNcmSaKykt9YcC9Y0N+NRJaY7jONgPha0YyGJbs4FjaFuzBSMh2BSiSQGmlrAbkwRGzKL7QScEhJ6HPWiJbGdV3qz0CAfzZUwmCmCBGP+H/gGuexBCxicnNh1boPdVVV31FwWPT8+Y9n9H6Y0vyC4qTdRropGcZKKNxqRPIC1oDrpTVj2Ynodirx8sz7scGo2G47j+wQGv3wdeW8GlAiEgPB19VlhUqL2spd/SgrxSuqEHHz0ulYSIr+p0cwvzMAniOK6tvS0cizQ13yWEgCMDL8TlXMjZdjnQIZLWC/Z03T/Yc4CVoGvXr/kCwh/6B+gZqVSq/Iv5arWaNowQkpub6/X7Xv+/N/jCCiKThOZA3zgci4guQkt9CwJeptl2OeB2WngZDdqINoN5Oz4PbMg+etyHNAH74FvObdj0RFLgef7Z89FwLAKq0UlgxCyEkL7+Pn8oAIuq2Hxa7/6L//li4cVCElcOfDf6+g5CSElpiT8UeNDzgBACTjS+bbf/e7Pj88ACa/7FfJyVY+20efBTBIsPkIAeabfq6uAGEqXZNJaZJoE0ojmRejB0sEaj2XJuRxOxaCI2MDiAkfb1tfheIhKP+kOB6l+qcTT83nLP7d0JRkKhaDjxend07Dn86honjLR6MC6l04OPZhMlIeLTp0/Pzpnje4loIhbfS8T3Ek+Gh/CHvb2jPbYbj+3GE693zfNm3I1VojmO44ZGhrG0kWdPVSrVPkHv+DywqQLtEl2HqNFonG7X7ps9oFdIAwRHt1FKQNBAbDtkVKI5uiicx2k0Gtuabe/P15F4dO/P1zs+D8xPaZojhDQ0Nh6w/92m9Y110ZscxgkjzFuxR3bf7G06tugNRyUYaR4BkqWnrjgGYBMzEA4KAQHfEMJv6QC8txiJRyPxKIIJtcM6o3l+DqfGGo1m4cXCwb3AkVA0EfP95609QJWGC2Su6eEkmv9qNBrRi1C0VWkYTi+ak+1gEAqWumbSiVvWmSw62d3fm9/5Vq1sje+MBJNkp43ogr2zEEzA83z+xXx8nDA+SYDn+X9+/XWSBH/rV2q1WntZ+3dIN6PZR4AR8xJCvvrqK9tLO17mS38lCstWJI1UqVTf5eWhB8fz/KutDfTWRWWyj4dFgNHcIRAbHRu12m2wJMfz/PjkBP2+7iEKYkk/cwSuFF5xuJ34CuT7t6bgUoHH58UDfDfKbwgBofdh7/uXzEoghDCaO8Qw0Gg0SysHL3m8+fefide7m9ubab6BdQjsWNJ3IdDa1uoLCHt/vn79/94Ew6H9F3QO5YC/q/i0/p7RXFp3P2s8QyAdEGA0lw69zNrIEEhrBBjNpXX3s8YzBNIBAUZz6dDLrI1/OwJMPfhvh/g9KmA09x7gsazvgcAJ04mk1YPfAxWW9W9BgNHcB4OV47js7Gx8lfeDlftxC7pRfmNhaVEI+oWg32SeoUWlPqwhH4fmzn5zdnxyghaSUalUD3oeuL07gXDQPD9HK75pL2vnFuZBuLj7j/upd6VIPfjDAgWlfdo3Gf+OFn3MMtOO5kTqwR8Qa/rAwwcs9u8oSla7WKVSGSeM0UTMODFedqOs8mblimWVFkT7Oyz5+8rEU6h7f76m37MdGhn2CAdHeq/qdLY127bTAa98nzp1yvbSPvjEUFhU2NR81x8K9PX/r1QfbWfq6sF0rvcM4/He9yznI2Q/htrFaURzMO4j8Wj3/W7sbO1lrWHIYJ43NzXfxXfQ4eCkVD0450JOY1Pj6dOnW9tap2dMeCMBCIib5+eEoL+vv0/foweNckIIaIU3Nd/leb6mtmbGPNvR1QnS6rofdP2DA/OLCx1dnXhsCwwrKi4Gq9o72mmBAI7jym6UTc+YBgyD6IYkUZFVqVTlFeVDI8OiBippF+t+0MF5UjCDFhxWajsaPDr2fGzciIef1JmZTc13S0pLx8aNtbdqS3/80TgxDvdaKMnhEkLqbtdd1emuXb8mksPlOE4WrktabdtfwutgBs/zv7fcA/B/qqzc2Nqs+KlCRBD7jcKOBnV1WT3R8ckJOFMFJSMgh1IPBjVgkQa1knowtL2ouHh07Dndv1cKr+h79E63CxT6UJ4P4ILBdvabswOGwSnT9CWtFrQqZPudEMLzfPPvzeZ589DIsEgg4PTp0/renhnzLA5sGMCyYx7k5ts72s3zZsOQgfb6j6F2cbrQnKx6MNw8sGJZBdkvPIatpB4MxzN3fJ5J09To2PNoItbSdqBcAheybDsdkXjUYrfibTKEEN0PuhXLqtfvG3k24gsIDrcTHh51Zub84gIQlkfwok9BCLnX2hKJRydNU70Pey126/rG+qlTp+BA7ujY81A0PPLs6eLyC6/fBzcVwNlGWRXZ/Iv5K5bVsXHjgQxyJLS8uozXC8hqF8PDfO7bc3h0vL6xYcfnyfs+T6ntcJoSDJ6YmozEo3AuXXtZKwT9204HRNrWbKZZk9Pt0mg0SnK4hBCL3er1+9bWX4Ic7sbWJvwAKMF1pfCKEPSjqEnlzUpfQCgpLaW5SURz9FdKNCersHRY9eAHPQ+iiRgQikfwgm+YRD3YYrf6AsKmY6t/cGDTsYVtr/6l+uDSonAIFProm30GDIMen9c0a9p0bG05t4WgH4S5lPpdnZm5P5xAv3Pk2VOv39fa3gaAwPFb20u7YcjgCwh41UaSfn/0uG/ZstI/OGC12yLxKFwzAqUdN+3ik09zSurBGo3G7d3Bg9/4I59EPRi6HA6Tg8wRPRtSmrRqL2v9ocDG1qZGo+ns7pL6CFLZW5GsBQydktIS33/UcTmOM8/PgfAs0BxeoSCryEgIAflc+ldXql3M8/zy6nIwEnJ53IFwsOxG2YFtQX9VdZVS26H2/v+oHvQ+7AV5KFT9xFP3hUWFohsn6KPy0Ea40gHe/q+8WRkIB1ENGBL8JfLxvyrBwEcoNmUYMuDdF5g+Cc0Zhp4cCJxkZmJiuCTM4XYuLr9APzqJqJGSenBJaUkgHEQSwauRlNSDgeJRKUDaWUqtME4Y4acl60zWq60NKVx0Udgp2F4MTJmmV60W+BW8XnbdFxBQfz8YCSmNecgufRaSq59hpR8tcPJpTkk9uKq6KhAOSicsIjVK+qNICEQ08pLTHIx4tVqNVy7xPN/Y1Kjv0Q8+MdDPc31jQ2w3vuXcbm1vo4+vd3Z37fg8ZTfKQD388UA/6GgnUaoghMAUG27YkhUaoLWLW9vbXDuu3NxcfGaQpJTaTqt7EkLwI2akAyIpOlmaw18OGnmYbcnCdWCzx33+/Hm4FEJ6DlTUTfhoXbt+TQj6UaET4mH9YeTZUyEgdP9xHyKPoB7c3tHuDwWkF0SgXDCUTH+k7RShDSSIyGATQOsJFFk4jsu5kIPnw2T7XZ2ZCZ6XcWJc94MO91hgCA0YBmFoXbt+zeVxw76NyBLaSFhCAUFTJYHiY6JdfPJpTkk9GBTDaa1aGD0iSTWaRJJ0uUgJhx6I+JzTkVd1B8KNK5ZVKc3ByuDT0Wf7s8X4XmJ/ZQ2GY2d31+6bvVA0DEroKIZOWygy41ZdXSganjHPKtGcSLvYOGFEDxFcAzReqe3g5aETgellA4eiObpdSeCCQ+/1jQ14KQSNsxJBXNXpdnye/sEBfNRFuVrb2zyCF1RLj6AeLKtjmFw9mGYQEdpKrYACpfODJP2uUqnqG+otdmtsN+7yuGH8A9TRRAyHVjASAilZkSVoJM/zK5bVHZ/n0eODxWhZmjs+2sUnn+aU/OfyivJAOFhbd0s0vpOoByt1OZSQxJuT3rSAsmi0zrjIEkJI/+AA3tR3r7UFHzw6JU0HIpqz2K1wY6FU2Rg3Iun7UPD2ltS9ucKiQnp1rLbuViAcLK8of3+ao3Wbk8O1sLQ4ZZp+9Lhv/64iKW3hk4mgXdJqt52O4advfz8wng7A3RE4x5eFK4l68L3WFpHgOxSeRD2YtlM00g5Lc0n6Hdv4XV6eR/DCDY0gwQ/39mICCIgsQSPhamAQapaal2SaLyr/43xMC5oDKEXqwaibCEszRcXFpT/+CCmV1IOVuhxy3WttcXt3vsvLAzl17D984DGGEDI6Nopaknca6kPRMBJu9a+/oHrwgGEQrhw8EJu9mO/1+9C5KywqhMWjJDS3arXAk89xXO+jh/jgKWkXGyeMq1YLXEK27XTU1NYcXFbt85ZXlCu1HW4pXbGs8jyvUqlm58ywdo6tpgOpeHOg20wI6XnYsy9iDPO+JHDBpo3bu7PtckjljqVPICwRSv24nAs5xgkjbDSrMzNXrRbpMl/q6sH7E/8dn2diahJ2dW+U34A90CTqwcgg0t8kQsjC0iLcNoeLyDCcpBN/uG5ctt81Gk19YwOYlH8x3yN4kdoMQ088ghecO3VmJt7DrdTvVdVVwfDb63dzLuQ43a7xyQkw6RhqF6cRzUnVgy9ptVvO7d03e7HdeHwvMfjk4BZ62CmXVQ9W6nLIlXUmy/bSHt9LhGMRt3cHhnVNbQ0IN73595/05KKwqNDlcUcTsVA0/PLV+tr6S4vNolKpeJ4fHXsOwsXRRCwSj9Kvtlb/Ui0EBNA6FgICqH4nobnqX6r9oUAkHg1Fw0sry3h3n5J28W/1d4Sg/05D/cTUpMPtrG9sqK275fK4YaeVvrSMfiahLaBRjPMgmt3AmcW7DcFgqRwuUNK2ywGXeMV249h2JbgAebhlTQgI9FqYVO4Y8EdVYTQA7lrjeX52zgw3e8X3Euubr6AHoQr63xTVg/EiSuhN2JQnhCipB9OQikYaIeTmzzehKyPxqHlhDqjKYrdCK+J7CVw3ONDTV+j3shtl+70Z30uA9rVtzYa3m0Pz4av4XsI8b/7qq6+khItG8jxvnp+Di9a8fp/JPCMEBPh5PobaxelFc/RgxbBUJRi+UorHjLKB1HPRqsUcx335jy+xQPgKNyswHgLnvj2n9JUoJUzY4cIHCOMStTQl/Ax0/3F/xbLa/cf9mtoaj8/rDwWmTNPSmaA0+6GskmaHGHiKVCpV3vd5IlOTwEUImTJN4/RcqfBU4qW6vrK5UlcPloUlxVpEVdMIiL6SfqSrgJ9PTKNWqwsuFYjghW8PKzRNj/Yv//FlKuMEzfiYAUZzHxPtz6yurDNZ+ALdxzEdnYXUq+N5vq+/753XMqReYCopP7h6cCqVsjRHRoDR3JGhYxk/PAIWm2VoZPhQ5c4vLjjdLibjfCjQ0i0xo7l063HWXoZA2iHAaC7tupw1mCGQbggwmku3HmftZQikHQKM5tKly3Mu5NCHN9Ol2aydDAF2gWGajIGPoPuYJkiyZn6OCDBv7mP02v5hGvoQ/vtUqc7MHHxiGDAMHqqQTyjh/QHbfqgms8QMAUQg7Wju71MPRkxFAdEpBdG30o/Z2dmys0vUTdp9s0cfqBCVwHEcHDjHeDiPhZJTGP8RAh+q7R/BVFbFCUYgjWgudfXgutt1ILYF6qktbS3IO4fV7y2vKD94eTXoN8/P6Xv0Tc13QdJLSQ73i//5wrww5w8F9iVeRe+U51/MX9981fx7s+wxRhijcG5XCPpp5ZXf6u/s+Dz0QShILKucfDzbfoKfQNa0j4BAutDcodSD6Xfx6dOFHMcdVr+3vaPdYrdG4tFtp2PFsjry7CnQnJIcLuqpxHbjSyvLqIRODwVZmpOV0AARgVWrRerKKSknH/O20ziwMEMgRQROPs0dVj1YpGlB09zR9HvfOXETqQdDz9FiGHh3AXwlpTlZEofENbU1Oz4PnKnGMaGknHz8245NYAGGQOoInHyaO6x6cJJH/Wj6vUo0p6QeTHfenfo7wchbuRuMF9EclG+cGBexIRzFf7G8JFWdVVJOPv5tRxBYgCGQOgInn+YOqx6c/FE/rH4vIUSW5pLI4ULncRzX0nZw982L5SW8lAC+EtEcx3E9D3uiidjC0qIopZLuo5Jy8vFve+ojm6VkCCACJ5/mcLUrmojRSrlK6sFJHvUj6Pcq0VxyOVylS6Sg20Q0B5HSLLLXU0Hiz7ftOHBZgCGQOgJpQXMAR+rqweOTE3C3Fs/zU6bpYDgEYtlH0O8lhOy/OAa30sEsEqaWSnK4KpVq5NnTaCI2Nm7E7V1Rd8rSHBTe/HuzPxRY33xVVFz8U2Xljs9TUloiyg7XxxwIedqtUAWtnHzM2y5tC4thCLwTgTSiOSCCquoqVExVUg+uqq6KxKOReDQYCU1MTdLX7h1Wvxc6oKWtJZqIhWOR2G4cZKmTyOGW/vijaMcACoHJL2revvn3nyizTnczyvALQb9p1iR6KwVTfl5tR7NZgCFwBATSi+ZkAaIVUDGBrIAtfisrCYvfygZoNVdIQIvBitSDZUs4VOSdhvpUlCZPZNsPBRRLnA4IMJo7mb383Dg2v7ig5MqdzDazVjEEFBBgNKcADItmCDAETgoCjOZOSk+ydjAEGAIKCDCaUwCGRTMEGAInBQFGcyelJ1k7GAIMAQUEGM0pAJP20RzHFVwqYJsYaT8QTgIAjObI6dOnW9taQSWJFr88+81Z3Q+6VJ7zjIyMpua7VwqvnIQR8Z82XLt+zePz/lRZ+Z+It/9Xgiv/Yv6//vUvUWLZjzkXcmhtK9k0LJIh8AERSHeag7OlL1+tj46NLrxYyL+Yj+Aury4HI2/PP2CkbED21KpsytQjK36qMM/P6X7QYRbdD7qFpcUVyyr+197RDqcsnhvHMHLFsvrcOIZ8XfFThX19LRAOvlheuqTVYmnJA/vkbpo1LbwQv5KiBNepU6e2nNuyrytLK6JFX6TfshiGwAdHIO1oTqQe/Ohxn9LDmfd93s2fb6bizR2B5jIyMs6fPy/bnSDBlHi9G9uN19TWYJqcCznd97v1PXp9j773Ya9H8MKBCvAlIV7fo19eXd50bAHN3aqrE4L+noc9+yqbplmT27uTm5uLBWJAnZmZnZ2NHwkhJaUlHsFbeVPsyiWB66pOd+36NboQpfARaC4JXEq1sHiGACKQRjQnqx5snDAq0RxiJApIRXeB5rrud5XdKJucntT36PE4qkqlKq8oHxoZNs+bm5rvolbST5WVoWiYlhLAWgafGBaWFm+U3/D6fTTNYQJCiJL0iDozc9Ox1fuwFxKvWi0LS4sQPn/+/I7P03W/iy6HENJ0t8kfCuw7g1/8zxf41ZRp+sXykpTijwDXtevXxsaN0zOmquoqKBBo7v9e/b+tba3TM6aa2hqsSK1WNzXfnZ4xjY0badJMAhfazAIMASUE0oXmpMKTN3++6QsI8b0EaCsJAQE55V5rSzASCkZCvoBw8+ebNHayortAcy6P22q39Q8OeAQvTvfyL+avWFbHxo0jz54GI6Hl1WVQDyaEgKZIMByS6qETQrSXtUloTomGRHrotBQwx3G2NRutPaek3FlUXOzyuEWuXBK4DENPAC6n20XP+gkhD3oeRBMx87x5aGTYI3j7+vsIITW1NcFIyOVxT5qmRseeRxOxlrYWALnpbpPFbh0wDC4sLcZ24zQpJ4eL7iMWZgiIEDj5NKekHszz/P71CKZZk8vjvnb9WsGlAp7nAR21Wq29rK2qrvJR3EcIURLdBZozThjBK+ns7pL1EOsbG4SAAGInUBHeYgOaInTfJKE5WsSYzgJX29BEtrC0aLFbwaqcCzlOtwu+VVJUh9KME8ZVqwXpGCKTwJV1Jkt7WdvW3ub779aVlJYEwsHW9jYoQaVSoTcXjITqbtdBPM3FEAP/zphnRTf7JIGLzsjCDAERAief5pTUgwGIJLMwKdEoie6K1uZENIdbk8YJo4jmwIZTp06tWi2iR1paO/bc8NNh20u7iIZkZ7KwY2C120bHRj2CNxKPjo6Noj91p/4OlomBgksFLo8bHVuMh0ASuKQrbu0d7f5QQHrVjiiliOaKiou7/7iv79Hb1mwiTMAGWbhEdrKPDAEagZNPc0rqwYBCkudWSjRKortJaO5WXV0oGp4xz+p79LI0d/absxa7NRgONd1tojtGWjt8m5ub69pxoYuEWfYdJdOsSbqgdvabs53dXZ3dB+uGXr/vXuvB9BA83Ggi1vOwBzwsLEeJQyFBErhE5EUI6ezucrpdos0NIFmv34deLdIcx3Fj40Z/KDD4xKBEc0pwof0swBCQInDyaU5JPRiwSPLcSolGSXQ3Cc1Z7FakHhERJJ85SmsHg3sf9ro8bpTMwx4tKS0RAsJvcg4aCO2NjRvpjLITwIJLBTs+j1IhhJAkcIlaRwi519oSCAfpqxTBWlFKpDntZa0/FEAGF6mHJocLcWABhoAUgbSgOWi2SD0YIpM8t1Ki4XleVnQ3Cc3BbJT766/30UN87K/qdG7vzo7PU/FThbRXlLYg1JmZW85t6W2EhJDhp8Nbzm3c4aXLzM3NXVx+EQyHqn+ppuMP3rnLzBwbN6JYsWHoiex0GHMlgUtEXoSQ3NzcHZ9nYmoS9pdvlN+AF/dEKZHmCi4V+EMB2HZQZ2Za7FbQcCaEvBMutJAFGAJSBNKI5qTqwUruSWd3Fy3SG99L4FqVrOhuEpqr/qXaHwpE4tFQNLy0suxwO2ETgOf523d+w/dL6I4R1f7m3392dr99CwRmzVLdczAA3yPB0r78x5cvlpfiewnz/Jzsla+QEjYxQ9FwMBxqaGzE7NKALM0ZJ4w0XPQ71eUV5b6AkHi9G99LROJR2FFVojmO44ZGhuN7CbBk0jTlDwVq626BqrsSXFIjWQxDQIRAetGcqPFH/igruqtUGq0brFKpcD9XKX3yeNyvFCXbv+BGljSzs7Nl46XZp0zTa+sv39M8UbHw8VBiy2q1Ov9iPtjM83wqxstWyiIZAogAozmEIq0DWWeyNrc38f21tMaCNf7EIcBo7sR1KWsQQ4Ah8N8IMJr7bzzYJ4YAQ+DEIcBo7sR1KWsQQ4Ah8N8IMJr7bzzYJ4YAQ+DEIcBo7sR1qUKDci7kyL5Vp5CcRTMETg4CjOY+WF9mZGTMLczPLcxLT5t+sDqOWhC82GwYenLUAt6R7zi3/R2ms6/TAAFGcx+skz/Oo67OzBx8YhgwDB7K7obGRpfHLVJJOlQJyRN/nLYnt4F9yxBQQiDtaE6kHqyEyyeMz87Olp1d4inU3Td7stIdYDPHcXnf59H2g0CT7BExOtlxCCu1/TjYxmz4fBFII5oTqQfnXMhpbGoElSSRhi2cxxwwDNKatxkZGXca6ktKS4ZGhts62vMv5o+NG+tu14HCR3lFOciUt3e00yR1pfDKnfo7WWey9L09k9OTqIjLcZzuB13/4MD84kJHVydm+eJ/vjAvzPlDAanWZv7F/PXNV82/N4vOtNODD87tCkE/fWBepLVJCPns2k63kYUZAodFIF1oTqoeDBq2Oz6PVMO2qroKFMwPJH/DobHxA73MrDNZ207Hjs9jnDAGI6Ftp+O5ccwXEOCEaXtH+4pl9dXWhj8UQIkhECMKxyIen3fk2dPZOXMwEoK7stSZmfOLC9MzpgHDoEfw7pecdSYLOg/oOLYbX1pZlj2IKktzSgIeGRkZq1aLyJX7fNt+2PHN0jMECCEnn+aU1IPhUQcN24yMjPWNdThUz3HcvuKueX4O3LTf6u8Ew6HyinI4Hv+H/gEe1N+fYW1ub+KpfqmSGtBcIByEC7rgNgY8h4/jr6S0lJZoh3glBXOQGxBNWqUkjoXX1Nbs+DxFxcUYg7Kan2Pb6VawMEMgRQROPs0pqQcr6WTkfZ8nBP1IRvgR2Y0OvNraeCfNoWA6ZoS+4Xm+salR36MffGIIhIN0Odh5d+rvBCMh0Vcibw6KNU6MS0+575/nf7G8RMumQ8mfb9sRGRZgCKSOwMmnOSX1YKVHXXtZG4yEd64BqgAAGsNJREFUkOaQm2QDR6Y5kC9fsawq0RzHcS1tLZF49MXy0unTp+keFdEcx3E9D3uiidjC0qIopdIFYJ9v22kcWJghkCICJ5/mlNSDlR717Oxsp9v16PHBHVSEkMKiwkA4eK+15cPSnHHCiCqYUv1OEICT3YiQnbTiPWF0FnDlpkzT0qHw+bZd2hYWwxB4JwJpQXOAgkg9WOlRJ4RMmaa3XQ6NRsNxXP/ggNfvy7+Y/2FpbnRsFCezdxrqQ9Ew6EeqVKqRZ09Rzle2/0TeHKbBN07gnrCfKit3fB6pBqd0DRH1e49/27GxLMAQSB2BNKI5kXpwEprTaDT29TUQvPWHAqAtnpzmlBR06Vu+sARwEl0edzQRC0XDL1+tH2iv2yywuFb644+iHQPoTshO6/QiUdL9jbrnQtBvmjWJbrSBlJ9d2+kGsjBD4LAIpBfNHQqdQ0kEH6pkSMxx3Hd5efAeCcdxX/7jyyMUopTlTkO9EBDwNT2lZErxn3XblRrF4tMWAUZzJ7PrnxvH5hcXZF25k9lg1iqGgDICjOaUsWHfMAQYAicCAUZzJ6IbWSMYAgwBZQQYzSljw75hCDAETgQCjOZORDeyRjAEGALKCDCaU8bmGH9z9puzogMPx9hYZhpD4BMjkL40l3Mhp6WtBRWQPnE/HKb6/f1T06xp4cXbjdSMjIym5rtXCq8cpgyWliGQRgikL82JXpH9jPr82vVrHp8XBJ0IIfRbx59RK5ipDIGPhkDa0RyqB39amsvIyDh//nwq3Xz+/HnR5RJTpukXy0v4Ttwnp7nc3FypOEoqTWNpGAIfB4E0ojmRejDQXElpqb5HT+v6EkLUanVT893pGdPYuJE+SJBcdFedmdnR1Tm/uNDX30fLYfI839rWap430yrBP1VWgnInnVLU5aCUF03Efq35Fb8qKS3xCN7Km5UYAzTXdb+rprZmesZ0r7UFSUelUpVXlA+NDJvnzU3NdzE+eUNUKlVT813zvNkwZKAlQlUqVd3tuhnzLN3AU6dOvdra2PF5Kn6qQJNYgCFwrBBIF5qTCk+CrKbbuzM6Njo7Z47vJbrud0HfNN1tstitA4bBhaXF2G4c45OI7mo0mm2Xw+l2GYYMK5ZVh9t57ttzMKPcdGxtuxwDhsFtp2PbeaAIALWADEkwHJLqoYsO4dMjxjhhpF05nLS6vTvLlpXBJ4ZgJLS8ugwOYP7F/BXL6ti48UAGmYpP0hCe51csq0LQ/xc5znkELxB9RkbGi+UlX0AwDBmsdpsQEK7qdGAYnKKN7caNE8bPca2ThpeFTyQCJ5/mUlEPBs2i9Y110fSQEDJjnkWpXiXBYRD2QGElQgiW03W/a8fn+S7v4A4ajUbj9u4Yhgw4kmTpLIkKU1Fx8Y7PI1LZBG/OOHGg5E4IaW1vC0ZCJaWlWAsE6hsbhIAA3lmShvQ+7BWC/oJLBZALG1JTWyME/dfLrkPrbC/tC0uLdBVJzKaTsTBD4OMjcPJpLkX14H318x2fB9fLioqLu/+4r+/R29ZsNM15/T6cx6F+0T+//nrb5RgdG5X238LSImYnhIg+QvpTp06tWi2YzGK3rlotp06dkpY2/HR41WpB6oEEorW5wqJCIeivb2yAb+FOH32P3jhhpGlOtiGEkFWrZdVqkVZtGDLQgiiij5Ce47jeRw+FoB8hkpbDYhgCHx+Bk09zKaoHd3Z3BSMh7WUtx3Fj40Z/KDD4xJAizQHR/KF/IO0/i92K/CWriHn2m7MWuzUYDjXdbYLsTXeb/KHA+uarS1otXWDBpYIdn+e3+jt0JE5aUe6YVj++VVcXioZnzLOp05zFbh2fnBBVAZbTNEcLTEFilUo1MDgQ242PjRt5npeWwGIYAp8KgZNPcymqBxuGDNsuxz+//lp7WesPBVrb26BLaA1L0eYsenNqtXrTsSXLDuOTEzgX5jjOtmbDuZ7SXVyEENn7boafDtte2kWunJTmyivKhaC/qrqKEGKxW3EhjzaeDkMyvC9iYWnRtmbDbVwclyJvd3xyYtOxpVarIYF06RMzsgBD4JMjkBY0ByhL1YMj8eiDngMXTKPRON0u0BMvuFTgDwVg20GdmWmxW/GxT8IOff19/lAAlq7UmZm36t7e33pwMVgkdKuujhByo7w8EA62tLUQQq7qdG7vTvINSpo78i/muzxuqSuHNLdiWeV5nuM444TR7d2BjQ6YC3N//fU+ehgIB+H+1iQNaWhsDMcidxrq4efh9p3fwDUrKS3xhwIAV35+/o7PYxh6Qgj56quv5hbmo4lY76OHuJP7yYc1M4AhQCOQRjQnVQ8OhIPbTkc4FonvJezra0ANHMcNjQzH9xKhaDgYDk2apvyhACiYJ2EHnucnpiZ33+xFE7G9P19b7TbUy4TSoJb97UtwlHiev33nt3fyAnp8voCwtv5SdjIIU+aNrc1wLBJNxFDumBBS/Uu1PxSIxKOhaHhpZdnhdoLXlqQhHMc97n8c30vEduO7b/YcbicutLV3tMd245F4NL6XMM/PoTE/V1flXMihRxULMwSOFQLpRXOy0GedyYKXP+hv1Wp1/sV8oCGe59/JR5CX5/n8i/n4/GOBSvGYIHngetl1IehvaGxMnozn+bzv80SmqlSq/Iv5MLtUqVRS22TLpHPRCZTi6TQszBA4bggwmjtuPSJjT9f9rvWNdfZKmgw0LIohkAICjOZSAIklYQgwBD5nBBjNfc69x2xnCDAEUkCA0VwKILEkDAGGwOeMAKO5z7n3mO0MAYZACggwmksBpLRMwnFcwaUC6XvCaQkGa/TnjQCjuc+m/+pu1+l79PoefVPzXelZiA/eDJF45wcv/28tEBSVAa662wfvZrO/dEaA0dxn0/sDhsEVy+q200GfLX2n9Ze02hXLajASWrGsFhUXvzM9JNh34mgd9hRzHZ9karX6uXFsxbLq8XnpM8XHx0JmycdEIO1oDtWDPybKH7Au6Zl5QoiSfm/Wmawt5/bCi4XCosLnxjHXjis3N1dqjDozMzs7m46XinfS335GYfpIMpidum7zZ9RMZmpyBNKI5kTqwYQQnuf3JS3N8+ahkeGyG2W4DlV3u668ohyAk96Mo72sNQwZaD1e0aUzVwqv4Lwy50JO9/3upua7PM/X1NbMmGc7ujrxcIVs7UraxWCPlOaS6Pfea23x+n0gHjc5fXAWDSVCcViAIMqKZfWL//kCI0U67BAvC1eStkOua9evjY0bp2dMVdVVgLAIUhrt8opyfY++vKJcnZmp79HPmGdvlL/tCNna4Txye0e7VOsYapfSXCq6zYgDC5wMBNKF5uhj8NBz6szM9Y31bZfj0eO+kWdPvX4fqpKg9AghRHT881ZdXTgWWbGsguAanPYXKb7RTKT7QbdiWfX6fSPPRnwBweF2whwqSe1K2sVgNl04DkEl/V7jhBF0B0pKS5ZXl9c31mfMs5hLVgeFEFJUXOzyuGkd9gPheAW4krSdEPKg50E0EYMfEo/g7evvk0JKo93e0b7tdFjttuXVgxO4wXAIBKaUaieEPHrct2xZ6R8csNptkXi0+tdfsIGyylfQwPXNV7K6zXReFj4xCJx8mlNSD9Ze1voCApzJF3Un/eDRNAfyv8NPhyH9vuYw+GXJH3VQdtrY2tRoNJ3dXUBzSWqnjaG1iyFelubgK6l+L6p1TkxNtra3oWuDigCLyy+kl1EYJ4xS8U4lg5O0vaS0JBAO4o+HSqUCb46GVCQDRQjp7O6K7yWePR/lOM5itwLNKdVOY5WRkbG+sY6KUvAVNplOCSIOzb83g65f6kuWokLYx88FgZNPc0rqwerMTPj9N06M637Q4YxV9ODRz2RVdVUgHAQpN7qDkzzqhBBawE6tVoNMQJLawd2QahdDjUloDp5eWr8XRD1LSktWrRZ1ZiY+8yCSfkei0EkIKbhU4PK4RTrs4M3JwpWk7e0d7f5QAPXWETEaUhHaQHNCQIBc5749B6IDSeDiOK7sRhlsqjrdrhRpDowR6TajhSxwwhA4+TSnpB4Memr1DfUWuzW2G3d53KDFJnrw6GeyprbGFxAwGQ6FJI860JzX75MSh0qlktaeRLsYqktCc1L93vHJCYvdCq4cLYCOd4b1POyh+Z0QoiTeqQRXkrZ3dnc53S7R5kbySSvQnOxWsixccEHPjs/z6HGfvkd/KJqT6jZjh7LACUPg5NOcknow3ZHf5eV5BC9e5qA0aS2vONDFlM5zkzzqSWgODaBrp10/2aUlJZqTLj7CulUkHl1bf6nOzASJY7xwR/a2HSUddjQVArTBSdp+r7UFhTzpEuhfDtGPShKawxLo2mtqawLhIC4j0h0H6dGBxeypjAc6MQufAATSguagn0TqwRqNpr6xARbX8i/mewQvUsD45ASs3PM8P2WaDoYP7oiAndm19ZcWuxU0kYqKi0t//BGmirY1G4ik77+wYluz0f6I9rJW6s0p1Z5EuxhaIXWRkuj3lpSWhKLhnoe9hJC623VC0P9T5f9e8ApT0bFxYzQRGxs/uHvQMPREVocdNjRl4QLld9m25+bm7vg8E1OTAPKN8htwu0VhUSGuisIvBz3TlOVxJbiqqquC4RB4yjkXcpxul0iqHjdh8FlNRbcZE7PAyUAgjWhOpB5cdqPM5XGDSnDi9a5tzYY3qFZVV0Xi0Ug8GoyEJqYmnW4XKuhe0mq3nNu7b/Ziu/H4XmLwydvbCGHhPByLCEH/xNTkxtYmqAfX1NbE9xJv/v3nm3//Sb+nqlR7Eu1iGHAajWbLuR1NxKKJ2MDgAEQm0e9t72gH9eD4XkL2Uh7ceQS1ZCXxTiWDcdNA2nZCSHlFuS8gJF7vxvcSkXgUBOLhyldAftOxtbSyjDRnnDACVm/+/Sde4kMIUap9XxfePD8X30sEIyGv32cyzwgBgd5SuKrTef0+6M2m5rvwW5WKbvPJeLxZKwCB9KI5aa+r1eqCSwVSTV2VSpX3fZ40HkrIOpP1XV6eaFVLVrxXWiMdo1R7cu1ijuO+y8sDGqVLUwonbwvk4jhuyjStpMOOJSsZnLzt5749J9VnlhVtxopkA0q1093x5T++FPULUzyWBTOtItOd5tKqs5M0NutM1ub2JnhbSZKxrxgCnyMCjOY+x15jNjMEGAKHQIDR3CHAYkkZAgyBzxEBRnOfY68xmxkCDIFDIMBo7hBgsaQMAYbA54jAcac5pmH7OY4qZjND4FghcNxp7rPWsH1nTxcWFW67HB2dHe9MyRIwBBgCR0bgWNPc/gtQshq2PM//8+uvj9zm45OR0dzx6QtmyQlG4BjRXOoattKjiye4h1JpmpJ6cCp5WRqGwIlH4LjQXIoatlcKr4AQhW3Npu/Rt3e0w/FSOLOp79FfKbxy9puzA4bBKdM0nKBUqVTlFeVDI8O03i8hJOdCTmNT4+nTp1vbWqdnTDW1NfTb80XFxSAR3N7Rfvr0aRgHHMfpftD1Dw7MLy50dHVi1fCtOjOzo6tzfnGhr79PJOImVdBNfidLbm7ugGGQVtxNYnAS9eATP3xZAxkCqSDw6WnuUBq21b9UH1zgEg55fN4Vy+qUaRrPPA0YBj0+r2nWtOnY2nJuC0E/nOjOv5i/YlkdGzeOPHsajISWV5fhWizQXNvxeSZNU6Njz6OJGJ4BuNfaEolHJ01TvQ97LXbrvsjwqVOn4KD7/OLC9IzpoC7Bu+10YO0ajWbb5XC6XYYhw4pl1eF24vEmWQXdJHeyVFVXhaLhxeUXBwaHQ2PjRuDfJAYrqQenMgJYGobAiUfgU9LcETRsoT+UJq3GCWMkHn3Q8yDrTNarrQ2pxFt9Y4MQEOAcPrAG3G4nEp6VylpIx0FJaakQELCKKdP0lnMb/Tu8YFBJQRcLFCkFgWSueX4OqO23+jvBcAgupkhiMJQmVQ/GWliAIZDOCHxKmoPn9lAattBVSWgOuIbjuJwLOXjwHmam+h69ccJI05zX70PpEbrM+saG2G58y7nd2t4G6rU4RHieb2xq1PfoB58YAuEg0Nw/v/562+VAuTpMTAhRUtDFNCKay/s+Twj6UZyD/phcpg0K5DiOVg/GWliAIZDOCHxKmjuahq1UiBH7T0QZEH+rri4UDc+YZ1OnObgS8Onosx2fJ76X2F/XA9/qqk4nBIQVy6qI5kBaUlbmSCoPh9ZCQGSz9rI2GHl7zwshhBatfCfNSdWDRXWxjwyB9ETgU9Kc0s0j79SwpT0vuttElAFfWezWF8tLuLyFHtw7WQOy9w8OBMJBuJrAOGHEmSktlgnCvCJBR8iupKCLZotszs7Odrpdjx4f3IBFCCksKgyEg/daW96pLS6rHoy1sABDIJ0R+MQ0B9DDCnoqGraQfmFpEVav8G4tiBdRBkTC7VbcX3+9jx6ibHcSmqv+9ReQZuQ4bsAwKAT9ed/nEUJGx0ZRFvhOQ30oGkbB9L7+Pn8ocL3sOuxU3KqrA2JVUtAF22Rl0KdM09suh0aj4Tiuf3DA6/flX8xPQnNJ1IOxFhZgCKQzAseC5qADYAU9uYYtpLz5801/KACSsOaFOdDgttitIDwb30vgzgAhpPqXakgcioaXVg5u/wStWiWa43l+dOw5qN1GE7FIPNre0Q71FhYVujzuaCIWioZfvlo/EEy3WaB2nucnpg7ue44mYnt/vrbabbgJK6ugC7NRVMqltYU1Go19fQ0M8IcC1b9UQ+1KBhNCkqgHQ172L0MgnRE4RjQHc9hUNGwhZeoKurR+rEqlwq2JJB0PCr34UgimpJV7OY778h9f4lcgwJ1/MV+2fFkFXTqvKEwr4oq+Yh8ZAgyBQyFwvGiOadgeqvNYYoYAQyAVBI4XzaViMUvDEGAIMAQOhQCjuUPBxRIzBBgCnx8CjOY+vz5jFjMEGAKHQoDR3KHgYokZAgyBzw+B96K5s9+cRfWOz6/pzGKGAEMgPRA4Os3tv/4qq3l5YnAbeTby8tU6vv52YtrFGsIQSDcEjk5zsvLlHMdlZ2fDAYDPHUpGc597DzL7GQKAQKo0d/78eRQXgpxTpmk8K4podnZ34XEojGSBQyGQnZ2Ngk6HysgSMwQYArIIvJvmUEfk15pfsYiS0hKP4K28WYkx6szM9o528/ycEPT39feBkC98m3Mhp/t+d1PzXZ7na2prZsyzHV2dKpUqiRhv3e26qzpdUXHx6NjzAcMgLcbL83zz783mefPQyHDZjTL0HDUazV8GmA1DBpRXQvOk+r3wlfayFlSCm5rvwrEtQghoFOt79N33u3Mu5GAhhBCVSlV3u27GPEtLBGdkZDQ0NuZfzC+7UTY5Panv0dM8hVlE8bIN+eJ/vjAvzPlDgf02YtNoA1iYIcAQOCwCyWiO47jm35v9ocD65is4yo6lGyeMIlfu3LfnZufM205HJB612K1LK8sgBkkI0f2gW7Gsev2+kWcjvoDgcDstdmtyMV6L3eoLCJuOrf7BgU3H1sbWJhCHOjNzX8t32+V49Lhv5NlTr9/X2t4GVj163LdsWekfHLDabZF4tPrXX9BaWf1eQsiturpwLLJiWTUMGRxu55RpGrKARrFtzRaORejjsRkZGS+Wl3wBwTBksNptQkC4qtOhXNKOz2Nbs/UPDngE78KLBSApnueXV5chi+2lfdt5cCYf2q7UEFAbje3Gl1aWaX7H5rAAQ4AhcCgEFGkuiRRtUXHxjs9DP/9YpdKkVXtZ6w8FNrY2NRpNZ3cX0BzmIoSIxHgtdqvFboXDobTkr/ay1hcQUBeELgHDIilgJf1ejUbj9u4MPx2GjCKxE0IILbUEaWpqa4SgH2RIMjIybC/tC0uLSHPGibdq5o8e9+HM/bf6Ox7BCz8SPM+/2towDBmg8OQNUdKOx2ayAEOAIZAiAoo0Z7FbV60WuANBVNbw0+FVq0W0VAdpktMceF5qtRqPxMuK8YqEM2llDnVmJjhrxolx3Q86elrHcVzZjTJ9jx7uxAEZkiT6vVXVVYFwsKq6StQ6/CilOXD6cO8VP9Lil4QQGgTjhHF989W//vUv7WXt/lTaNGtatVrAm1NqCBpACLlTfycYCcn+otDJWJghwBBIgoAizcFVW+ubr+B+LCwiueYl/YRjFlnPiBCiJMabhOZgday+od5it8Z24y6Pu7CoEKRBViyrOz7Po8cHy4JOtwtpTkm/t6a2xhcQIDttKoalNGecMKKbRtNZcppLvN4NRkL43/ziAlShUqmkDcHaOY5raTu4eefF8hJ7ORFhYQGGwBEQUKQ5QojsvGn46bDtpV3WlaOffJEpUsoARUlZMd7kNIclf5eX5xG8cANDTW1NIBzELRFaXlhJv7e8ojwQDiaZ/0pt/kP/YMfnOX/+PNgwPjmx6dhSq9VJaM4wZIA0aLY0QDcEvk2yYiDNzmIYAgyB5AgkoznISatv51/Md3ncv9XfUSr0XmuL27vzXd6B1i5NhVLKSC7GS/MUPWnVaDT1jQ2wJZp/Md8jeGGpq6q6Khh+O7nLuZDjdLtQslxJv5fn+QNdTLsVNjeKiotLf/yRbpfU5pLSEn8o8KDnASEkPz9/x+cxDD3BtTm8p4Z2aX+qrAyEgx2dHaCRp/tBBwuOSg1RqVQjz56ikDJtDwszBBgCR0Pg3TQH88TeRw+jidj/b+d8UhMGojB+i7lBsIvs7BHUA1RM93ZXtxbpAUpv0BJdpxpKS6PV+C9mJtPeq5QH8qBOqmSQWXybMAwz8978Bj4meeFbrNJxPDloG0nh65f1aPIitdrm2XQ+oxfe7k1XakVOubz4UGLGa5K54DpIPqdSq81uq76KaBxR4dLzvHA0lFqts818uXgKn9NVuq8OH/TvFUI0W623j/fiW+eFlFo9PP4WB+hOyn19uR1x/66fFzKTO6lVOBoSipLbHH0cJKNjqVUyS6g4a9qIEOKq3d5nTvngCQIgUIXAUTJHATpBJ10vb3u9f+Md73xbbsZrCuT7fqPZ+Ku2PG7tosYLFEIIk38vn2WKyPu5FzHvL2nzbfJhpo3wMWiDAAhUJHCCzA3uB/FrzH98rRgb00EABEDgDAROkLkzZIMQIAACIGCdAGTOOlIsCAIg4BYByJxb54FsQAAErBOAzFlHigVBAATcIgCZc+s8kA0IgIB1ApA560ixIAiAgFsEIHNunQeyAQEQsE7gB4hS054/i9UIAAAAAElFTkSuQmCC;movable=0;resizable=0;rotatable=0;deletable=0;editable=0;locked=1;connectable=0;" vertex="1" parent="1">
          <mxGeometry x="-949" y="-1109" width="418" height="223" as="geometry" />
        </mxCell>
        <mxCell id="NM8_mZAWdIv0FdGWZ86l-21" value="" style="rounded=0;whiteSpace=wrap;html=1;movable=0;resizable=0;rotatable=0;deletable=0;editable=0;locked=1;connectable=0;" vertex="1" parent="1">
          <mxGeometry x="-1040" y="-1800" width="1040" height="360" as="geometry" />
        </mxCell>
        <mxCell id="NM8_mZAWdIv0FdGWZ86l-20" value="Integración&amp;nbsp; &amp;nbsp; &amp;nbsp;" style="rounded=1;whiteSpace=wrap;html=1;fillColor=none;dashed=1;dashPattern=8 8;arcSize=5;verticalAlign=bottom;align=right;horizontal=1;fontSize=16;fontStyle=1;movable=1;resizable=1;rotatable=1;deletable=1;editable=1;locked=0;connectable=1;" vertex="1" parent="1">
          <mxGeometry x="-970" y="-1740" width="770" height="240" as="geometry" />
        </mxCell>
        <mxCell id="NM8_mZAWdIv0FdGWZ86l-2" value="&lt;span style=&quot;white-space: pre;&quot;&gt;&#x9;&lt;/span&gt;NomipayService" style="rounded=0;whiteSpace=wrap;html=1;fontSize=16;verticalAlign=top;align=left;fontStyle=1" vertex="1" parent="1">
          <mxGeometry x="-733" y="-1675" width="283" height="155" as="geometry" />
        </mxCell>
        <mxCell id="NM8_mZAWdIv0FdGWZ86l-3" style="edgeStyle=none;rounded=0;orthogonalLoop=1;jettySize=auto;html=1;exitX=1;exitY=0.5;exitDx=0;exitDy=0;entryX=0;entryY=0.5;entryDx=0;entryDy=0;" edge="1" parent="1" source="NM8_mZAWdIv0FdGWZ86l-5" target="NM8_mZAWdIv0FdGWZ86l-10">
          <mxGeometry relative="1" as="geometry" />
        </mxCell>
        <mxCell id="NM8_mZAWdIv0FdGWZ86l-4" style="edgeStyle=orthogonalEdgeStyle;rounded=0;orthogonalLoop=1;jettySize=auto;html=1;exitX=0.5;exitY=0;exitDx=0;exitDy=0;" edge="1" parent="1" source="NM8_mZAWdIv0FdGWZ86l-5" target="NM8_mZAWdIv0FdGWZ86l-13">
          <mxGeometry relative="1" as="geometry" />
        </mxCell>
        <mxCell id="NM8_mZAWdIv0FdGWZ86l-5" value="csb-rest-services" style="rounded=0;whiteSpace=wrap;html=1;fontSize=16;" vertex="1" parent="1">
          <mxGeometry x="-419" y="-1621" width="201" height="60" as="geometry" />
        </mxCell>
        <mxCell id="NM8_mZAWdIv0FdGWZ86l-6" style="edgeStyle=none;rounded=0;orthogonalLoop=1;jettySize=auto;html=1;exitX=1;exitY=0.5;exitDx=0;exitDy=0;entryX=0;entryY=0.5;entryDx=0;entryDy=0;" edge="1" parent="1" source="NM8_mZAWdIv0FdGWZ86l-19" target="NM8_mZAWdIv0FdGWZ86l-5">
          <mxGeometry relative="1" as="geometry" />
        </mxCell>
        <mxCell id="NM8_mZAWdIv0FdGWZ86l-10" value="Nomipay" style="rounded=0;whiteSpace=wrap;html=1;fontSize=16;" vertex="1" parent="1">
          <mxGeometry x="-160" y="-1621" width="120" height="60" as="geometry" />
        </mxCell>
        <mxCell id="NM8_mZAWdIv0FdGWZ86l-12" value="shermfin-validator" style="rounded=0;whiteSpace=wrap;html=1;fontSize=16;" vertex="1" parent="1">
          <mxGeometry x="-950" y="-1621" width="190" height="60" as="geometry" />
        </mxCell>
        <mxCell id="NM8_mZAWdIv0FdGWZ86l-13" value="broker-data" style="rounded=0;whiteSpace=wrap;html=1;fontSize=16;" vertex="1" parent="1">
          <mxGeometry x="-420" y="-1720" width="203" height="60" as="geometry" />
        </mxCell>
        <mxCell id="NM8_mZAWdIv0FdGWZ86l-18" style="rounded=0;orthogonalLoop=1;jettySize=auto;html=1;exitX=0;exitY=0.5;exitDx=0;exitDy=0;entryX=1;entryY=0.5;entryDx=0;entryDy=0;" edge="1" parent="1" source="NM8_mZAWdIv0FdGWZ86l-19" target="NM8_mZAWdIv0FdGWZ86l-12">
          <mxGeometry relative="1" as="geometry" />
        </mxCell>
        <mxCell id="NM8_mZAWdIv0FdGWZ86l-19" value="validateAccountBankNomipay" style="rounded=0;whiteSpace=wrap;html=1;fontSize=16;" vertex="1" parent="1">
          <mxGeometry x="-703" y="-1621" width="223" height="60" as="geometry" />
        </mxCell>
        <mxCell id="NM8_mZAWdIv0FdGWZ86l-22" value="" style="shape=image;verticalLabelPosition=bottom;labelBackgroundColor=default;verticalAlign=top;aspect=fixed;imageAspect=0;image=data:image/png,iVBORw0KGgoAAAANSUhEUgAAAW4AAAGBCAIAAADJ0syPAAAgAElEQVR4Aex9+1MTyf72+1dM1fySqvOtTLm1Fb5nC2RPXNBlEcOCvrJwFOHoghvElYusQLi4BpVbBBSJQS7hIpdcECFXkkwyk4QE1LN/1gv72dNvn5nJkGC4JDRlWT093Z/ufrr7SV+f+T8U+SMIEAQIAl+MwP/5YgvEAEGAIEAQoAiVkEZAECAIpAEBQiVpAJGYIAgQBAiVkDZAECAIpAGBA6hEoVB0dXctW1Ya7zemITVigiBAEMhSBA6gkiHDcCDENre0qFSqLEWAFIsgQBBIAwIHUInRZJwxz6YhHWKCIEAQyGoEDqCS5wP9Frs1qxEghSMIEATSgMABVNLd2+P0uP7+zTdpSIqYIAgQBLIXgQOopKHx3oZjM+98XvYiQEpGECAIpAGBhFRSVl72fKDf69+aW5inaToNSRETBAGCQPYikJBK6u/WW+xWlgu+GB0hVJK9DYCUjCCQHgQSUgmYb2pp3nQ5yAQnPWATKwSB7EXgACrRdelcXjehkuxtAKRkBIH0IHAAlfyuf0I2g9ODNLFCEMhqBA6gEqPJuLC0mNUIkMIRBAgCaUDgACoZnxjfdDkuXbqUhqSICYIAQSB7ETiASnJzc2fnzKEw96ijPXtBICUjCBAEvhSBA6jkS82T+AQBgsDZQIBQydmoZ1JKgsARI0Co5IgBJuYJAmcDAUIlZ6OeSSkJAkeMAKGSIwaYmCcIZAUCmlLN5NSk6e1kIp2AdFKJUqlsbXvYeL+xprZG16VT5eQcDsPCi4W9j3v1fXp9n76svExspPxqudPj6uruEr8Cn7Lysta2h0qlMlEA4p8qAqqcnPbO9sKLhalGPET4sVdj7z+skzPWh4AORSkrL+t93FtWXqbr0tXU1iD/wzkuXbq0FfBNz07/+OOPiW7kpZNK8s7nubxuo8loNBm/5Lh9xU8VC0uLFrs1Eot29/aIC38glXT39iSZAYZhErGsOF3wqfrnPxeWFp8+e5oowIn40zSdn58vqOb6u/UrllX493L81ZecD9KUavzBgLZBKyjdhe8uzM6Zx169BOK+8N2FiTfGC99dEARL6fFIqQQyDJiY583aBq0AtJSymvbA+fn5CoUCNwvdATI8OTV59do19FahUPQ9e+oPBvzBwMjYKP7j3d3bw0X4X7S/cBFeshMhI8k4NKUaj89bWVUlEzidVPL3b75xelxGk9EwYkiyJ8vkDIjpcCgkTyUWu9VoMspkQ/zKMGLgo2G316NWq8VvT8pHssjdvT0sF+wf7Nf36Vcsq3w0fOgfqERUoinVcGE+EovevnOboihNqcbldWtKNSeFw4Hpako1bIg1moz6Pv3wCwMX5ifeGE8Jm2gbtP5gQICetkEbCnPDLwz6Pv2MeTYa34ZDXjRNT7wx+li/tkFbV1/n8XmXV5fRSFzXpePC/M/1dSwXPFwnwpEsKChwul3iHxI8TDqphKIoi91qGDHg2msKhaK5pQVvwdcrKmD2QdN0xU8Vg8ND84sLXT3dOKdSFCVJJTCHgrmPQASfpmltg3bGPKvv0/c960NcplAoamprRsZGzfPm1raHiPLLysv0fXq312Nbs+n79IIZWW5urv5p34x5VvCrpVKpNhybI2OjUIU4lKqcnK6e7vnFhf7B/m//8S3+6sbNGxNvjFMz03X1dajVKhSKxvuNM+ZZQXiYIUL0wouF7Z3tgEzhxcKW1pbc3NyOzo6pmWmUMVVOjq5LZ56fQ6yBZoU4v+Tn57u9nvGJcYqiZJBvvN94vaLi6rVr4xOv90TCUUEEVHLn5zudus6vv/5aU6pxez0bjs2301NiKmEYpqOzwzxvRvWrVCofNDdVVlWOjI12dumKLxdPvDE23m8EWKBS9H363se9+GQKyv7tP77V9+knpyZv3LyB4FWr1X8W32wYMaBOKNPqBAX5Xf8kFOZKrpSAwYT1npMDPVnboK39Vy20Z2iNCG3BtBrVr75Pj7dthmHafmszz5tHxkarb1VDwcGU0WTko2FgDdRlcH6hadq2Zlu1WiiKqqyqZEPsr00PIOe379xmuSAQOkVR2gatZ8tTWVXp8rp1XToEFzjEYx9BAMEjdEaxHTxYmqnkwncXVH/+4UNco8m4vrEOfEnT9LvlJZCeVuXkzC8uTM1MDxmGfazf6Xbh02NJKlGpVK+NEyuWVV/AL7hn+KTvSTS+PTn9dnL6bSQWRVRSfLl4xbI68cY49uolF+ERc8PgnwvzvoB/xbL6dnoKpX69osIfDNje2w0jhkCIxX+1amprvP6t8qvlguGMWq12elxur8cwYlixrLq8boQAZAyajo/19w/2UxSlVCrfLS8FQqxhxGC129gQe72iAioGt4w3I22DlovwWwHf5PTb8YnX0fh2e+f+EWQYsTvdrkgsarFbl1aWUSvEqaSgoGAr4IN5mQzyFrs1EGI3XY7B4aFNl2PDsQndAO+Bv+uf8NHwgz8bMQx9BwYHvP6toh+K8FFJ3vm8TZfD6XENGYadbpfT7VKr1Xnn8/YqeivgM5qMXIR3ul2vjROBEFtZVUlRFFSKbc0W3o7gv4FQdq9/a3xifHbOHNuNQ9kpino+0L9sWRkcHrLabZFYtP6XuwBjolaHF4SiKJxKEtU7wzD7TY71Qyqx3TiMZAVNFEebYZjl1WWoX9t7O5SdoihVTs76xrrT43o+0D/26qU/GOjQde77/9mwPzg2Yrtx25ptxbLa0toCBcHbgFKpXN9YB9b+Xf9kK+ArKCiAYJAZw4gBHhmGKbxYqFAoCi8WMgwDnvB/e2f7zqdd23s7GsLgbyXdQGHyo5s0U4lkPm7fuf1nW9mfaJVcKdkK+BCVovCVVVVsiMVbj6CeUEhwGE1GnEqKfigKhFjopdA+EJXgEZtamtkQi367YBglnuC8nZ5atVoA6JvVNwMhFnVOw4gB6uD5QD+exNvpKYfbiX58UCVVVlWGwhw0F4qiFAoF/AppG7QsF7xZfRNoxfbejq5NylMJjMWgSeE5x9sxKnJ3bw/wy4pl1e31TE6/FbSqP3/c/gt5i91qsVshGA4X6oFd3V1cmAcegWGIPxhobXvodLs6dJ04lfQ87tkK+L4vKqIoSq1We/1bhhEDVOteN0D1m5+fv+ncxKsepYUKAlQCZYdfI4vdisZ3EEyACd7qin4o8vq3oNUh4wzD3KqpcXs9C+8WwFSiev+16UGQD0FlQac6kEp+bXrgY/2wrsEwzAfHBnRyTakmEGIbGu+houEOnDWQv7ZBG96OAL84Pa6llWWYWYtXJPGWg6KLHUAl6DdVHAD3geHSjHk2yIdQL8ADIPdxUIkqJ8fhdj4f2P817tB14qMPhmFaWltg1hoKc3h7Qk0N5RV3CKhkv6mF+br6Oggj6FcwKdD36Y0m44FUAukOGYY1pRpNqebGzRsenxeGdnvjrU2XAwqCcx8sEsHcAc8kRVG6Ll2QD6HxM3orWE7CH/EGgbct3C0mQUGREQ4w63k+0G9bs7FcsP5uPbxKhHyi1KEHvpk0sVwQ8QiiEm2DdvTlqO29/eq1a2itBNbOUZHhEVUr7vjg2MCrHvV2FFdQdhwumqarb1XDnNft9SB6xVvdo452tLaFFndiu3Euwuv79DDnlal3PDkceVQEhDb6ddkfE21++PHHH6EVTc9Ow6xElZMDoyej6U3FTxUCNhQUE8yitZKnz54uLr/jwjy0RkkqeTNpQqDJOM59dU6QdKLAMFxyed1Oj6v8anmiYHvDw+OgEoqiDCOG9Y11hmHeLS+NvhyFDF2vqGBD7IplNS1UEgixqKh4v7rX2MhHw7CGkjyVROPbXIRH/2ChC+jj5fgrfZ++f7Cf5YJQFmhSv+ufiIHu7u1xez35+fmCV4J2gGc4UWcWtDM8GEVRuAWUlsBzxjy76XKoVCoZ5HGzeIrQvV+Ov+LCPL4Nj7p9ZVWlj/V36joRlcAAB2UG2B91P9yRKpWgcsHUYyvgez6wv7SMUwlFUaMvR2FmvbC0CJMCnPvqf7kbCnNoxQ3yI1nvgspCEKEiQBlRriiKMpqM8Y87qP1wEX5+cQGCKRSKpuYmi926vRPz+Lyo0cICh+SyK+75fGC/4RX9UCQgOPidQ0yKYE+LA0Z8Jz/BgVG0Pxh4+Fub2+tBK0NGkxFNClCLRCUX1BPyB4dgVFJXX8dFeDRuxCvVYre+W14CDsb7BthBzQLZhypBc07kD9NyLsyj7VWn2wX5hyiSPwiPOtpDYQ5vLmBQMNF9M2mCTo7/6AnaliDzgpzjRUZ5FniiSZkM8rhZPEVUQU/6noS3I/ca//rwK/L/a95hsyAqeTNpwtfIbGu2haVFVK24I1UqQXDBLzZqUXjmKYqqqa3xBfy/aH/Bdx/wDBtNRjRakal3QWWhVFARAHAcbcOIAVUoqg6B4/uiIh/rxwezOOAosMATzTqbWpqDfAht0JaVl7FcMMkb/MmPSiAbMO4+FVSiVCpt7+0Ot/ODYwN9M3R8YhwNCB80N/HRMOICtIMj+VMPrI+vlcBUfHp2mqZpVU7OqnW/QcMy6qrVAvNqmqafPn8m6NgLS4vm+Tn6zz+0uWMYeeFj/dD/VTk5sCAKxIxTDL5m3j/Yj6bTqpyce41/bUnA2R7T20kwfqvm1hXN/kZpZVVlkA896dsfyBQXF28FfIaRF1BtbyZNtjXb3pycYZi301NcmIfFHUGTQg0aYj3qaPf6t2BhAq3U4I27sqoSrQvIII+bxVPEe+Doy1E0V0L+FEX92vQgvB0J/Gc16temB1yEB9K5VVMTCnPtne2o++GOZKgkEosCXGq12u31wHhw/yckzMPkqPBiodvrwQkdtttWLKu4PjGeYagdo+mvzWDJeqco6vad21yEb/utDegpFObgxx/WTSDF3Nxc25oNtbp/3b4dCnMwfIP9Mlh+UqvVTS3N0BiKLxf7WD/eompqawIhFhZl8GU1NCq5dOmSbc0Ga+GwgA1NS6FQCIZOiInEjpTWSiC6eD1LbPaYJjgURT199nT380f8ZFf51XKPzxuNb/PR8PsP62vr7y02C+rPsHoa243z0fBWwAfHq6D9ffrjM/qHCKXhXkMkFo3EolyYX1x+h1Zk6u/WB/lQJBblo+GllWU4RIeAuPPzHXgbiUXNC3OQOsMwsE3AR8Ox3bh53vz1119XVlUFQiz6AURkB22aYRjT28mdT7vR+Pbu549Wuw3tB0H7iH/cie3GI7Eo2nrQdem2d2KRWPTPJObQgmhdfd1fBYnwpreTbq8nGSrJO59ne2+P7cbD2xGvfwsIq7u3BwEViUXfTk/BwrAM8gdSCewlT7zZX3W6cfMG3jOhdrjIX9xH0/TI2ChkKbYb39uPp2kaZxCX193d25N3Pg9RCZ7hT398ju3GgSZg9OF0u8Lbkdhu3L6+BkuPDMOY5+dg1cMfDEybZ9gQix/iej7Q/+mPz2hOjU9woA00t7SEtyMwzZGsdyjv+MTr3c8fI7Go2+vBp1HdvT1QQJYLmt5O4h+N0nXpoB5ju3HPlgd+kKpvVXt8XmjV8Y87tjUbfjpJqVTOmGfhLRfma/9VCyPT2G4c6jG2G19eXUbb5FCP0LQ8Pm/FT39tAqLmLek4xA6OplSzFfCd/LKrZHnAk6bp74uKoNfRNH3uq3OCwCqVqvhyMc4vggD4o0KhKPqhCPVJ9EqhUBRfLobRkEKhEATA84CiUBTFMEzx5WJBYDyA2C0T5cJ3F9D2MIqIZwx5wkaPZEHwMJLuvPN53xcVJbOihpdaEnlJ+4fwlMEkeWtofJR3Pk8MI15qwdC98s8VHPwH4MBEE2VYpVIBtjjbQjsp+qFIsoniIOPpqlSqkisliZpWSm0eTgOIMcGTE7tTPVdScqXEHwz8rn8iWUywf3yjEnF5iA9BIEkEEJUkGR6CVVZVbjg2YdqbUkT5wAIqkQ+cNW8fNDe5vR77+lqiiyaESrKmrrO5INoGrdvrKb5cnHwha2pr2BA7PvE60Y9/8qYEIReWFscnXgs8ySOhEtIGCAIEgTQgQKgkDSASEwQBggChEtIGCAIEgTQgQKgkDSASEwQBgsAJUwkIpoHsADrCnMZakRElgFQOVFFKS2bq6uu8/i10RSgtNhMZEVx1T6Oa1lFXFipRuqSP0lh2lDfiSITACVMJ3PhsbXsoODmWKLup+suIEoCpNFKJpI4ZpJIWKsHlv+DwvqR+BH7CFe7mpEtN63CVtXcgHZ1vTrL60kUl6VUSSzLzZzbYCVMJHHx+0Ny06XIc0U0kqFrBnZ2jqG9BH057EiBxNPzCsL0TM8/P6fv0kqcPBdlIo5rWISoLnW1NOxqJDO5dBULHqNJY9kTJEX+EwAlTCTqQa7Fb8XtNKpWqte3h1Mz0xBsjLpmVSE1LqVQ2t7QUXy7WNminZqYfdbSj9gRFFVOJ/NxHoVC0tj00z/+XNlci8TEZHTN4BVfgBT0fqWyJVdQkdcygIPt35EVqnYkU5NKrppWosuCaP8jEtbS2oHMcNbU1cH8aiA8JdwMmIFt34+aNqZnpgcGBr7/+mqIoeRU1sYIcnGqvq6+bmplesayurb+PxKLomLy8khjqA8SRFgROmEoUCsX3RfuHjkF+DRWp9WGrxW4dMgwvLC1u78R6Hv8lFg1jbLGaFvz6ef1by5aVfcHOCI/0bMCmmEpk5j5wdZ3lgn/KOM75WD/QWSLxMRkdMzQr4cI8PuySV1GT1DGDgkhSSSIFOTjWnS41rUSVNfxiX+x27NXL5wP9DrcTXWXSdelA69vpdq1YVnEp6bmFeZYLGkZesFzQ4XbiF6ZWLKuJVNTECnJI3/T5QP/4xGtfwI9LXsooiaGWRhzpQuCEqSSZYsyYZ9GdPaASsZoWUAm64tmh62S5IBLdFN8kxtMVs8zTZ09ZLoj0itBFWzwWLn0E/oKZBR5YIB0AgwUZFTVJHTMwKKaSJBXkBPmhKOoQN0TFRqBo+H1cPEyiCQ7cavWx/usVFdoG7QfHBrr9KL5xB3BxER7qHVdLK7lSEgixTS3NkOiMeRYUhvA8EPfxIHB6qeTqtWu9vz/W9+ltazacStCFa1BUgmvdgiZbU1sT5EO4MJeYLxC+4lerVkuiFplIfCyR+BBKRXBxQ6Bbgz/iIcV3T8RUsk+viRXkUAYkHYLLb5JhDvQcGBqM7cYtduv9B7+i2Q3EEtQLMgX+6FJ14cVC/AoiftsYoghwQBAJ9A3xXx2UFnEcDwKnkUpg1BrkQyC9LUMlaCAgaLLitijmC4Sv+JXFbpX8mZURH0uVSgTqEqgggvGLoAvBL7ZgrUTboE2kIIfKeNSOq9euTc1Ms1xweyeG7ysJ6gVlI5E/BBBXnwAHRCXQVDxbnrr6ur5nfXw0nKT2D8oJcaQLgdNIJZpSTZAPIWllvKsLmhRS0xI0zYbGe6Ewhy9z4kYE2IlfLSwtgviQOKSM7BtOB4KIAoIAKRZcLhwVRBBSUF5JKtnfWEmgICfOhsAnLaMSZHNPQMo8P+f0uNDlUUG9oJCJ/CFA8lQCDG57b5+amR6feI0rlaC0JB2J5B0kAxPPZBA4jVRScqUkyIdgqVWVk7O3cIA6trZBK6mmBU1zb8VuTwuHpmlccBBQMJqMyIgAFzGVgBzOg+YmkA5B43YZ8TGKoiR1zFBa6IcUfGRU1PCQyVCJjIIcSl3SkZa1EpqmW1pb4HM5e8Jf5oU5XIgQVA4Hh4dgqwVtq6WRSlatlvWN9epb1ZpSTZJaLSDE9fHfn3BNP0mIiGfyCJxGKkHqW3w0zIX5yem3QT4EWo2J1LSgaW44NsPbkWh8O8iHkLQ6YAGfOAFVq9a2h9R/PtmFRMY+/fEZrcjQND0wOBDbjW/vxHY+7SKxUhnxMTAo1jGDpQ08FbSPk0hFLRGVyJhKpCAn3w4OoaYlNpibm7vwbiH+cQf0zdgQK0C+vbM9Gt8Ob0e2d2LoAw5chAdMkIIhWJZRUcPXyHCIyq+W29ZsIMgc24073E5cl0ycYfDRNmj3vziTyrdgEpki/oDAaaQSyBmuJbUnVQ8/aOhXWqCmhX7lGIZJJGmV6phWMjyuiyUpPoYreh3YyCSTODCWZIBECnKSgZFnqmpaKKLAAQXBd2HwAGksJm4WbXWjJVsQXpZXMwYLoHqJJtECs+TxEAicXiqRLAyiEsFbRCUCf/KY3QjU1dchzVGapptamrkIL/5gmxiE5wP9Xv9WMuMXcVziI4lA5lGJpJpW3vk8h9vZ0dkhWUjima0I0DQ9NDzEhfmP//60+/ljIMQ+6XuCBikypR4cHkLnHmWCkVfJI5BhVJJ8wUhIggBB4DgRIFRynGiTtAgCWYsAoZKsrVpSMILAcSJAqOQ40c6YtBQKRVd317Jl5Sj0qDIGBZLRVBA4YSo5BmEugapYKuCkFlapVM4tzM8tzEte/0vNVoqhQTCh8X5jTW0NXN5P0YAw+JBhOBBim1taUlUtEhoiz2cGgROmksMJcyWqHUkdM/nz7IlMyfgzDIMOhuPB0kslKZ34gL1wo8kouNqDZy8lt9FknDHPphSFBD7jCJwwlRxCmEumwiRZQ9JTxsiBr/CjlgcGPlyARMdnElmDD80bTUb8hnGiwMn4Px/oR2d/kwlPwhAETphKEglzyaiotXe2wze0KYqCIT1FUTI6ZkAlVzQa/dO+yalJXJMN5L+mZqb3xvNwiwQaROP9RkkdM9D4cns9tjWbvk+PTyVqamtAKg33RM3rxs0bIDKGhHkSCbLBVMVoMvLRMFyMxi8lJsowXAI0jBi6e3vw23SQAcnBGsqbpEPSjmRI4kkQAAROmEoSCXPJqKhJ3sWQ0THr7u0Jb0c8Pu/Yq5ezc2Yuwv/r9m30eXqQ/1pcfucPBuBb89AtJXXM6u/Wr1hWuTDvC/hXLKtvp6fQUXFdl27FsvrBsRHkQ5pSDd68QOLMPG8eGRv1sf7+wX7gvvnFBWAxH+tHMmKg7fbBsbF/Q2TNtmJZbWltAWs0TY9PvJbMMHyDGgSZxV+iNoy8+PjvT2+np/BcybsbGu9tODZR6eQDk7cEAYqiTphKkqkDXM9GMPIXzDUk5zLdvT2hMFfxUwW6wgd3NCqrKgMhFuSR4Hb8wtIi5Mdit8romAkSxYsgyB5FUZVVlaEwh+567N2dFZ/FFAuyie2AqUQZxvMgdhtGXux+/pjkZ27LysvgUPncwrw4q2LjxIcgAAicXipJRkVN0KsTUQm6fopf1enu7dkK+OByuqZUMzA0iKYGuFlxr8bfCpqROLCuSxfkQ0jbEQ8vI8gmtgPCHIkyjJuVdCe/EVN/t95it7Jc8MXoCKESSTCJpyQCp5FKkldRE/TqVKlk59Puvo5BhId/9vU12JrBzYp7Nf5WgKk4cHdvj9vryc/PF4SUF2QT2wEqSZRhgfEvf2xqad50OcgE58uRPDsWTiOVJK+iJujVKVHJo452H+sv+qFIXNm4WXGvxt8K4ooDP+poD4W58qvlgpC4ONOBomEQVybDAuPix+RHJRBX16VDQzmxNeJDEBAjcBqpREZFrfxqeSDEggxSTW1NKMwhJaFEOmY4v+ATnOLLxf5gYO/zFDCML79anpubCwDhZCFmh4WlRfP83N7yCv71JogoDnzp0qWtgM/0dhL0Vm7V3Lqi2V+UlRdkq6mtCYTYm9U3QcYNciiTYXG94j4prZVAxN/1T8hmMI4hcR+IwGmkEhkVNfh8TGw3zkfDmy7H0soyTiV55/PEOmaJqISiqPq79WyIjca3o/FtNsTea2wEvOSp5M7Pd4J8CATZ0DdfjCYjLpXGRXi0jwO8EP+4E9uNR2LR9s52iqLkBdmUSuWMeRaKyYX52n/VQsYSZVi+mg+xg2M0GdEitLxx8pYgAAicRiqBnEmqqMErgYSaoC5T0jGDbVTxBqrApuAR11ITvEr0eOG7C4JUcCOSgmw4ArhZsSn8rdh9iHMl4xPjmy7HpUuXxNaID0FAEoHTSyWS2SWex4NAbm7u7Jw5FObItyCOB/AsSIVQSRZUIikCQeDkESBUcvJ1QHJAEMgCBAiVZEElkiIQBE4eAUIlJ18HJAcEgSxAgFBJ5lWiplQzOTVpejspKZuSeeUhOc4KBDKPSo5BeC3VmgXxAX2fvvdxb+HFQkH0svKy3se9ZeVlui4drhggCJbkI5x5m56d/vHHH8kdmSRBI8GOAYHMo5L0Cq/JQJy8jhmID9jWbOHtCFw1xs129/ZwEf4X7S9chE/mw3F4XLFbU6rx+LyVVVXiV8SHIHCCCGQelaRXeC0R9OIj8IlCIn/xVRp4pevScWH+5/o6lgt+OZUUFBQ43S4xYaFsEAdB4EQQyDwqkRReUyqVzS0txZeLtQ3aqZnpRx3tcOcFMGUYpqOzwzxv7urpRgpsILwGomc3bt6YmpkeGBz4+uuvZXTMEkmfQSqJqETboPVseSqrKl1et65LJ6jm5Mc+EBGuEYntCMySR4LAMSOQeVQiKbwGHczr31q2rAy/MHARfuHdAiwl5J3P23Q5nB7XkGHY6XY53S74UuyF7y7MLcyzXNAw8oLlgg63E6TMZHTMVDk5ktJnUGeJqIRhmMKLhQqFovBiIcMweAW3d7bvfNq1vbcnL1JP07Rtzfbloxs8G8RNEPhyBDKPSiTLDFRiNBmBPjp0nSwXLCsvoyiq5/G+xNH3RftiAmq12uvfMowYwEje+Tyn2+Vj/dcrKrQN2g+ODaTQceAERyx9lohKJDMMnkAly6vLyVAJDJdmzLNBPvTly7cyuSKvCAKHQCCrqAT9VtfU1gT5ECwoLCwt4vfl8UcgoNGXoxRFwdgB7YkkohIZ6bNDUAlFUee+OocSla8/GC65vG6nxyUWQJGPS94SBI4ageykErxXg1ArwtFoMiJmASpBBITCUBQlSSXy0md4orip9LqVSuX6xrpkntObELFGEEgJgeykkobGe6EwB7OAN5Om9Y11mEHAQtDfA2UAACAASURBVANS4kiVSuSlzw5HJcmPSqBe4ZM3hEpSauUk8DEgkFVUsmJZZRiGpmm8z//a9ICL8CBrdKtmX3gNxIcEAvQCrCV1zOSlzzSlGqTwJrCW6DGltRIwkp+fv+ncJJvBiSAl/ieFQFZRyYZjM7wdica3g3yo/m49YIo02cLbkdhuHCkwako1XIQH6TOxjqmkjpm89Bl8pya2Gw9vR9Y31s99de7ASj3EDg7aCz/QOAlAEDhOBLKKSrp7exiGKfqhCD9UAmgyDFN8uViwF3sg0GIdswOlz1LVcEv1XEnJlRJ/MPC7/om4jAcWhwQgCBwdAtlGJUeH1Omx/KC5ye31oE9tnJ6MkZycZQSyh0ocbmdHZ8dZrktSdoLACSKQJVRyggiSpAkCBIHM+GYwqSeCAEHg9CNARiWnv45IDgkCGYAAoZIMqCSSRYLA6UfgTFCJpI6ZKienvbNdLHp2uDqDu3aN9xtramtAuOBwdiBW4/3G1raH1ysqJGXZvsQyHrf8arnT4+rq7sI9D+FOb9kPkQES5TQgcCaoRFLH7HDn3BPVGbqabDQZxQfeEsVK5A/3hiDb6IOhiQKD/yE+wZcuKklv2eWLSd6eWgTOBJVI6pill0rgaozRZDSMGL6cSlatFovd+qijPciHkqQS/NPIx9PaFAoF3GlOb9mPJ/MklbQjcCaoRFLHTEAld36+06nr/PrrrwHi3Nxc/dO+GfOstkGLRAB+0f7SeP+vT5RTFFX0Q1GnrhPJslnsVsOIobu3x+lxCbTgUx0ywNe/tQ1aX8BfcqUE1TrDMG2/tZnnzSNjo9W3qiFjIAdnnp9juWD/YL++Tw9CLRRFgaR2a9tDhmG0DdoZ82xXT7dCoYApib5Pr+/T4yWiKKrxfuP1ioqr166NT7weMgx/+49vUeqqnJyunu6FpcUVy6rT4+Kj4dt3bsNbmbKj6MSR3QicCSqR1DHDqeR3/RM+Gn7Q9AAq+3pFhT8YsL23G0YMgRA78eYvRSVQUSooKIBgoy9H0Z1j+Iy56s8/wWfGKYoyjLz4+O9Pb6enkmxMeefz8s7nCSRUVDk56xvrTo/r+UD/2KuX/mCgQ9cJ6c7OmZ1uVyQWtditSyvLSBip4qeKFcuqPxgYezUWCLEurxsEFkD6ZMWy6gv4keQC5M1itwZC7KbLMTg8tOlybDg2gSvVarXT7bLYLPo+vcW2P2jCP05+4bsLicqeZJFJsExH4ExQiWQlISrp6u7iwjziEYqi3k5PrVotoEtws/pmIMRC5yy5UuIL+JtamimKUqlUG47Np8+eShoXeBpGXux+/jg+8Vrgn9Kj/M3jRBMcTakmyIc2HJtqtbq7t0dAHLh6C2QGlmngslJTSzMbYmGGpevSbQV8QKMFBQVbAR/Rl02p+rI+8FmnkjeTJpYL4jwCi4hDhmFNqUZTqrlx84bH54VuQ9P0u+WlGfMsRVE1tTW+gL+yqjLJJqJSqZIMmSiYKifHardFYlGj6U3FTxVo2gXh5akExi8qlUowYpKkEqPJCDZx/afu3h6315Ofn09RFFAJ0UxJVFNn0/+sU8nL8VdcmMc3RIFKovFtLsKjf4862qF9dOg6PT5vQUGBYcSQkrxzWpqXQqFoam6y2K3bOzGPz4vLMspQiT8YSKRvkjyVwATHPG/eW6Mxz5u3Ar7iy8VpKRQxkh0InHUq0TZon/Q9CW9HQBsJZi6bLgeSkhZUc9EPRV7/VnNLy9r6+57HPYK3Mo9fPirBjX9fVORj/eMT48jzqKlEqVTOLy5Mm2fmFxf0T/tyc3NR0vKOw8k7yNskb08hAoRK9jdoRl+OslwQqSUZRl74WD/85qtycq5XVOA1t7C0aF9fc3s9aKMEfyvpTstaiVqtbmppBpmS4svFPtaP892jjnavfwuE9XH9erQkJJmx5EclJVdK2BD7cvxV+dXyPfklJM0vaRb3fDs99emPz3ML87gncWcfAoRKtBRF0TQ98cbIhtgbN2+A+vzsnDm2G+ej4dhu3DxvRpvEFEU1tTTHP+68W14SrFbINI5Ud3AkTVXfqvb4vJCr+Mcd25oNPugDgfd2fGzv7aDh5vVvXdFoQOw6thsHpTh8wRUmceAveGuxWyXXSiiK+q39kde/xUV4PhqOf9wZn3idDAK/65/sfv6Y/O6VZNmJ5+lH4OxSyYF1k2hkrlar3V4PLGQeaAQCpHquRMasSqUquVKSSA4uVQ03mYQEr2B/Gnk+/K0Nbe4gT0mHrksXjW+jEyiSYYhnFiBAqCS1Srx06dLSyvLa+vtEnTk1c5kTenxi3Gq3wRIJwzBvJk0enxcfFiUqyox59vjXpxNlhvgfHQKESlLAtuiHoq2Ab35xIflFxxSsn+6garV6aWUZpkvxjzubzs3qW9UHZvncV+fGJ8YbGu8dGJIEyHQECJVkeg2S/BMETgUChEpORTWQTBAEMh0BQiWZXoMk/wSBU4EAoZJTUQ0kEwSBTEfgTFCJpIqaoOZAAE3gedSP6RIfoihKqVTOLczPLczj59MOl/80arglg/zhMonHOp1lx3N4FtxngkokVdQEtYsfzRK8OrrHQ1AJwzACMRTIXhq70yE03BJBlAzy4ripfrHwdJZdXK7s9jkTVCKpoiao1xOhEkEeknk8hnweQsMtUc6TQV4QF7+OLHh1RI9IDo6iqDSW/Yhye2rNngkqkVRR27+5l5Oj79ODVJrVbkMHximKklRRgzP1Yh0zqF0QGZtfXOgf7EfiY4fWMbtx88bk1KS+T49U2srKy/R9erfXY1uz6fv0uBh1TW0NSKLhnpArhmE6OjvM8+aunm5kqvBiYUtrS25ubkdnx9TMNK4UR1FUIg03MJjSkCER8pJycKDtZjQZ+Wh4+IVB36dHGk6gFAelu3HzxtTM9MDgANxmSFT2svKyB00P8s7n6Z/2TU5NwpUIvKYk5eDkyw7Ryf+SCJwJKpFUUWMYZsWyGgixhhGD1W7b+bSLqCSRiloiHTOKovbv4Htcbq/HMGJYsay6vG5QBjmcjpk/GFhbfz84PORj/UjHrP5u/YpllQvzvoB/xbL6dnoK3anTdelWLKsfHBsCLdi883mbLofT4xoyDDvdLqfbBedTtQ1aLsJvBXyT02/HJ15H49vtnX+pKFAUJanhBq2nvbN959Nu8qdXJZFPBCNou31wbMR247Y124pltaW1BdK98N2FuYV5lgsaRl6wXNDhdjrdLih+orJ39/aEtyO+gH/s1cvZOTMX4f91e18+Ul4OTqbskv2HeCIEzgSVoNLijkcd7VyYhx8rmqZta/9/VJJIRU1Gx+zt9JTD7UQ/+/ja55fomN2+czsU5nC1EZkJjnhqAAqScF1YrVZ7/VtwmRioBFRdlUrl+sY6olEcIrEbqGR5dRkvoDiYvI8MjHAF0R8MiMWx887nOd0uH+u/XlGhbdB+cGwgJpWM1d3bEwpzFT/t3+rGtZqIHJx87Rz67dmlEqPJiOs5oy4qo6KWSMcMJNdx9RC8PoBKDqdjVvRDEcsFcb0ylE88CXCLqWRhaRG/EIweBSFlbIpTOffVuWQuBIsjIp9EMCYqBfhDvYy+HIVpZuHFQjwbghJRFIULuEBcgJHIwaGKSK/jTFOJbc2GmiPqTtDsEqmoSeqYQZTf9U8k6+ZLFEPwPgDGUT7FaYm7E+zFoJBInUQQUsYmiptehySMkIQgbyhdMRToVaJRCfqKCB6XyMHhuKXRfXapZHxiHImVUhSFutOecrqMihqCHtcxgyhvJk3oLe74Eiopv1oeCnNIDhLPJ54EuMWd8M2kCWniwyRuYWlR3PFQ2cU2xT5fPirBbeIwJioF+ON0gFtIFCvRqOTQcnDiRIkPjsDZpZJfmx5EYtHmlv2FvRs3b7BcEK0XJFJRk9Ex6x/sD/Khm9U3YWPoXmMjGu8cgkqcnr/WR/ue9fmDAfxTOAtLi+b5OfrPP1BUQ9UpppJfmx5wER60Jm/V1ITCHCyvCkImTyVpWSuRgRH0twMhFpDEt2nTRSWHloNDOBOHJAJnl0pomh6feB3/uMNHwy6ve8OxiaiEYRhJFTUZHTOGYUxvJ3c+7Ubj27ufP1rtNlgU1DZoD6Fj5vS4uDAfiUW3d2KCb0Tc+flOkA9FYtFILGpemAM2MZqMuCQaF+Fh2ZKm6ZGxUZBWi+3GR8ZGgeC+kEqS38GRbHMyMMKx3RnzLIjFcWG+9l+1FEVpSjVchIcyomkLGE9U9kSjkkPLwUmWhXgiBM4ulQAEKpXq+6IiNIJAuMDaXvHlYrHEkYyOWSLhNdzsgW4YIygUiqIfisSpg3zk90VF+P6FvM205AolkdK5EhRL7JCBEcS6iy8XC4ZdYiOH8Dm0HNwh0jpTUc46lZzCyk5+unEKM3/6s3RoObjTX7STzSGhkpPFXyJ1i80yMra/5Un+jgKBw8nBHUVOsswmoZIsq1BSHILAySBAqORkcCepEgSyDAFCJVlWoaQ4BIGTQSDzqORZ//Nly0pLa4vktsvJoEhSJQiceQQyj0ryzud1dXexIRa/zHrm65EAQBA4YQQyj0oAMIvdin8x94RRJMkTBM48AhlJJXATF78ve+brkQBAEDhhBDKSSvLz8zddDvLNtxNuOyR5ggCGQEZSifwFOax0xEkQIAgcEwIZSSVKpfLd8pLT7Xo+0F9WXnZMUJFkCAIEgcQIZCSV0DT9YnSE5YIWu7X+bn3i0pE3BAGCwDEhkJFUIi8OekzIkWQIAgQBDIGMpJKCggKn24WLJ6MSXfjuAki9Ix/iIAgQBI4BgYykkkSCWpVVlXw0HIlFb9XcOgbsSBIEAYIAQiAjqQQkTp8P9KNigAMoho+GK6sqBa/II0GAIHCkCGQklfz4449ur+fps6cCaODo2rvlJXI9R4AMeSQIHDUCmUcl8H220ZejYrHCyqqqIB/6tenBUaNG7BMECAICBDKPSgQFwB9/rq8zmozoE3n4K+ImCBAEjhSBrKKSI0WKGCcIEARkECBUIgMOeUUQIAgkiwChkmSRIuEIAgQBGQQIlciAQ14RBAgCySKQeVRSeLGw93Hv9YqK1raHjfcbky1omsKlMfU0mpIvXF19nde/VVdfJx/swLfHluEDc0ICnEIEMo9KtA1aLsK3tj10ed3o05zHhmwaUz+cKYZh/v7NNymVN11UcrgMp5RVEjhzEcg8Kqmrr+PC/IPmpk2X4/ipJI2pH87U8X+7T6lUQvs+XIYzt2+QnKeEQOZRiaZUsxXw1dTWWOzW8YlxKK1SqWxte4i0S8rKy1rbHqI+kJub293bM7+4MDg8dPXaNQQQTdPVt6qnZqaHDMPf/uNb5F9TW6Pv09fU1qhycvR9+hnz7K2aGngrmTqKqPrzDz3KO2RMXb12zTBiMM+bdV263NxcsFNWXqbv07u9HtuaTd+n13Xp0AmaxvuN+j59WXnZt//4dsgw/HZ66opGs//l3ZwcXZdO36eH4qD8FF4sbGltyc3N7ejsmJqZ1jZo8fPBN27emHhjXLGsWuxWLswvLr+DtzIZRpaJ48wikHlUolAovi8qUigUF767oFKpoOYEF/zwr9gXXy7eCvhs7+1Pnz01vZ30BwP/un0bPuI9PvGaj4bHXr1cXH7nDwauV1SANV2Xzul2We225dVll9fNhXmkIyuZOsQqvlwcCLHJ3wBKZOpRR3skFp2cfvv02VOL3bq+sf6///u/FEXV361fsaxyYd4X8K9YVt9OT6EvkA8Zhn0B//Ts9KbL4XA7WS4I16YvfHdhds4MsfARHExVtgK+yem34xOvo/FtJN//pO8JywWHXxiGXxh8AX9nlw59AzxRhs9s5yEFxxHIPCrBc4/cMlSibdAGQmz51XIUGByVVZWBEAtdjqZp8/zcwtIiCtPd2xPbjb96PU7TtMVuRVSCAogdQCWsVFriwDI+RpPRtmbDhwl44EQTHKPJGIlFn/Q9yTuf98GxIVBgEMQCKoFFa6VSub6xDkQDl5jQPcnnA/1OjyvVpRk8t8R9dhDIfiq5dOmSx+cN8iHDiKHkSgmq2u7enq2Ar/pWtaZUoynVDAwN4t2mu7eHDbEQHh/+oOiSjr/9z9/+9j9/k3yVvGdTS/P2TszhdnboOtGwC0UXkALyN5qMDrdTlZND03ThxULBBSVBLG2D1h8MaEr3J0FwzRqoBBj5d/0T8H8+0O/yutHYBzzJ/wQBSQSyn0ooimIYpru3Z31jPbYbt6+vqdVqiqK6e3t2Pu3y0TAX4eGffX0N/QLjUyRJ4I7U89KlSy/HX20FfLHd+MjYKD5CEZACyobRZLTYrehR4BDESkQlFEXtT3BCbGvbw9a2hzDTEZgijwQBSQTOBJWgkt+svhnejui6dBRFPepo97H+oh+K0FvccTgqScuoBM/G4PBQKMzhgykBKaDA6aKSuvq6P7fG3kzNTFffqsZZDKUl6SD6dZKwnB3PLKESmqZta7Y3kyaKonJzc21rNjQyv6LRNNxrgC5RU1vDR8OPOtopiiq+XOwPBtBvfvnVcrRXAmMWZCHJ1pCutZL6X+7CNhNN00OGYZYL4ny3sLRonp/bW9yhaRotiFIUlS4qGZ8Y3wr46urrNKWa4svFeBIyOBD9OhlwzsirLKES6Pyx3Xh4O8JyQdPbyQ3HJkzyWx+2siEWXsU/7szOmdE6Qv3dejbERuPb0fg2G2LvNf51dtZoMn764zP8S2bBFdpKqjs4ki2MYZjxidex3XgkFo3GtyOxKIyhUOA7P98J8qFILBqJRc0Lc9DVLXYr5Da2G8cXXDWlGi7Co7J8+uMzrInITHDUavXCu4VQmOMifDS+HQixaGML5UHsIPp1YkzOmk/2UAmsiRT9sL9PLK7FvPN5iX5j0zgyT+lciTiTyIem6e+LihLpXcPbo1gNRdu9kBOGYT44NvBdZJRDgYPo1wkAOYOPWUUlZ7D+0lvkkislvoC/pbUF5oO3am6xIVYsfClOlOjXiTE5az6ESs5ajR9Q3o7OjkCI3f388eO/P3FhXlL4UmyC6NeJMTlrPoRKzlqNk/ISBI4EAUIlRwIrMUoQOGsIECo5azVOyksQOBIECJUcCazEKEHgrCGQeVSSlVpejfcba2r/0jGgKKrxfmNr28PrFRW9j3sLLxZ+SaMsKy/rfdxbVl6m69LhSXyJTXFcpVI5tzA/tzCPhB3EYZL0SWPZk0yRBEsLAplHJVmp5SU4Dm+xW+E6Mhfh0aW7w9V3d28PF+F/0f7CRf6/VMKBpvLz8yWP5ySKmEYqSWPZE+WW+B8FAplHJVmp5SWgklWrxWK3PupoD/KhL6QSXZeOC/M/19exXDDJk7uCs7BH0ewENhUKBbrsk8ayC1Ihj0eKQOZRiaSWl1KpbG5pKb5crG3QTs1MP+poRz+qCoWiprZm766Ned7c2vYQ+cPp2Lbf2szz5pGxUcHVNbGO2RWNphMTLoNaqamtQVLVV69dG594PfHGeOPmDVRnMB1rbXvIMIy2QTtjnu3q6YY8IIk2bYPWarfhh0qNJuPC0qK2QesL+PG7fGA2pSGDtkHr2fJUVlW6vG78DD7DMOKygxid0WTko+HhFwZcew0E2UC67cbNG1Mz0wODA19//TVFUSA6JxB2oyiqrLzsQdODvPN5+qd9k1OTOCyqnJyunu6FpcUVy6rT4+Kj4dt39vWo4DKRTNkhDPn/FCKQeVSCDnfjMiJwB8Tr31q2rAy/MHARfuHdAvzQFV8uXrGsTrwxjr16yUX45dVlmM+rcnL2BMqcHtfzgf6xVy/9wUCHrhNqSFLHrKa2xh8MVFZVQaeCdYdVqwUooLu3B6TPTG8nQYIITFX8VLFiWfUHA2OvxgIh1uV1gxQAwzArltVAiDWMGKx2286nXZxK8s7n5Z3PYxim8GIh+rkGg+2d7Tufdm3v7UmuSoARhUKBi5gkKrtKpXptnPjg2Ijtxm1rthXLaktrC6R74bsLcwvzLBeEbzY73E6n2wWH93VduhXL6gfHhmAM1d3bE96O+AL+sVcvZ+fMXIQH/Tq1Wu10uyw2i75Pb7Htj78uXboEqVAUJVN2FIY4TiECmUclkiAClRhNRuh4HbpOlgsiqVcUpamlmQ2xMGXQlGoCIbah8R56ixySOmYFBQVOj6uh8V5dfR0fDS+vLu/duNl0OfYklCD1weEhsPD02dNAiEXXeTWlmiAf2nBsqtXq7t4eoJJHHe1cmIcfarjWjFMJyonYAVSCCFEcIBkfmbJTFJVogpN3Ps/pdvlY//WKCm2D9oNjA78HJI7V3dsTCnMVP+3LXBYUFGwFfDDD0nXptgK+goIC5I8Pl5LJPwlzChHIKipBawE1tTVBPoTuyIIesr5PbzQZEZWocnKsdlskFjWa3lT8VIH/+EvqmIFwYXdvz+/6J5sux/sP61evXXO6XXX1dYLkBI9AJTDkUalUcEnPaDLiom2CtRL5hnLuq3N4buUDS76VKbs8lbi87tGXozA3FIyYJKkECTUA20IFdff2uL2e/Px8RCWo4iRzSzwzAoHspBJNqcYfDACV3Gts5KPhGfOsgEooilIoFE3NTRa7dXsn5vF5cf1XSR2zN5Mmo8n4ZtI09url+uaHX5seOD2ukislsKmEmAtPnaIowSM0C8HAJyUqSUvDkim7mBQgRZwOxHkQx8Llo/C4MMExz5v31qfM8+atgK/4crHYIPHJLASyk0oaGu+FwhwsZ1js1nfLS/AzLm7uUFvfFxX5WD/6FAZehbiO2e/6J7b3dovN8qDpgdVuG58YX99Y//s335RfLWe5YFNLM0TEU09EJeMT4+iXGVdXxZNO5P7yUQluWVz2RCjhdIBbALc4ViIqUSqV84sL0+aZ+cUF/dM+XHFKbBb3USgUxZeLxXq3eBjiPikEsopKViyrDMPQNI00kymKgs1FkB17+vxZKMzB6EOtVje1NMNmSvHlYh/rN4wYoBoS6Zg1NN7z+rfcXo+mVDNjnt1wbK5aLRRFKZVK23s7pK5QKGbnzBuOTfSRGslRya9NDyKxaHPL/qLmjZs3WC54nGslMmWHHZlAiL1ZfRMGbmgylS4qKblSwobYl+Ovyq+W7+3H4Qsu8t3g6bOnH//96YNjg7CJPFAn8jarqGTDsRnejkTj20E+VH+3/i9euFsPsmN8NLy0sv9dG+i01beqPT5vbDfOR8Pxjzu2NRvIR8vomGlKNaEw53Tvf8/h+UD/7uePiH3Kr5aDtWh8G58raRu0sd046JjhMs40TY9PvI5/3OGjYZfXveHYTIlKkt/BkWxVicoOgZVK5Yx5FpDhwnztv2phbIUE2dAKCITHRec+/fEZHatLNCqhKOq39kde/xYX4QH88YnXiLAkMwyeAOYXll3GPnn1JQhkFZV09/YwDCMWUsMHxgqFAgky7n+/TqUquVKC+wCa8jpmiRBPVZBNpVJ9X1SUTC/CU0zpXAkeUeBOVHYIplKpEunOCeyk+gjbvSjWw9/a0Fo48pR01NXXRWJRtGcvGYZ4nhQC2UYlJ4UjSTd5BMYnxq12GyyRMAzzZtK096EiGBLKG3k+0O/1byUTUt4OeXsUCGQPlex/g6qz4ygwIjbTi4BarV5aWYZ5X/zjzqZzs/pWdTJJDA4P9TzuSSYkCXP8CGQJlRw/cCRFggBBAEeAUAmOBnETBAgCh0SAUMkhgSPRCAIEARwBQiU4GsRNECAIHBKBzKOSdKmoNd5v1Pfp9X361raH4lu2adTyIjpmh2ybJFpGIZB5VJIuFbUhw/C+WIbbJThwBdWXRi0vomOWUT2CZPaQCGQelaRXRQ0/kYlDmEYtL6JjhgNL3NmKQOZRSSIVtda2h0igpKy8DE1bZHTM4KPlkqMSomOWSMMtW3sCKdcXIpB5VCKjooZkL/CxRiIdMwAOD4lDKaPlRXTMcKCImyAACGQelUjWnODSqoAgJHXMwI4gpKRxgSfRMRMAQh4JAhRFnSEqEeiYQfUfgkooivpyxRCiY0a6X5YhcFaoBImqCervcFQiMHK4R6JjdjjcSKzTiQChkh7JZVf52vryUQluP4N0zPBsEzdBAEcgS6gERNvfTJooisrNzbWt2XCCkNQxAxRwyWIcFxl3WtZKMlTHTAYW8uqMI5AlVALburHdeHg7wnJB09vJDccmKP0l0jGDiler1Q63Mxrfjsa3h/7z9Qn5NpHqDo6ktQzVMZMsC/EkCGTPsivUpaSE2oHVDIJpySuMUhR1ZnXMDgSTBDizCGTPqOTMVuEhCn5oHbNDpEWinBEECJWckYr+r2IeWsfsv6yQB4IAhgChEgwM4iQIEAQOiwChksMiR+IRBAgCGAKESjAwiJMgQBA4LAInTCXP+p8vW1ZaWltS/RbMYctL4hEECAJHgsAJU0ne+byu7i42xLZ3th9J+YhRggBB4FgQOGEqgTJa7Fb0xcxjKTVJhCBAEEgzAidPJX//5hunx4WkRtJcPmKOIEAQOBYETp5K8vPzN12OhsZ7x1JekghBgCBwJAicPJXI3LU7khITowQBgsARIHDyVKJUKt8tLzndrucD/Uic9QhKSkwSBAgCR4jAyVMJTdMvRkdYLmixW+vv1h9hWYlpggBB4MgQOHkq0ZRqAiGWrJUcWRUTwwSB40Dg5KmkoKDA6XZpG7Ti4uadz/u+qIicXhMjQ3wIAqcNgZOnEoFYPAJIrVZ7/Vs7n3Zb2x4iT+IgCBAETicCJ08lFEVZ7NbnA/0CgJRK5arVEtuN/9r0QPCKPBIECAKnDYGTp5Iff/zR7fU8ffZUDM2q1eJwO1U5OeJXxIcgQBA4VQicMJUYRl6wXHD05SjDMAJcCgoKtgI+SYoRhCSPBAGCwIkjcMJUIlP+q9euTU5NXrp0SSYMeUUQIAicEgROL5WcEoBINggCBIFkECBUkgxKJAxBgCBwAAKESg4AiLwmCBAEkkGAUEkyKGVtGE2pZnJqaer4NAAAIABJREFU0vR28u/ffJO1hSQFOxYETphKCi8W9j7uvV5R0dr2sPF+Y9qLrFQqW9se6vv0+j69pP3yq+VOj6uruyvtSeMG6+rrvP6tuvo63PMQ7vTCdenSpa2Ab3p2+scffyRHig9RHSQKjsAJU4m2QctF+Na2hy6v22gy4jlLi1ulUr02TqxYVn0Bv8VuFdtMI5XQNJ2fny/ZJ9NFJemFS1Oq8fi8lVVVYliID0EgVQROmErq6uu4MP+guWnT5TgKKkFwGE1GSSpBAb7c0d3bg3/z/MsNii2kFy6Z20/ipIkPQUAegROmEk2pZivgq6mtsdit4xPjKK8qlaq17eHUzPTEG+ONmzeQf+HFwpbWlm//8a2+Tz85NYleKZXK5paW4svF2gbt1Mz0o452hUKBYlEUJaYS+bmPQqFobXtonjcbRgyaUg2Yomm64qeKweGh+cWFrp5udAxXlZOj69KZ5+dYLtg/2K/v0yPhFXgFM6ya2ho8SwqFovF+44x5tn+w/9t/fIteNd5vvF5RcfXatfGJ10OGYfxVIrggrurPP2TnQAfcftJ16Q4MSQIQBA5E4ISpRKFQfF9UpFAoLnx3QaVSoey2Pmy12K1DhuGFpcXtnVjP4x54BSN8r39rfGJ8ds4c242DVD30Cq9/a9myMvzCwEX4hXcL+FxDTCUycx+GYVYsqywXHBkbNc/P+Vg/cJYqJ2d+cWFqZnrIMOxj/U63Cz5afuG7C7NzZqfbFYlFLXbr0soyYg14tWJZ5cI8PuwCwadAiDWMGKx2Gxtir1dUQBktdmsgxG66HIPDQ5sux4ZjE3FWIrgoiiq+XBwIsXw0XFlViWCUd9A0bVuzEVVdeZTI2yQROGEqSSaXM+ZZNDcBKoEFVJqm3y0vWexWmqaBSowmI9BHh66T5YJoaCA5KkFJi1nm6bOnLBcsuVICYZRKJQqMHJVVVWyIxbUR5Cc4FrsVpxJtg5blgjerb1IUpVQqbe/tC0uLYNxit1rsVrhJ0NTSzIZYNCxCqYsdQCVsiC2/Wi5+K/CBEdmMeTbIhxDrCcKQR4JASgicXiq5eu1a7++P9X1625oNpxJ/MIC6lmHEAMsTAqWCmtqaIB/C+7mYLxBM4lerVsuq1YIC4A6GYVpaW/R9+uEXhlCYw5NIiUpQzsE4/oiTjrZBi5cXz4nY/bf/+dvf/udvYn+xD4zIXF630+NKhnrEFogPQUCAwGmkEpqmJ94Yg3xo+IVBnkpQ7xVQiVh6WswXCAjxK4vd+mbShAIgx/WKCjbErlhWv5xKjCYjvkaLCgKSC2j8khKVoHwm6VAqlesb62SCkyRcJJg8AqeRSjSlmiAf6tB1Qtbxri7oWm8mTZsuh0qlElBJQ+O9UJjDh+64EQEi4lcLS4u2NRu+1IJygkQPxGyF04EgCQFBUBT1u/7JVsBXUFAAIVFBBCEF5RWbxX2SH5VALPIFIhw94v5CBE4jlZRcKQnyIVhqVeXk7C0coI6tbdBGYtEnfU8oilKr1W6vZ/TlKEVRQCUrllWGYWiaNpqMqM8DQEaTERkRQCamkuaWlvB25EFzE0VRCoXi/oNfYeVifGIcDSUeNDfx0TAuSfuoo93r3/q+qAiWPwSp4NMWiqIqqyqDfAgKUlxcvBXwGUZeQBQ8ZPJUktJaCSS0/wUi5yY+RxPkmTwSBJJH4DRSCU3TI2Ojsd04Hw1zYX5y+m2QD0Gn1TZoQ2HO6XaFtyOx3bh9fU2tViMq2XBshrcj0fh2kA8JxOuvV1T4g4FILBqJRUHhEdjn0x+f0T+0IkPT9MDgQGw3vr0T2/m06/K6YXWm/Gq5x+eNxrf5aPj9h/W19fcWmwXtOuedz7O9t8d24+HtiNe/dUWzv4WsKdVwER4l8emPz2jyouvSbe/EIrFobDdunp9Dii1fQiUp7eCgreXkmwsJSRBIhMBppBLIq0qlKr5cDB2VYRhwoF/pvPN5F767gEqFJjgMwxT9sL+7jF4hh0KhKL5cjG85o1eSDsnwNE1/X1QEe8A0TZ/76pwgbkrS1pJJCAwm/5jquZKSKyX+YOB3/RNJuJJPl4QkCFAUdXqpRLJ6EJUI3iIqEfiTR3kEHjQ3ub0e+/oauc4nDxR5eyACmUclbq+n+HKxoGB55/McbmdHZ4fAnzwSBAgCx4NAhlHJ8YBCUiEIEARSRYBQSaqIkfAEAYKABAKESiRAIV4EAYJAqggQKkkVMRKeIEAQkEAg86gkvUpiEpCk26usvKz3cW9ZeZmuS4cfwE13OsQeQeAkEcg8KkmvktghsGcYJqWt0+7eHi7C/6L9hYvwX3jhJTc3d3bOHApzm87N2n/VHiLzJApB4IgQyDwqSa+S2CFgxU+jJhNd16XjwvzP9XUsF/wSKlEqlcury+sb61X//GffnzIISPkpmWyQMASBI0Ug86gEHfcWCK9RFKXKyenq6Z5fXMB1ycrKy1rbHoLmCOh0IB0Tmqarb1WDlBEuVpZIx6ysvEzfp3d7PbY1m75Pr+vSIVEitVr9p5Daf6muQc1pG7SeLU9lVaXL6xZLluXn5yd52LSmtoYNsbfv3KYoqu9ZX/zjDjqDf6RNhBgnCCSDQOZRSSIlMbVa7fS43F6PYcSwYll1ed1wsh6/sIsfiqVpenziNR8Nj716ubj8zh8MHKhjVn+3HvTQfAH/imX17fQUnKDfOzX8fKB/2bIyODxktdsisWj9L3cR+gzDFF4sVCgUhRcL0UUbeNve2b7zadf23i6proQsgKO7t8ft9eTn56vV6lWrZX5xYX1jPZmIAjvkkSBwFAhkHpUkQuHt9BR+Gxj1sURUUllVGfiPDBpN0+b5uSR1zOQnOCACkuR4AahkeXUZ5TZR6SiKQveSnz57OjI2ipdLJhZ5RRA4HgSyhEpAegMXmkbw4V0OH5V09/ZsBXzVt6o1pRpNqWZgaNDpccF6Kk4W4ls/+FuUCsyVQA7a7fUkSSUURZ376pxYGAWZxR2glnT12jWL3VpypQQvFx6MuAkCJ4JAllAJcMTv+n0dE8Ef3uUEVLLzaXdfxyDCwz90qw0ni2SoBGSltwK+5wP7cvMpUYkgtzKPv+ufuLzu4ReGkbF9iZbxiXHEfTKxyCuCwPEgkCVUsne/ftPlkFRRTEQljzrafay/6Id9pSLBX6pUAioqsCAqkEETWBY/Jj8qaWppjsSiTo8L9KsXlhbRjAzMXvjuAi68IE6L+BAEjg6BLKESiqL6B/uDfAg03FU5OfcaG2Hi0NB4L/AfHfZHHe3bOzHYkS2+XOwPBvY+TwHByq+W5+bmAtDyVLKwtGien9tbXtmTvIfNF9ifBjmywouFbq9HktTEtZjSWolarfb6t95OT1EUVfFTBcsF4cMdYLayqpKPhiOx6K2aW+KEiA9B4KgRyB4qYRjG9HZy59NuNL69+/mj1W6D7ZW883mbLgdosq1aLRuOTXS4o/5uPRtio/HtaHybDbH3Gv/6aLE8ldz5+U6QD4Egm3lhTqFQ7KlAmufnYrtxLsL7g4Fp8wwbYq9eu3Zg5aW0g0NR1H6GuSAoyI1PvMYXWWDulpKK2oHZIwEIAskjkD1UAmVmGKb4crFgz5WiqAvfXUAbtwJ0DjEvwLXUkDVcPy35aUvy50ogIUharAUHC8/vlpdwfkF5Iw6CwFEjkG1UctR4nVr7lVVVQT70a9ODU5tDkrHsRoBQSZbU78/1dUaTEZ2+zZJSkWJkDgKESjKnrkhOCQKnGAFCJae4ckjWCAKZgwChksypK5JTgsApRoBQySmuHJI1gkDmIJB5VCKvoqZQKLQNWn2fvru3B06FQl0oFIpbNTXiTWLJmmq835iq3BnIF0BEXHxA0j7xJAhkHwKZRyUyKmpwFyYQYscnxt8tL8FHf6HOOnSdu58/osNp8hWJH1GTD4newgkxo8kIl+4SnWFB4eUd8KUrlguOvRojmzLyWJG3pwSBzKMSGRW1yqoq9j+6AQJ8GYZpaLyXZLc8BJXACTGjyWgYMaBPlAvykORj/S93uTCv79NX/fOfG47N6dlpcuosSehIsBNEIPOoREZFDQYscBcmSUw1pRrDiME8b25te4jUzIBKrl67Nj7xesgwjATWaJqu+KlicHhofnGhq6dbQEwWu9UwYuju7RFf2KVpOj8/P0lGWFhahEOrarXa5XUH+RCSfUuyUCQYQeD4Ecg8KpFUUfv7N9/Y19ciseju54+RWJSL8OMTrwHN4svFbq8HZAQMIy9wiO81Noa3IyuWVRhKwE05uNrrDwY2HJuDw0ObLseGYxNYQ5WTM7+4AAKOPtbvdLvwicyF7y7AB8DF13MNIy8+/vsTso/nQeDG1RL6nvVNz06zIbappVkQjDwSBE4bAplHJZIIws2UTl0nHw136jr3Ri6okysUiuLLxZpSzfsP67giEVy0HX25r/1BURS65gtUYrFbYY1WrFcC4WUmUxAA/98w8mL380fEbvgrgbvkSkkozHX39qjVaovdeuPmDZfXneQSj8AUeSQIHCcCWUIlAJn8BEewAlJXXxcKc3X1dWK48ZACKmEYpqW1Rd+nH35hCIW55CdT4gt44nQpitKUauAbF6C6iGs1SYYnngSBU4LA2aUSbYMW6ZgIKiMRlVyvqGBD7Ipl9RBUIkgi0WN+fr7b6xkYHADVxZIrJUE+JNapTxSd+BMETgqBs0slNbU1oTDX0HhPDH0iKjGajEiJWlOq8QcDaR+VgMo0ywVBdXH/gxVcED/kAvO1JMc44qIRH4LAESFwdqmEYZi19fcWuxWWVK9eu1b1z38CyomoBGm+UxT1oLmJj4YlmUhcVcmvlVAU9fTZUz4a/r/X/y9N00aTES36gtmnz55+/PenD44NwiZinInPCSKQ/VQCqw+f/viM/qHF1ysajcPt3Pm0u70Ti+3Gh18YoCYSUUn51XKPzxuNb/PR8PsP6/tMZLOgLWSZWkx+B4eiKNBk296JRWJR/Os8YF/boI3txpP8dI5MlsgrgkB6EcgqKjkcNLj62YEWcP00mqbPfXXuwCiwPZT8uRIwqFKpvi8qEh9Fqauvi8SiHbrOZNIlYQgCx4YAoZJjgzo9CT0f6Pf6t9RqdXrMESsEgTQhQKgkTUAel5nB4aGexz3HlRpJhyCQLAKESpJFioQjCBAEZBAgVCIDDnlFECAIJIsAoZJkkSLhCAIEARkECJXIgENeEQQIAskikHlUIq+ilmy5kwg39mrs/Yd1dC0wiRjSQcrKy3of95aVl+m6dPi5VenQxJcgkJkIZB6VyKiopbcK0kUl3b09XIT/RfsL3NP7kkzm5ubOzplDYW7TuVn7r9ovMUXiEgTSi0DmUYmMilp6oUmXNV2XjgvzP9fXsVzwS+QClErl8ury+sZ61T//2ffsKcsFb9y8ka5MEjsEgS9EIPOoRFJFTalUNre0FF8urr5VPTk1qe/T4xJnDMN0dHaY581I+kypVD5obqqsqhwZG+3s0hVfLp54Y2y83winS8vKy/R9en2fvvdxb+HFQgRx4cXCltaW3Nzcjs6OqZlpbYMWnUZVq9W6Lp153mwYMWhKNSgKRVHaBq1ny1NZVenyusV3fJP/ZvD+1b4Qe/vObYqi+p71xT/uoBsAeHLETRA4EQQyj0okVdRA12Mr4LOt2QaHh3ysf+HdAvTzvPN5my6H0+MaMgw73S6n26VWq/PO5+1poG0FfEaTkYvwTrfrtXEiEGIrqyopiqq/W79iWbWt2cLbEfzuL8yttgK+yem34xOvo/Ht9s52qLbnA/3LlpXB4SGr3RaJRet/uYuqk2GYwouFCoWi8GKhQPK+vbN959Nukhdqunt73F5Pfn6+Wq1etVrmFxfWN9aVSiVKiDgIAieIQOZRiSRYSPAd6OP5QD/Sau553LMV8H1fVERRFCinGUYMSPcQaQvl5+dvOjdx4hDLCACVNN5vpCgK1ADE44JE/pLZBipZXl1OhhHQvWRQReru7UFllDROPAkCx4lAVlEJWonAu9nC0qLFbkWYwiNiENzxwbFxIJX4gwE0f8EvENM0XX2rGqZFbq9HTDEoAwLHua/OoVmS4JXgET6LcfXaNVBFwssoCEkeCQLHj0D2U4nFbsWpxGgyWuxWnEFAPDXvfN6hqQS+v7MV8D0f6Nf36VOikuSr/Hf9E5fXPfzCAKpI4xPjYmn75K2RkASB9CKQ/VTyZtKE1hRomrat2RaWFtNLJdoGbSjMwYIoqEwfxaikqaU5Eos6PS746uDC0uLC0iLeGi58d0Esdo8HIG6CwNEhkP1U8mvTAy7C32vcX+C4VbMvwtje2Z5eKoH9aZgcFV4sdHs9byZNydRZSmslsNADX8Co+KmC5YJo0ZeiqMqqSj4ajsSit2puJZM0CUMQSC8C2U8lNE2PjI3GduPh7UhsNz4yNkrTtDyVdPf2IMm1T398ju3GgSYE6vNorQR0z2K7cS7C+4OBafMMG2KvXrt2YFWltIMDW0ssF4SCjE+8xhdZoER8NAybUAcmTQIQBNKLQJZQyYGgMAxTfLlYsBd7YKyUAuBqbMkvpiZ/rgQyAzJuYmFX+NIofNYvpWyTwASBtCBwVqgkLWCdZiOVVVVBPvRr04PTnEmStyxGgFBJllTuz/V1RpMRP+ObJQUjxcgQBAiVZEhFkWwSBE43AoRKTnf9kNwRBDIEAUIlGVJRJJsEgdONAKGS010/JHcEgQxBIPOoRFJFTalUtrY9LCsvOynYIQON9xtramt0XbovXP5svN/Y2vbwekWFQOUgvaUrv1ru9Li6uru+0Gx6y/6FmSHRTwqBzKMSSRU1dOTspHCEDBhNRrh094UyjnBvCOTX0O1B+aLRNJ3qBwDTRSXpLbt8McnbU4tA5lGJpIraiVMJnBAzmoyGEcOX3/1ftVosduujjvYgH0qSSo7/orBCoYDjtukt+6ntKiRj8ghkHpVIqqgBlfQ87tE2aKdmph91tKOvgisUipramr3z8uZ5c2vbQ+QvI4lGUZRCoWhteyhWRVMoFI33G2fMs/2D/d/+41scXIvdahgxdPf2iC/spjpkMJqMC0uL2gatL+CHy3uQEMMwbb+1mefNI2Oj1beqoSercnL+FHCbY7lg/+D+1WQ00YPJYGvbQ4ZhtA3aGfNsV0+3QqGAKQlIIoD8CipI4/3G6xUVV69dG594PWQYxsuoysnp6uleWFpcsaw6PS4+GsZvMCYqO7JMHNmNQOZRiYyKmte/tWxZGX5h4CI80hMqvly8YlmdeGMce/US95eRRAPRAJYL/klAcz7WDyqqSqXy3fJSIMQaRgxWu40NsdcrKlD7uPDdBdWff+LruYaRFx///Qlu4qHwMo6883l55/NAfg1dtFHl5KxvrDs9rucD/WOvXvqDAfgI+YXvLszOmZ1uVyQWtditSyvLSNe+4qeKFcuqPxgYezUWCLEurxv0FlQq1WvjxIpl1Rfw4woMcK05EGI3XY7B4aFNl2PDsQnrPmq12ul2WWwWfZ/eYtsfNF26dAkVQabsKAxxZDcCmUclkvWBpuvQ8Tp0nVyEr6yqEgRuamlmQyxMGWQk0Z7+KcKMhgNI4kzboGW54M3qm6CiZntvF1zzFySHHg0jL3Y/fxyfeI18DuHQlGoCIbah8Z5k3EQTHE2pJsiHNhybarW6u7dHQByg3oIbhGUauKyEw6Xr0m0FfAUFBRRFFRQUbAV8Yp1a3A5xnzUEsopKkIpa+dVylgs2tTRDdYKws75PbzQZcSpJJIm2arWsWi3ipiBYBxE8isPjPuILePjbZNyqnBwQjjWa3lT8VIFGKxBXnkpg/KJSqQQjJkkqQWIr+E1opCyLqAShnUzmSZisRyA7qURTqkEfnbnX2MhHwzPm2eSpxGK3SgqOCHZnEvXeo2s0CoWiqbnJYrdu78Q8Pm/51XKUVqLMiBVqURSKopKnEpjgmOfNe2s05nnzVsBXfLkYN0XcZxyB7KSS/e88cMG6+jqY/KOr9/jPLO4WSJ8tLC3a1myCn32Kon7XP0GDfIqi3kyaNl2OJIcbSQZLsjl+X1TkY/3jE+Mo/FFTiVKpnF9cmDbPzC8u6J/25ebmoqTlHccg7yCfAfL2eBDIKirZ++LEngoRTdNGk9Hr31Kr1RRFwcYq/eff0+fPQmEOfsxlqKS5pSW8HXnQ3ARbOfcf/AprB5VVlUE+9KTvCUVRxcXFWwGfYeRFMvWUlrUStVrd1NIMO1DFl4t9rN8wYkCpP+po9/q3QFgfLe5QFJWuUUnJlRI2xL4cf1V+tXxvEy35gzNvp6c+/fF5bmEeZZU4shKBrKKSDcdmeDsSjW8H+VD93XqosPq79UE+FIlF+Wh4aWXZ5XXDWoAMldA0PTA4ENuNb+/Edj7turxudLhD16Xb3olFYtHYbtw8P5ekllKqOziSTa36VrXH543txvloOP5xx7ZmA66EwHs7Prb3dhCL8/q3rmj2P+ulbdDGduOgCIcvuMIqNa4Uh94iaTiIji8n/db+yOvf4iI8ZEAg4yaZZxjK7X7+mPzuVSI7xP+UI5AlVIJQZhim6IcidHgE/BUKRfHlYphiKBSKJPs/HgvZh3EKsob7y7hTPVciY0qlUpVcKUlUBFzJTcbIIV7B/jSK+PC3NrSAjTwlHbouXTS+jU6gSIYhnlmAQLZRSRZUyekswvjEuNVugyUShmHeTJo8Pi8+LEqU7RnzbJKfH0xkgfhnBAKESjKimk4+k2q1emllGaZL8Y87m87N6lvVB2br3FfnxifGE52FOTA6CfD/2rvXpqaxOAzg3yIzfcMrOu44Zdax6BZxx6pjlcusA7h4wYWdYn0DOlau67oKlYuISmm5CHYRmlpFaJuC0Au3Auv3Wt2zkzlCThpK2tD08VXM5ZycX9JnSpr8k0cCiJI8OljYVQgcXQFEydE9NtgzCOSRAKIkjw4WdhUCR1cAUXJ0jw32DAJ5JJB/USJZRS2PxMmuOu46yDP+rffv0XeUiUtzUEUt79Cww0dZIP+iRLKK2lEmlty3voH+b1U/hIhknaQMqqhJ9sJx3CWbbY73JzfW5ni/knePstrBfAjIC+RflEhWUZMf5JFdynpwJoMqapJjNJeaQ0LYN+OrrKp87R6JLkfpIiOSm2AmBDITyL8okayixnGcwWCov14/Muoen5xoaW0R7wetqKwQ/4jYX03adtk28HxgT4E1Uu2ZgJ79+ayzzUnK/5B6ZaQK9LVfr41PTrieuY4fPy7TO6uGG2mcFSWsKmpkK+WvGX7w0LkSXyWFV7zj3p0vu11/dGV2omArCMgL5F+USFZR4ziuf3BgbXP9xcvhHldvSAhP+abJ7fP0x3VPCdg7Dsf61sYc7yeVR8TnRFjPoZSdKZv2vY0l4wPPB2PJeEgIh4UIebCN1Turhhs5KvS+0cdJsooaWcHZ5tz5sqvw/lG3x00eca6prZn1z84vzE9OvaE7wjQE1BLIvyhhjZxVZIT+uNJRYrFYllaWh4aHSIMGg0F8cocVJRzHmUvNYSHyObbyy9Wr9mb7p9ACiRJW7/Te0kXJyHx63+g1ZaZJlIjlJmXWFJ+K5jjOM+Z92N62vzqJ/OZYCgHlAvqJElffs9TuNh8MiDUBiAL9caWjpLGpMbGeJDVN9njJR0lkSSABRNdeZfXOcZxkDbf9+7ZnH2T+e+yHY/trqUiuTy7f1tTW+AO8qaQEUSKphJmqCOgnSjiOq6quHp+ciCXjWzspsfIoK0rszfbVRIwuRCaCpo0SyVqEkr2zariRvuh9E3tXcWLU6+GDAfKVhHxJkSw0qWKPaKpgBXQVJeQofi1yNPV2WnyDBP1xpb+V3Lh5I7GelHzSLLMokeydDwYka7iRlel9U34KKv9W0uPq3Uhtfpj/aCop+VoMfzESoqslKe8Ra0IgrYBOosRgMLS0tpCXtnx91dOUb1osldjsuCN++3jw0Lm1kyLfKYxG44f5j3wwQH6dqaqurq2rI16jXg+5Wmk0GscmxpPra2LpIzqMRFyZ3lk13Mi2dO1lsTX5iQNdK6mprVnbXP/r6ROO4xx3HbFk/FZDg3z7WAqBzAR0EiUnT570zfi2/9lZ39pI7W7HEjGxipq51LwYCZHiY/4AvxBaFP88uWSzhYTwzpfdrZ1Uane7f/D/+oaNTY0bqc2N1GZyY80z5hWWoiRKSPVpUnyMvrVMpndWDTdytCwWS0gIb25vbW5v9fX3KTmEB/oFh+O49o52UkEutbv96PG3UpL4B4FsCOgkSggNqXsmWXa07EyZ5Hzyo8w5q3XPhcyioiLreat4c4oSelbvdDW2/TXcDAbDOauVtW+S/Sq/r0RkOehYJPvFTAjICOgqSmTGiUUQgEBWBRAlWeVF4xAoFAFESaEcaYwTAlkVQJRklReNQ6BQBBAlhXKkMU4IZFVA4yh52tszy8+1tLbs+QElq2NG4xCAgOoCGkeJudTc0dkRS8ScbU7Vx4YGIQCBnAloHCVknHwwgBu6c3bI0REEsiGgfZT8eOJEOBoR70DNxiDRJgQgkG0B7aPk1KlTi5GQ5GN12R482ocABNQS0D5KbJdtK/FVe7NdrSGhHQhAIPcC2kdJcXHxzOy7sBDpcfVWVFbkngA9QgAChxfQPkoMBsPg0PNYMs4HA+LjvIcfGFqAAARyKaB9lNgu21YTMVwryeVRR18QUF1A+ygpLy8PCxFcK1H90KJBCORSQPsokaxLlksC9AUBCBxeQPso4TiODwZ6XL2HHwxagAAEtBLQPkquXLkiLEWf/Fd/VCsF9AsBCBxSQOMoIa+5GxoeOlDpw0OOGZtDAAKqC2gcJaqPBw1CAAKaCCBKNGFHpxDQmwCiRG9HFOOBgCYCiBJN2NEpBPQmoGaU3Lx1c4739w8OkPfd6Y0K44EABNgCakaJ0Wi81dAwvzDvm/GhwCLbHEsgoEMBNaOE8HR2d4nv69UhGIYEAQhICagoS115AAACVklEQVQfJa9GXvHBgFRfmAcBCOhWQP0oGfV6Rr0e3YJhYBCAgJSA+lHCBwNuj1uqL8yDAAR0K6B+lHR2d8XXEi9eDjvuOnTLhoFBAALfC6gfJU2/Ny2vfv4UWugb6P++L/wPAhDQrYD6UcIHA7hWotvzBQODAENA/SiZnHqDayUMbcyGgG4F1I8St8eNH4N1e75gYBBgCKgfJZ3dXfML88XFxYweMRsCENChgMpRYjKZxibG338MIkp0eLJgSBBgC6gZJbd/u72aiM3x/ks2G7tHLIEABHQooGaU6JAHQ4IABJQJIEqUOWEtCEBAVgBRIsuDhRCAgDIBRIkyJ6wFAQjICjCj5MLFC+/mZke9ntM/nZZtAQshAAEIcMwoKSoqqq2re/u3byG0iAKLOFMgAAF5AWaUkM3szfboctR63irfCpZCAAIFLpAmSto72iNLgrnUXOBMGD4EICAvkCZKHj3+8/2H96j5LI+IpRCAQJoowbN5OEUgAAElAmmipLGpMb6W8E6Mtd6/h8dqlIBiHQgUpkCaKKmsqgwLkXA08to9YjKZCtMIo4YABNIKpIkSt8eNayVpEbECBCCQJkp6XL2oY4SzBAIQSCuQJko6u7vwY3BaRKwAAQikiRJ7sz0sRMrLyyEFAQhAQEZALkqMRqPrmUtYilosFpkmsAgCEIAAM0ouXLwgLEUXw4v11+vBBAEIQEBegBkl8pthKQQgAAFaAFFCa2AaAhDIUABRkiEcNoMABGgBRAmtgWkIQCBDAURJhnDYDAIQoAUQJbQGpiEAgQwF/gW7l+sbHmKE1gAAAABJRU5ErkJggg==;movable=0;resizable=0;rotatable=0;deletable=0;editable=0;locked=1;connectable=0;" vertex="1" parent="1">
          <mxGeometry x="-1450" y="-1190" width="366" height="385" as="geometry" />
        </mxCell>
        <mxCell id="NM8_mZAWdIv0FdGWZ86l-23" value="" style="shape=image;verticalLabelPosition=bottom;labelBackgroundColor=default;verticalAlign=top;aspect=fixed;imageAspect=0;image=data:image/png,iVBORw0KGgoAAAANSUhEUgAAAXYAAACYCAIAAAB/BVV0AAAgAElEQVR4Ae1d+1NTR/v//hVn5vySmb6TTN/phL4OiMVqLaJiQacUXoVQLdggVi76CoRLS1C5RQSRECAQLnLJBRByJcnJ/QLq2z/rK33anX1Pcg4hTQDJ4zDtyZ7dffb57O7n7O7Z/Zz/Y/AfIoAIIAJZQ+D/spYzZowIIAKIAIMUg40AEUAEsogAUkwWwcWsEQFEACkG2wAigAhkEQFBipFIJJ1dnSvG1cYHjVm0j1kjAojAqUZAkGKGNMNeP9fc0iKXy081AugcIoAIZBEBQYrR6rSzhrksWsasEQFEIAcQEKSY5wP9RospBxBAFxEBRCCLCAhSTFdPt81p/9eZM1k0jlkjAojAaUdAkGIaGu9vWbcLzhacdgTQP0QAEcgiAkkopqy87PlAv8uzM7+4wLJsFo1j1ogAInDaEUhCMfX36o0WExfwvXg5ghRz2hsA+ocIZBeBJBQDBptamrftVpwoZRd+zB0ROO0ICFKMqlNldzmQYk57A0D/EIHsIiBIMb+pe/GldXaxx9wRgRxAQJBitDrt4vJSDiCALiICiEAWERCkmPGJ8W279dKlS1k0jlkjAojAaUdAkGLy8/Pn5g3+UOBJe9tpBwH9QwQQgWwhIEgx2TKI+SICiEAuIYAUk0u1jb4iAkeOAFLMkUOOBhGBXEIAKSaXaht9RQSOHAGkmCOHHA0iAqcCAXle3rP+529WlqtrqkUcygzFSKXS1sePGh80KmoVqk6VPC9PxKTIrYvfXOz5tUfdp1b3qcvKyxJjlt8otzntnV2dibcgpKy8rPXxI6lUKhQBww+LgDwvr62j7eI3Fw+bMI34o69GN95u4p7yNKA7MAl0ru8rKqCrHhj/wAjziws2h72uvl4mk4lEzgzFFJwtsLscWp1Wq9P+nWMHFT9ULC4vGS2mcCzS1dOdWO4DKaarpzvFAshkssOq4VT9+9+Ly0tPnz1NLNgxhrAsW1hYyDuwWn+vftW4Bn9j46/+zv6m0uulHp9X2aDk+Xj+6/Nz84bRV2NA6Oe/Pj8xqT3/9XletEP9zCrFQIEBE8OCQdmg5IF2qKIeY2S5XP5aOwGOLC4vNTU3SSQSUp4bN2+uGtcC4aBlc732x1oSrmxQBsLB1sePoKuS8LQvjBbT84H+A5NnhmL+deaMzWnX6rSaEU2KPVykZEBYSSlGJBXcSp1ijBaTVqc9MEM6gmZEE4yEHC5nUVERHX6810ld7urp5gK+/sF+dZ961bgWjIQUtYr0yilEMaXXSwOhYDgWuXP3DsMwpddL7S5H6fXS9KwcQarS66Wcn9PqtOo+9fALTSAUnJjUfoosAx3EsDAPjviCfqK78n1Fhcfn1eq031dUjL4aC0XD9T/fA2zr6usCoeDD5qZtu/WwLT9p7cwa5lLJJzMUwzCM0WLSjGhorTyJRNLc0kK3bBikSaVSlmUrfqgYHB5aWFrs7O7iTaySUgzMxWAOxfsoAsuyygblrGFO3afue9ZHOE4ikShqFSOjLw0LhtbHjwjTl5WXqfvUDpfTvG5W96l5M7v8/Hz1075ZwxzvKSeXy7es2yOjL92ch/dIl+fldXZ3LSwt9g/2n/vqHF0ft27fmpjUzszq6+rrSGuWSCSNDxpnDXO8+DDThOQXv7nY1tEGyFz85mJLa0t+fn57R/vMrJ4UTJ6Xp+pUGRbmCZuQ2SXNO4WFhQ6Xc3xinGEYEeQbHzR+X1Fx4+bN8YnXH8XhiSM8irn7090OVccXX3xRer3U4XJuWben9TOJFCOTydo72g0LBlK/Uqn0YXNTZVXlyOjLjk5VyZWSiUlt44NGgAUqRd2n7vm1h56Uge/nvjqn7lNPzUzdun2LwFtUVPSH+wbNiIZQm0ir4znym7rXHwpcvXYVMhSqd5lM9vg/jw0LhpHRl9U11VBaqVTa3NJScqVE2aCcmdU/aW8jrYthmETfGYYRqkSwfuPmTc2IxrBgUHWq8vPziY8sy1bXVM/M6uka4XUQ2pFp/Yx5wwLjSpZl36wsv1lZhjKXXi/d8boVtQqjxQSNgViBMh92UK/VaddMRjqTpNcZo5jzX5+X//GPHiprddrNrU3aYZAcl+flLSwtAnBuzmNz2OnpNw9BKDcZHLq9Ht75zN6+3kg8OqWfntJPh2MRQjElV0pWjWsTk9rRV2OBcHBlbQVKApOIQCjo9npWjWvT+hliHR4C5g2LZkTj9XP0U05Rq3B5dspvlPOGP0VFRTan3eFyakY0q8Y1u8tBEICCQet0c57+wf1RpVQqfbOy7PVzmhGNyWLm/Nz3FRXgI52zskHp8Xmh58AQd8frntJPj0+8jsSjbR37W65h5G9z2MOxiNFiWl5dIYROU8yFCxd2vG6Y34kgb7SYvH5u224dHB7atlu3rNtAcHTP/E3dG4yEHjY9BE5xul0DgwMuz07x5WJ6FFNwtmDbbrU57UOaYZvDbnPYi4qKCs4WfKzoHa9bq9MGwkGbw/5aO+H1c5VVlQzDQKWY182haJhmcPDd5dkZnxifmzfE9uLgO8Mwzwf6V4yrg8NDJos5HIuQx7VQq6MdYRiG7plC9S7Py9vc2rQ57c8H+kdfjXl83nZVB8Mw0ERdnp0V4+r+gCgcXHyzCD05qe8MwwhVIsMwT9rbwrHIlH766bOnRovpo8Uvv/wSngfjE6+DkdDoq7GllTcenxeaCq+DgIBcUVERPEvoyQsMZosvFzMMI5FIvi0ulkgk0FVpOpDn5W1Zt2N78V/+qFn6lsh1iielM0YxSYty5+6dP9pQFcMwV69d3fG6E32orKri/BzdqngI8nLW6rQ0xRRfLvb6Oei90G4IxdAJm1qaOT9HnnUw7Eoc5k3rZ9ZMRmCi29W3vX6OdFrNiAaeD88H+mkT0/oZq8NGBmKQlmGYyqpKfygALRIqGJqgskHJBXy3q28D3Zg3LOS4qTjFwNhNKpVubm3SJafZhLjc1dMNvLNqXHO4nFP66cQ1OR7yRovJaDFBNBou0jM7uzr3R9p/tUIIb338yOawt6s6aIrp/rV7x+v+tni/ZRcVFbk8O5oRDVTrb+peUr+FhYXbtm266okt4gj0TPAdHstGiwmQJHF4mNCtrvhyscuzA62OZC6TyWoUCofLSXhBqN5Lr5d6/VxD431iCy7ABa3uz3lWu6qDC/hgCJnUd0IxSStRq9Oa1808p6AJef/qGizLGhbmoamAdZvDvmpcW9/csLscP9XXAekHwkF6hYF+UPFcoH8CxUR3Y4Sm6buJ14paxfALDRfwDb/QJN7lhWSXYuR5eVaHDWi1XdVBj1ZkMllLawtMJv2hAN3OSBPklRV+8ihmvwmGgnV/QMwwDK+/weRC3afW6rQHUgzYHdIMl14vLb1eeuv2LafbpepUMQzzcXy2bbeCI3TPhEWoxGEnwzCqTpUv6CfjcOILb7mK/ilCMWREk0iOPJfBEFmLeT7Qb143cwFf/b16uCWEvJB16JmTUzou4CP8Ag0aloFfjr00b1hu3LxJ1mJgzZ64DD9JtdIXb61bdNUTFiBpeZ2EhgsmETB3drichHbpVvekvY2snZHFo9hePBAOqvvUMLsRq/e8PBgiaXWTFT9UEBYgLkA5FbUKX9APjiT1HShGqBKbWpqjuzGrw9au6qA/W9bVs8/U1TXV0CAHhgZBsR+sw1rMxKSWC/gMC/MymWzfwQSK8fq58hvlBE+hC4lEkvgQEoqs6lRtvN3kAj7oHULRIDy7FMMwjGZEs7m1KZPJ3qwsvxx7CVa/r6jg/NyqcS0jFEODSPe3+42NwUgI1mhSp5hIPBoIB8kfnAIFWhkbf6XuU/cP9nMBH/gClf2bujcR5a6ebofLWVhYyLvFe+lGF1iok/O6GR0tkVXBHJ0twzCzhrltu1Uul4sgT2dLW4RuPzb+KhAK0tsFCB1UVlW6OU+HqoNQDAyIiOPwVCDdkr44LMUQv2Qy2apxbcfrfj6wv6RNUwzDMC/HXsIMfXF5CZaKaE6s//mePxQgK3pQnqT1DsPPpuYmo8UU3Y053S7orsQF8JFAAQ8AepRNnog0pInPiUuXLo2Nv9rxumN78Y+rh8BlXT3du+/3gpEQaY2WzfV/nTnDs15ZVRUIB5+0txVfLuYCPnoU86S9zRf004N3Uil//yLF7yBlnWIqq6o8Pu+j/zx2uJzw6oFhGK1OSyYXdPWA2zwEeViQOoPw/XXycJAMZUkThFoka128Ck6sYzJU0YwkGfs9H+gPhILkNbDNYYfyw+hmckrHKyRMsP2hQOID5ONMYcfrvnDhAiSZnNJB5+cViS4wfc2LliLFkMmdCPLiFKNsUPb29Yai4fuNf36AmFTcn/MXs5FQzOSUjl6DM6+bF5eXSLXSF4elGAKXskHpDwVIi6ILzzCMolbh9np+Vv5sc9jJKIkusFanJaMbqMSk9U5X67fFxW7OAyNW4gJEaGi87w8FYE6d1HfxUQxtZXB4iCxCP2lvc3MeWEmh4/Csw1pbV083TBjpLyxqdVrSuugcEq8PNYqB5OMT4zSZJuYJIVmnGKlUat6wWB22t9YtMggcnxgnyxkPm5uCkRDhCLKWlnRoAPREOwZTff2cnmVZeV7emmm/ocPy7ZrJCPN2lmWfPn/G6/CLy0uGhfmPU9yPPYS8DtCMvHBzHuAFeV4erK5BzdFN8M7dO1zAB+27f7DfF/TD2oo8L+9+45+vSC5durTjdeumpyDzGkXNtdL9F7qVVZW+oL+3b3/gU1JSsuN1a0ZeQGVMTulgTi6Tyab1M4FQkCz3Co2xgctcnh1Y+CArQTTVVlZVknUHEeTpXkqTGt0zX469JHMuEs4wzC9ND0PRsPev1a5fmh4GwkEgoxqFwh8KtHW0kY5BX6RCMeFYBOAqKipyuJwwfoRXsEAfF7+56HA5aaKH13+rxjVaf5ouMNQOWUxJWu+wkNTU0gw1WHKlxM15oBmAC6vGNZlMxrIsTdxJfRenmPqf7924eRPWd4c0w1zAB7RScqXE4/OSQU35jXJ42UQAhDdBsN784539rQPdv+5vVoDWeOv2La+fE+pHNCMcdi2GNFcyOaVz411nnWIYhnn67Oneh3f0jrXyG+VOtysSjwYjoY23m+ubG0azkfRzWLWN7cWDkdCO1w3bxgDW979/IH+EaBruN4RjkXAsEggFl1bekBWf+nv1vqA/HIsEI6Hl1RXejqO7P92Fu+FYxLA4D9ZlMhm8tghGQrG9uGHB8MUXX1RWVXn9HHlgEhKEti6TyXTTU7vv9yLx6N6HdyaLmbyfUtQqvH4u/m43thcPxyLkVYiqUxXdjYVjkT9M7M+ioVbq6uv+dCQc1E1POVzOVCim4GyBecMS24uHomGXZweIrKunmwAVjkWm9TOwIC2C/IEUA31gf/Lv527dvkX3WKidQPhPTmRZdmT0JRSJjPxJx6AvCMXQBX7/+4fYXhzoA0YrNoc9FA3H9uKWzXXYlPSxbxsW5mFVxePz6g2znJ+DjgpgPh/of//7BzI3pydKEKG5pSUUDcN0KWm9MwxTXVPtdLugKcbf7ZrXzWAdXNiyboei4Ug86gv6yVJXUt9FKEYmk41PvIYWEolHw7EIvcBRf6+e83OReDQSj3J+DlgbrEP97r7fc+44yTItsR6JR2N78dFXY3S34nV+8jO9N0qwT4VkInRxFBST1DbLst8WF0NvZFn2839+zosml8tLrpSkAhBMmIsvF5O+SrKSSCQlV0pg9JQ4FKTLQJLAk6HkSklibnQc3rVMJhNKcv7r8+Q1NklFF4wEijhCx0l6XXC24NviYrIemTQOBNJeJ0VeJO2hbolgkno+ZDxVcLYgEUba68//+TntfuUfK0T0g+FAo0IFlsvlV69dpdsDYUmZTFZ8ef9NMC9zoax40chPqJREByFC0iZE0iZeHNZ6evti1kzGxeUlehdPYkk+7i04NopJWhoMRAR4CBCK4YWL/6ysqtyybsP0WTxmencJxaSX/HSkulZaumpc8/q5uz/dFfEIKUYEHLx1/AgoG5QOl7PkSknqRVHUKjg/Nz7xmh53pJ48lZgFZwv23zF3tKcSOcfjIMXkeANA9xGB7CKAFJNdfDF3RCDHEUCKyfEGgO4jAtlFACkmu/hi7ohAjiNwbBSTcQ2ubFdkBgucwazEva6rr3N5dsgBLvHIInePrMAiZcBbnygCx0YxcIL2sBpcaUjV/aEwIf/71ZNegZPaTS+rNHzPFMWkV+CkvmNgriFwbBSTngYXvQM1larK4P6F9AqctJDpZXVY35OaPlQgOY6QXoEPZQsjn1YEjo1iRDS4kiqAiUjVJVU/g7NwcCoajr0T2XBaUI5hGFprjmGYpNZh+7mIaNihxkoZ9L3xQSNIqZ/76tyQZnhaPwMHCEAQD4QOiOTNgdproNG3alwzWkxwGgP2y4oU+LR2DPQrUwgcG8UIaXAJKYCJSNUJqZ+pOlWgNA7iPUTImrdhlB4dCFmHrf1ComElV0q8fi4YCYGA24F1k0HfhzTDbq9HP6fftlutDhsX8MHRHiKFHQgF6bNqMOVJFNBjGKa3rxdEhoZfaNxeT0eniuyLFyrwgZ5iBETg2ChGCHohBTCIT9NBYg489TPmLwFEWkFD5EAaHONOqj+WaIsOAYrhUtP+oRPyrtPzXavTwlnkgrMF5FQhyZmHGFBMovYaaGsRTcbnA/2gfkTywQtEID0EThzFCCmAgXu8DgOBQupnaVCMuHURiD/7x2ef/eMzkQip3BK3ntR3WnyHZdmL31zk7ZrnpRIawcGiFTn4T/RlUik2xkEERBA4cRTDMExSBTDwgddh4ISoiPpZ0uVeoW4GJkSsi+CYqVsi1hN9B6M8jS5eSXipRHzfnyj5udbHj1ofP0pRlpVnC38iAokInESKIaWkFcAgkNdhYNYjon6WBsWIWCe3Ei8yMoqhs03Fd4ifKYqpq6/74ws7kzOzevI1D7pIQteHlRoQygfDTyUCJ45ihBTAAP1EqTp4nyqifgZf7QA5JVi/LL9RTmTlFbX7mmxkQVTculALyNRajLj1RN+hPJmimPGJ8R2vu66+rvR6aepKPZVVlcFIKByL1ChqhPDB8FxG4GRRjLgCGMMwiVJ1B6qftXW0ReLRUDQc3Y2BKiJ8yQikzLbt1uXVFaCYA60LNZTDvlFKms+B1hN9Bx1fUD8jMnGQOYjRE+G7979/AB9FJkpFRUWLbxb9oUAgHIzEo17qA09JCwyBME5M/W2aSFZ461QicLIoBiAWVwCjRdtIlYion8H7ZqJ9RydJKjImbp0k510cal8MLy39U9x6Ut/p5Glfk9fSkINMJntr3SKDO5Fs4VUUkWEXiYm3chOBk0gxuVkTx+v11WtX3V5PS2sL7LWrUdRwfo6WWxYqXmVVlS/oT/wCn1B8DM81BJBicq3GBf1t72j3+rm9D+/e/fd9IBT8+AE23vvvpCl/qq/7+CUN8jHMpHEwMJcRQIrJ5dpH3xGBrCOAFJN1iNEAIpDLCCDF5HLto++IQNYRQIrJOsRoABHIZQSOjWKyJKRWVl5GRBtE6jWD1qVSaevjR6AIoepUZW/hs/xGuc1ppz9cL+KgyK0M+i5iBW8hAoDAsVFMloTU6G85i9RxBq3D3jOtTqvVacnntEVMw600JOwyRTEZ9P1ANzECInBsFJMlIbUUKSaD1mHvmVan1YxoUqeYxMNW2W6LEokE9rxk0PdslxnzPwUIHBvFiAipSSSS1sePDAsGzYgGvhsPQEskksYHjbOGuf7B/nNfnSPosyyrbFDOGubUfeq+Z310PydJ1H1qegojYj2N7/vC98O7erp5Giv5+fldPd0LS4uDw0Pki+4i8n2KWoW6T62oVcjz8tR96lnDXI1CwTAMzMVAwg6kXsB3qVTa3NJScqWkuqZ6amaK5+O5r871D/Yvr66sGtdcnh0357l67eqB8n0EVbxABDKCwLFRDNmxfv7r8/BZe/BHJpOtGte4gG9k9KVhYd7NeW7dvgXd7M3KstfPaUY0JouZo07Q9Pb1RuLRKf30lH46HIsQipHJZCtrK5DEvGGxOexFRUVgRcg6wzDyvLwt63ZsL576jlVwQS6X0ycSSq6U7Hjd5g3L02dPddNTHp/3xzt3GIYRke9TdapsDrvJYl5ZW7G7HIFQEMS05HL5a+3EqnHN7fUYLSZS8TBH27eybh4cHnJznsU3izBU+b6iwuPzzs0bnj57+ta6pTfMfvnllwf6TnLGC0QgUwgcG8UIOfD02VMu4IPnLTALxFQ2KLmA73b1bQg0b1gWl5cYhim+XOz1c/2D/RDtN3UvoZhfmh66OQ8MH+DQDRyDFDIN4UAx0d1Y/c/3xGOK31U2KL3COnhCE6Wunu7YXvzV63GWZY0WE0+vj3eomiwDAa3QOlLjE+ObW5ug711ZVcUFfH//Uyfi/uJdRCApAieOYtZMxjWTMbGsvJUO8nN/8TIUJP2HXovR6rSb22+/++670uulHydc+jl90pwTbUkkklT2zicmpEMuXbrkdLt8Qb9mREMYk0QQoRjOz0F83vgOBO4SRzGEhni+E4XQfYrxc6B3QQqAF4jA0SBw4ijGaDFNTukSnee9ryHdiTdYIOHQIePvdgPhIPlbWFpMzDl7ITKZrKune3NrM7YXt2yuk2kaiDAkPcdMlz+xYElHMUkpBiZKo6/GFLWK9c2Nza1NeikqMWcMQQSyhMCJo5jF5SXy+KV9/k3du+N1X7hwAQInp3TbdqtcLt9/PxIONjTeh3C6i2pGNBCHzieV64yMYmhDt6tvh6JhVaeKBIqMYshEj0QmF6lTTMHZAvOGRTc9tbC02N7RnvqgjJbFIHbxAhFIG4ETRzHNLS2haPhhcxPovDx4+At0j8qqSl/Q39vXyzBMScn+Sqpm5AXDMEVFRS7Pjn5Oz7KsPC9vzWQkXfTHO3f8oQDsVWNZtuKHilR6WqbWYq6Vljbcb4BVEkWtIhgJPWlvI/UkJGFHUySJTC5Spxh4M/302VOYJNIL6iS3xAsAc/f9XuvjR4l3MQQRSAOBE0cxLMsODA7E9uLR3dju+z27y0HeW6s6VdHdWDgWie3FDQvzhC8a7jeEY5FwLAJfF7M57AVnCwALVacKbsX24s4d5/cVFQdilMYbpaR5tj5q5fxcbC8eiobj73bn5g2kwEnl+2BmR3TqyPSHfEeB3Hr/+wdYkYHlXhKTpqd9GIcGPT5vIBwMRcOxvTj5ukDS0kKgVCpdMxkP9TZNJDe8hQgwDHPiKAZqRSKRJOrUCenXQXjx5WK6D5PaTUMpLo2tt8Qc76LgbIGQDm4aBeNlLvKTt1Q8ODxEBnciqRiGWTMZrQ4bLtyIo4R3U0fghFJM6g5gzKQIrJmMUzNTwLn5+flGs9G8YSHfqE6ahGGYCxcu7HjdqYjdCeWA4YgADwGkGB4gp+Rn+Y3yt9at+Lvd979/iO3FV41r8K1rcfdu3Lw5NTN16dIl8Wh4FxFIHQGkmNSxwpiIACJwaASQYg4NGSZABBCB1BFAikkdK4yJCCACh0YAKebQkGECRAARSB2BY6OYXNBeKysv6/m1p6y8TNWpUtTuyzKk/e/I4Bp9NbrxdpNsLEq7wBn0Pe0yYMKTgMCxUUwuaK919XQHwsGflT8Hwn/KMqRd5enBlcY3KjNFMRn0PW3QMOFJQODYKCYXtNdUnapAKPhTfR0X8JE9uOnVehpw8fb+pmf3UKlYlpVIJJAkg74fqgwY+aQhcGwUI6Q7J6T8xjAMy7LVNdUzs/ohzTBP9a66pnpiUjszq29pbSF7fMvKyx42PTz/9fkhzfD4xGtyEAF2AycV0Gt80Ph9RcWNmzfHJ17zrMhkssf/eWxYMIyMvqyuqYbDR1Cdly5dGtIMz8zqQT2L1LGyQenccVZWVdpdDvoMJEQoLCwkHZIkEboQggswSfRdUavoH+znAj7Dwry6T00k0+V5eapOFciY37p9a2ZWPzA48MUXXzAMA3J86j51z689F7+5SEpy8ZuLLa0t+fn57R3tM7N6ZYOS+M6ybF193cysftW4tr65EY5FXo69hITivpPM8eLUI3BsFCOkOyek/May7PjE62AkNPpqbGnljcfnJQeOhl9oIPz5QL/VYTMszkPX7erpDkXDDpdz+IXGaDaGYxHQnZNKpUICekaLyevntu3WweGhbbt1y7oNW+nleXmbW5s2p/35QP/oqzGPz9uu6oDG0XC/IRgJLa28GX01FggF4aAm3JLJZBe/uSiRSC5+c5EQH9xq62jbfb+Xyo5biC8El5Dvqk6V0WIKxyI2h33VuDb6agy29p7/+vz84gIX8GlGXnABn9VhI0e6QI7PvG4ORcO0uAzM0Xa87in99PjE60g82taxf56TZdmJSa2b8zwf6B+feO32eurq6wj7iPgOHuF/cwSBY6MYEXyTKr9VVlV6/9JVYlnWsDAPqnegvZJUYqarp9sfClT8sH/0UZ6XZ3XYQKJFSEAPsjJaTEAHTS3NnJ+DsU/p9VKvnyOSEaTwUqnUvGEhyi+P/vN4x+suvlxMIghdAMWsrK0cuKlfKAcIF5LXIYcnEydoBWcLbA67m/N8X1GhbFC+tW7Ri7ul10s9Pm8ixYBmsFQq3dzaBH+vXrvq9XNNLc1QklnDXIqKX+Ie4d1ThsAJpZhE5beunu4dr7u6phrUCQaGBokW98DQYGwvbrSYiPIDVBJ98phhmMXlJTigTBTzIBr9k5ZxUTYoPT4vUIw8L89kMYdjEa1usuKHCvKsBupRdaqgVHX1dV4/RyT4xNvK5//8nOQjHlPkrpDv4hRjdzlgRgNjDboYSSmG4ECLafFod9YwRyvyiZQZb+UUAieUYhKPBXf1dO++3wtGQkTCzrK5/q8zZ6C2bty8OTOr5wK+6G6MrHrwKIaIrQgJ6NH9h2EYmmJg+aapucloMUV3Y063q/xGOaj5B0LBffn6h6cAAApXSURBVB2Jv7T1vH7u7k93j7INJfX9QIpJHN1AmVOnGJgoOXecdfV1fc/6eII4R4kA2jrJCHwyFPOkvc3NecTnIDCBIqMbmmJYljWvm2FuJSSgJ04xpBa/LS52c57xiXEQJ3dzHlprikQ78CIjoxhihef7EVAMwzBdPd3mDcvMrH584jX5igspktCFkFKHUHwM/6QR+GQopuRKicfn/fjlExjVl98oz8/Ph0XHltYWeMH08WtkhsV5IqbZ1dMd3Y3db2xkGKbihwrOz8EarZCAngjFFBUVNbU0wypyyZUSN+eBjxmwLLv4ZnHbtg2FOffVOfq9lUjLyMhaDMuyQr7vLz/J5bBuDSiRt1fiL7NTH8WAuMzm1ibMXr8tLqYnXCK+P3329N1/37+1bqWoxSeSFd46+QicOIrR6rRE3o03mK+/V8/5uUg8GolHOT8H3JGfn7/4ZjH+bhe03Tg/V3+vHnDv6un2Bf0uzw7oztFCeUICekJrMdU11U63K7YXD0ZC8Xe75nUz0fouKioyr5tB3S62Fx99NUo6s0j1H/aNUtKsRHyH+G0dbZF4NBQNR3djwIml10sD4SAgzJuNdvV0E+RBAgIWfXkTRhqi8hvl5nUzTBJje3Grw0ZgSVpgCFQ2KGN78dTfpolkhbdOPgInjmIOhOz81+fpL6JBfBh7029GYBgPvej81+d5t0QE9EQKIJfLr167ynv9DPHlcrmQup1QhofaFyOUCXEk0UFIkr1ZCW+pGOaPvKdC0mLX1deFYxHy1j9pHAw8NQh8ehSTOvT0WkzqqTBmigjU1dfteN1w9opl2aaW5kA4mMonNJ8P9Ls8O6mMd1IsCUY7yQiccorZsm6Tt04nuRo+xbKxLDs0PBQIBd/99/3eh3deP9fb15vKcszg8FD3r92fostY5jQQOM0UkwYcmAQRQAQyiwBSTGbxxNwQAUTgfxBAivkfOPAHIoAIZBYBpJjM4om5IQKIwP8gcGwUIy7jlilhpP/x9a8fjQ8a1X1qWuLgrzt//v9A640PGomKnVQqbX38CEJAJIGXG/5EBHIZgWOjGHEZtwM7OdTZZ//4bGT0Je/TYi2tLeMT45//83Oheh3SDK8a12wOO2/vGYl/oHV6+xlsltXqtLyjTyS3w15kar/MYe1ifEQgGwgcG8WkIeOW1H/6nDTDMDx1haRJIPDv7JqhKeZfZ87YnHatTssriYhpkVu8rbQiMfEWIvBJIHBsFCMk4yakvcYwTFLdOUWtwhf0E32TsvIyN+eBnxKJRFGr+HisybBgaH38iLevPynFiFiX5+Wp+9Szhjllg9JkMRONGDjZpBnRdPV0kxOYpO5Zli0sLExltwhMuLQ6bTASGn6hUfepyVxMSKoOkpSVl4G5svIyom5HK/up+9T4jWpSI3hxxAgcG8UIybgJaa8J6c7BYT+i59j9azeZ/pRcKVk1rk1Mavf16MJBnv5TUooRsi6TyVaNa14/pxnRmCzm3fd7NMXAN+rlcnniyQbNyIt3/30/rZ85sF7lcvlr7cRb69b++Z1186pxraW1BVIJSdXxDjTSHslkspW1FSiwecNic9hxN+2BVYARsoHAsVGMuDOJ5315Akh0cs2IBk5Xf5SnfrOyTHd+Eo2WsINAukOSaHCRaP1Je1sgFARpXtCFSGqFlw/DMJqRF3sf3o1PvE68lTREaKKUVKpOhGJ+aXro5jwgsCCTyd5at+AYZFKjGIgIZA+BT4ZihHTnGIZR1Cq4gE9Rqyi+XOzccZJJE8MwIGqt7lNrdVqikgloHopitDotPQmi12IOrJtDSRaIUEyiVJ0IxWh12s3tt9999x3I8enn9Kh6eWBNYYRsIPDJUIyQ7hwRRnk+0P+kvY2IXTMMc7+xMRgJzRrmMkIx5nUzWVI5FMUcqtrEKYZ3jlmcYuLvdokWXyAcXFhaPFRJMDIikBEEPiWKIQ7TunMQqBnRbG5tGhYM9PzFaDG9WVkGXkjsuocaxYxPjDtczsLCQjB3KIrJ4CgmdYohk0cCGl4gAseCwCdDMUK6c4CaolbhDwXoV0ugyWa0mD4qTrIs+/T5M38oAIK7kKSrp5tmDRr9xLWYX5oehmOR5pb99ddbt29xAR/NZXRa3vVh12IUtQqvn7tdfRtGbWTcxBuwgBVYFYKvL+Tn55vXzWSp+8c7d/yhQGdXJ0jeVfxQkVTmhlda/IkIZByBE0cxQtprIrpzZK5EOhjAVH+v3hf0h2ORYCS0vLpidzloXigqKrI6bKChNzQ8BEmErMNXnOLvdoORkN3l2LJu01mJ1Erqb5QgE6lUOmuYA3m9QChY+2PtnyLkwlJ1ILjHBXy66akt6zbRplJ1qsKxSDgWie3FnTtO8tkpkdLiLUQg4wicOIoR91BEdy5pQlrzTSKR8J7kLMt+W1xM+mTSHOhAuVyeukItJEx9XwzPUOoaejKZrPhyMW/XD7F+KAfpMuA1IpARBD4xismIz5gJIoAIHBkCSDFHBjUaQgRyEQGkmFysdfQZETgyBJBijgxqNIQI5CICSDG5WOvoMyJwZAhkhmJqf6xdNa4Nv9Dgid4jqzk0hAh8EghkhmJkMtmPd+5sbm0uvlkku8U+Cf+xkIgAIpBVBDJDMVDErp5u8j3prBYaM0cEEIFPBYFMUsz4xLjRYvpUPMdyIgKIwBEgkEmKmZzSwXmZIyg3mkAEEIFPAoFMUsyhzh9/EuhgIREBROBvIpBJiunq6fYF/aOvxhofNP7NYmFyRAAROB0IZJJi6u/V73jdb61bQ5rh04EOeoEIIAJ/E4FMUozRYsK1mL9ZH5gcEThlCGSSYmYNcymqqJwyENEdRAAREEIgkxSj1WnxpbUQ0BiOCOQmApmkmK6e7s2tTalUmptQoteIACKQiEDGKEYul0/rZ8wbFqSYRJQxBBHIWQQyQzF3f7rr9XOrxrVrpaU5CyU6jgggAokIZIZiEvPFEEQAEUAEGIZBisFmgAggAllEACkmi+Bi1ogAIoAUg20AEUAEsohAEoopuVKyvLoyOaU799W5LFrGrBEBRCAHEEhCMRKJpOrf/15YWtyybqNQZg60AXQREcgiAkkoBqwpG5TOHWfx5eIsGsesEQFE4LQjIEgxqk4V7xPRpx0K9A8RQAQyj4Agxfym7jWvm1HrO/OQY46IQC4hIEgxeKYxl5oB+ooIZAsBQYqpq6/zBf1T+unWx4/w2FG24Md8EYHTjoAgxZTfKLc57Dan/bV2Qi6Xn3Yc0D9EABHICgKCFKPVaXEtJiuQY6aIQC4hIEgxzwf6UV8ql1oC+ooIZAUBQYrp6unGl9ZZgRwzRQRyCQFBilE2KG0O+4ULF3IJDfQVEUAEMoxAcoqRyWQDgwMOl7OoqCjDBjE7RAARyCUEklBMyZUSh8u5bduurqnOJSjQV0QAEcg8AkkoJvNGMEdEABHIVQSQYnK15tFvROBIEECKORKY0QgikKsIIMXkas2j34jAkSCAFHMkMKMRRCBXEUCKydWaR78RgSNBACnmSGBGI4hAriLw/xZg7e0BYlgyAAAAAElFTkSuQmCC;movable=0;resizable=0;rotatable=0;deletable=0;editable=0;locked=1;connectable=0;" vertex="1" parent="1">
          <mxGeometry x="-950" y="-622" width="374" height="152" as="geometry" />
        </mxCell>
        <mxCell id="NM8_mZAWdIv0FdGWZ86l-25" value="" style="shape=image;verticalLabelPosition=bottom;labelBackgroundColor=default;verticalAlign=top;aspect=fixed;imageAspect=0;image=data:image/png,iVBORw0KGgoAAAANSUhEUgAAAeUAAAB0CAIAAAA0H71nAAAgAElEQVR4Ae19+VNTSdv2+1d01fklVfMWqectKzhTog6IOogYH4GSkVEMgwMzQWZEkFEIi2PCJkRQkYgQCIssIcEIZCPJSU52UGv+rE+8fe6nv7OExVEWm7Kszjm93H11n+v06eW+/oewP4YAQ4AhwBA4CAj8z0EwktnIEGAIMAQYAoTxNesEDAGGAEPgYCDA+PpgtBOzkiHAEGAIML5mfYAhwBBgCBwMBBhfH4x2YlYyBBgCDIEvyteaD38MdIYAQ4AhwBDYBQI74OvTZ07vogBMknM8x+P3tnW045UvFlCr1Xmn8r5YcawghgBDgCHwORDYFl+f/P7kzNxLPsIXlxQTQjTZ2YZWg6HVoMnOvnrt6ti4tfdh75EjR8C+s2fP9pn7x8atV69dRYt1lbqehz28ELZNTRpNxsamO1lZWXBXpVLV/V43bpvoedhz8vuTdBKjyair1Gmys40m47ht4rpORwg5feZ0Q2PDsWPHmluax8at+lo9x3GYqqS0dGj42fBzC116i6ElnkoMP7dosrMxJgswBBgCDIGDhcAWfK1SqTq7uxLp5MzcSyTTvFN5k9NTvBA2DzzihfCq1+32enKO5xBCam/WRhOxmbmXj58+EWLRB6YHAIeh1WB3LsZTCbfXM29fePz0CfB1VlbWy7nZUIQ3D5gXnQ4+wl8uK8Mkbq9n0emYW5jz+L1CLApjc32tXohH10KBF9bRoeFniXTyXss9SNLW0R5PJV5YR0dGX8RTCSydEFL5c+VaKBDgg5U/Vx6sFmLWMgQYAgwBQCATX1dcr1DiuJzjOW6vJ8AHL5eV6Wv1r1eXc47nZGVlOV45LSMWyPrOn01roUDBuQL4KTsfoq/V80L4WsU1Qggkn56dwbZp62hPbaSfPhviOM7uXKT5uu73OkjiWnZBiZD/w/4+SN7Z1RmK8Fg6IUT23YNlsQBDgCHAENjnCCjyNdDf1My07BwC3B18MkgIUavVp8+c5jhOe1EbivCGVoP2olZ7UVtdUx2K8NU11QCBLF+bB8wevxfG5oQQ0c+2jnY+whddKCKE5J3K02g0hBB9rT4YDmkvaiFbu3MR+FpXqQtHI/paPVwX/cRmyM/P9/p9+FLB6yzAEGAIMAT2OQKKfM1xnKnLJJoJwcrIkq/2olaIReOphBCPwr9QhL/xyw1IJZvEMmKh+bqtoz3DT8hHia9hngT5WntRGwyH8CekLSktdfs2PwsqrldgXViAIcAQYAgcCAQU+Rqsh5XGRDrZ2d2lUqmwSrLkW3CuIMAH7zZ/nE3GyBCQTfKX8cFaKJCfnw9xnr8YWfGswjiaECKib4ijxNfFJcW8EK5vuA3RautuRmKCrnJziRLWSIefWxLpJFt1BEDY/wwBhsCBQ2ALvob6NN5pDEcjrmXX2bNn4Yos+XIcN/1yesW9cuzYMULIye9P4qzFJmNqNCueVZhf5jgO2P9K+ZVwNAILg4WFhWuhgHngEYK4I76G6e95+4JarVapVBOTtuXVFZjMuVlXt2n/yuuS0lLMnAUYAgwBhsDBQmBbfA3j05t1dbBzbnPeIx59+/e7t3+/o6cvCCG5ubmOJUdqIx1LxlMb6cdPH9Oj8nst9xLpZCwZT66nzANmQMrQakiup+KpRGojbZuaVKvVcN0yYoEi3v79jt61rTS+JoQUlxT7Av7URjqRTvoCfth9CFZV11TT2/4OViMxaxkCDAGGACGfxz+fRqMpPF9IMzVirVKpCs8X4owHXJe9iEl2Gsg7lcdOx+wUNBafIcAQ2P8IbHd8vf9rwixkCDAEGAKHGwHG14e7fVntGAIMgcODAOPrw9OWrCYMAYbA4UaA8fXhbl9WO4YAQ+DwIMD4+vC0JasJQ4AhcLgRYHx9uNuX1Y4hwBA4PAgwvv5CbVldU+0PrqE3lS9U6pcqJisrq7HpTt3vdbpKHTja/VIls3IYAgcGgdNnTnfc77hcVgYPyy7s3u98feLECdl93Luo6t4m+QJ8zXHciRMn9uRYEJx3tYxYaIcw13XXJyZt9BnXnOM5L8Ze/PIfF2DlP/00PTvT2dVJN03Zj2UTk7ayHz+61cVbeafyJiZt8/YF/GdoNYAjMLw+NPxMeoS1tu7mvH2hobFBNivblE3kQh2jSQOVP1c6XUtCPOr1+1rbWlUqVdmPZS+so7jfP+9U3gvrKBivZHDNrzW0PTW/1vSZ+wkhhlYDVg0DzyzDeFhBFi6pkXBFqXRDq2F2fg78NGg0mmeW4YlJG9gPhkHRQ8PP6IbrM/eDkaLiRDZjVhBNijwWMTs/Z+w0wUFoiMxxXENjg9fv44Xw2LgVvTeLSqR/9pn7wdrN3ExG9EwnW3fpRUhb82sNIUSpdDoV3VXgOvqFzjuVN/zcgt2gpLR03r4gxKNO1xLtwBl8HDU23fH4vbtzObe/+PrIkSNHjx7FJhEdZcTrLCCLgOzxfdmY//jFb7/7zu3zWEYstIfFgnMFoQjffv+/ikJ/1N8KRfhLxZfAAPOAOZqIef2+3NxcNEnktwuvg0pG/yNzcj0FqhdAOtqLWj7CW0YsIGqRXE8NPhmkX1rTszNCLOp45USJDDpJ/yOzEIsOP7fQSbBQOvDA9CCeSvSZ+4tLipsNLU7XEjgTpr1F0l7G4BgwmGo0GUF8A7zibLx7s+kn54N6RltHu925SAjRVeogmmPJwQvhnoc9RpMR/AaDGbJw0RbSYaXSFxbtG+/ewOni4pLiAB/kIzxQ86Y7zP+UO29fiKcSN+s2vRYTQuzORTCSLoIQYhmxYBKjySj6tJIij0V0dnUur64IsSjQJSHkgekBL4SbDS0V1yuWXK/Qpb6oRPqn3bnoWHIYTcbOrs4Vz6rb54GOJFt36D9Gk5HuQh33O0A2S6l0pa6yWcQH33ZVN6oIIdqLWo/fCzBeLisLhkOWEcvlsrLHT5/EkvGa334Fs6trqoVY9Nbt+hXPKs3XJ06cwJcNXUFpeL/wNcdxTX82haORZ5ZhcGzd2HTHMmKJJmL9j8zY1zOr2+Tm5hpaDbYpm3nATI8OLhVfulV/K+d4jrHT9GLsBS09o1arm/5ssk3ZBh4PVlyvwIdWo9E0Nt0ZG7eKpGoAQe1FrXnAbJuyNTbdoYf/muzs1va2qZlpWisHOwpdC8hHSVun7ve6y2VloJXTZ+7fcqwBRdimJvHhAU5UqVS3GxrQ6RUhBL7FsrKyQKbn5PcnjSajCBNCyLFjx4ydpnHbxPbHnnbnonnA3NbR7vZ5vv3uO6jg9OyM3bmIqFpGLPhTo9Esr64MPB4M8EHajaISXyPyQvyjcgVeoR0x3mu5J8SjP1dtPkWEkIJzBb41n3ngUYAP4nuCZlVCyF/GB5GYAG57IZX0/yvlV/gIf7vhv4N0iCMaUtA5A2vQrhQgCUC0Fgr8UX8L6FtEhfQ3ClqiBBdGEAWUSrc7F5dXVxxLDo7j7jbfW/W6vX4f8jW6l3jv4efl3CxEy8zXmERkgCzy9JAC3A2Bk5/c3FxfwI9fWkUXioLhULOhRZSn6Cf6UgZfFEI8Cp9cSnWH5NK7GUqnG5TuKtqLWq/ft7y6MmodE/H1qHUMBwcA48u5WXgEtBe1a6GArlJndy4ODQ+BPd/87ze26clwNPKeiPBJEdUUf+4Lvi4pLXWtvKYthi+116vLqY20Y8lBfz9mULfp7u2Zs88/7O9bdDriqQS+1to62mPJeCAUfPz0ycSkDZ9nTXa2a9nl9nm6e3seP31Cd5HGO41252KfuX96dia5nqIHiTfr6mLJ+Lx9AcaS0GDgpcTt83j9PvOAed6+4PF74fsIP6mEWJR+qWbQ1rE7F0MRHtxjrXhW0XEVNpsoAEW4vZ54KmF3LuIHL4yAXMsuGFpC7xm3TYAbcSEe9QfXhoaHJiZtqY00yvTAAMHxymkeMIciPI49wW0AODeH/9FxOToo12g0+FVICLnbfC8YDgEVwpwJIqmr1PmDa8UlxfRTh4bRDE5XVvqwiZ6o/Pz8D17DPnqnudt8z+31wPAHixYl2Q5f098NtD2742vXsmvcNgHSHDi+xmxl+VoJLkwlCkiBggh25+Kodczt9eTn57+nDOuENcAHYVmFJlPoOcjFGcbXGEdkgCzyoiLqG24L8aiuUldbd5MXwlfKyzETu3ORli7B63SA7jnFJcW75usMpSt1Fe1FrS/g733Y6w+uFZwrwPH1iRMnvH5fd28P2gmfFCCcolKpfigoUKlU6M0fooGUSnI9NTs/l3lwtsd8rVarn1mGk+spy4iMuKLoYUAIZNVt8K5IdwaGMJGYALOK8DzDqAcEFmrrbtJppeFx2wSOgHJzc/3BNRBqgGkvHF+PWsdWvW78rsGvb8yQ7l5ATEraOvB4gOur+obb+MWKWckGRA8DxKm6URWK8PAkFJwr8AfXYFgHw1j43AYex5HvqHVsYdEO9l+ruBaK8DBCLzxf6PX70Lm5EI/SzhRlTaJd7FbdqFoLBXCQax4wwzCku7eHfuY/cXydlZWFkkOEkOnZGXihQiPiMAeG5Gq1+rpO5/X7pl9OZx7awIeCtI6iLko/3sCYOB+CmqXQTI1Nd3wBf9GFom3ytRJcUpPgimzpMG31sL/P7fXU3qy1O+wdf93HrxO6/6jV6tery8iYGfgaP+mMJiM2rhLydBGEkCvl5XyE19fq2zrahXiU/iaGTzGl2sF1eKA4jis8X2idsAbDofcBGO0K8agUeRoZ+rsnQ+nYoKKuAtcbm+64vZ5mQwvytfQ1KeohGWqk5LyaTrLHfA0jX6XBlFJVYaQmUrcB9qy4XgGTgLSIDN1LaE+wmuxsGIlbRp6X/VgmemJLSks7/rpvNBkdSw7k6+qa6khMkG7zgCcBv3FoiDEs4mvRkI3+ScdUAgGzxQBdTbyoyc5e9brhhX+3+R5OFouyxdIBnz5zP4ygr1676gv44TMT89xRYHp2Bh5784AZXwngXBeswocWsv1EvuY4zrHkgO+YgnMFa6EAuETffO0JYSCUzYfqw+RjaiMtxKNGkxFfukpVW1i0Yx+g44hgxMcbWQMES+ftC7hyCM303uvZime1s6tzO3ydAS7aGDoMxCEqHTv/9OzM0PDQkuvVLzXVNF/D95ndYQ9HIyFKTDUDX0MSeu0OpqFkkRd10eKS4pAyX+NsDF0vOmx3LqY20uDac2LShiNT2bpjQimlyvI1lK7UVbChB58MOl45S0pLYf5amrm+Vh/6j1I52pAhcKv+lhCPKlHiHvP1Ba1WNBNC10T0MOAt7HZ4BWTJ5u0La6FAd+/mQs12+BpEHetv19udi8n1FLpg5Thu+LklHI3A1DnN10rog0l/GT/qC9OGYZhmYdH3pkicgY6pBAJmiwHRw4DXB58MwpQIDjalsmqYFiqSSCfpcTRoUODEDjyc8/aF7fD43eZ7voBfe1G7vLqCMxLA0U+GnhpNxp6HPbwQxk+WT+Rr+CCFFydwdJ+5D1aZ4qkETIniw1bz26+RmECv6SFoosD77z9aSQPviloHc0a+psdxkAqhhlUyU5dJ9CaQzodkgAstEQWkxEEIyTmes+JZrW+43d3bE+CDdocdnM5DO+JiICy00O+wDHxNfxuhDUrIY90hZm3dTSEera6pvtt8LxyN0ONrpQ8aLAJm1S0jFvjatoz8d8VYtu6YUHo3Q+nYoKKugtevlF8J8MEWQwvwdcG5Al4I040uzRwtEQU4jrvXci+eSrycm6V3ztDR9pivYVAMK41SPQHRw4B2y/K1vlYfiQmwXIttCUnoXiKblhDyQ8GmOA4859qL2nA0gssd9KeZrlIXiQnSKRQYAT1/MYJGSgM0C8PahZK2Dh1TCQRp/nQ16bu6Sl0gFPxN/5vb68H3tihbVPaBiqB3cjofeuGU3vBAx5GGYZD7sL/P6/fh93J3b48QiyLvu70enEr6RL7W1+pjyTjM+YzbJgKhIJYSCAVh5QcfNo7jLCMW/OaQGo9X/qi/xQtheqUabukqdbwQxhVd+ltByguQBJup6ELRWihgm7JtydcZ4EILRQHZ0osuFAVCm6u7ukpdIp0cGh6iHwc0TJTVLtYblZAXFWEZsfiDa7m5uVfKy8PRCIpDgVWynZC2DR+Tut/rhHgU37uydceE0rsZSlfqKvT1l3Ozdocd+Bqm42CJCEpUetOjPRCQruGJIsDPvedrsOPYsWOwsnf/wV9oqK5SF4rwoJ6uUqlwvoLuZBgZ9soAH50+c9rr9yF70r2ETpubm1vfcBvGEYXnCwN8ELpI0YWicDQCg0FNdjZsG4LS1Wr1kuuV3bkI89QlpaXlP/0ENvQ87AlHI2CtJjsb5R3QQuxecCWDtg4dU0SsmJs0cLf5nj+49kPBpiA9PXsOWwvm7QsrnlVcIdTX6uOpBCj75Obmev0+HOHCbgpQe9BkZ18uE2+Flhad+cr07EwkJuBkCPRp+mmsulHFC2F4134KX1+ruLYWCoDGUH5+vi/gp9Xpmg0tsPiJDxsh5OzZs2uhAD06k62LWq2ety+4ll2w/UuTnd3d21NcUgzTTSOjL1Qf/iwjFl/AT+8qo4dakDPdG0etY5vzCQ47XahofJ0ZLjohHZayEgz5YfYDPc7TjwNtGJ3VTvk6A/JYhEqluv/gr0Q6CT0wKytrbmEOHitQjg1FeOlWeqlVMPH1/tm0TljxvStbd0wrvZuhdKWuQl//o/5WLBkP/WdbZPv9zW2RwANXr10NRfjMn90qlerx0yfblCrcL3wNaF69dhVFYYB0xm0TqY10NBETYlHYeQ5wS9Vt1Gq1bWoSZiSD4ZDVNs7/p8mxl8Anocfvhaeo4noF6NFEE7H0m3XHkgOeNI7jBh4PYrkvrKPhaATH1Be02lWve/3tRnI9ldpI9z/6uBVBrVaPjL5Yf7uRSCc33r1ZdDqAHGmDwWzcJaKkrbM7vs45nuN45QRxH39w7YL2o4T8e1mK7t6et3+/Q0aG+ZBITHB7PaAE5HQt4SZotVoNO0aiidgH0R/bkSNHsLvvInC3+d762w16MiQU4fFLCBsFzNPX6lMbaZQWevv3O2B2JRjp69FE7PHTx/AqrW+4HQgF6V16l4ovwQ5f+mEjhNxuaIgl4zg6U6rg5pDi5TS2r9fvgxVsGFWsv91Yf7uBa7M4H0JXBMbRdG+EymYeX18pL88Al5K1NCxgg925iPvJMBU93U8bhhEgYHcu0hXhhTBseKBFoN7+/S61kdbX6jMg39bRDvlsvHvjC/gbGhtwEJabm+t0LcFjRT9uIkvon/RjQr93ZeuOCeGu6D2qVLpSV6GvwzsP10uRPRLp5AeNrSf0zBKaQQfKf/ppy5cTxN9ffE3XAcMZ1GowDgZyjuf8UFAAneBf//cv7A0YQRrQaDRFF4pQhwwj0OWCJiTeAorBgujrarW68HyhNDc6Dh3GkQ598VPCNAKYD8yy0RSJw/ac4zn0DjxMstOKYMLDHVCr1UUXivDMIVaWqRohFJ8SkO29n5LhjtL+g6V/psfnAPD1jhBnkaUIXCm/sry6Yp2w0m8v5Gtp/K/2yqXiSzAvT/+/5bh7D+HCI5G0wTiZvoeG/VNFg18aunZGkxEPJf5TpRygfBhfH6DG2o2pmwtiEX5o+JloyK+v1Xv9Ptivupt8D2Ma9G6BS5Tz9gVZvxn7pPYi9x1g9nY27ewT+7c0A87N0c0xb1+Ynp2RupfZMqvDEYHx9eFoR1YLhgBD4PAjwPj68LcxqyFDgCFwOBBgfH042pHVgiHAEDj8CDC+3hdtfPL7k0onmvaFfcwIhgBDYB8gwPiaFJcUu32e1rZWpeY4feb0vZZ76MhJKdqur7/ftmGdsEpdDj1++vjVaxeecJHmD3ou0uvsCkOAIXAoEWB8vTVfb3/rG6hUWCessjualTrQ1WtXA6EgumzGaFvyNX1eAFOxAEOAIXBYEfga+frYsWOizW2ZW5fm66ysrPz8fNn44AEg/WZdiP1/niFFkfPz8+nD4oSQUesYejQXRc78k+brs2fPbnmMKnNu7C5DgCGwzxH4uvga/ILHU4mO+x2oYgO78aXHIq5euzo2bu0z9zf92YSaTz9XVUUTsZm5l+i8ERqY47hx28Twc8ut2/UYWdT24CMlkU7+pv8Nb0lPHhJC8OCG9GiAJjsbhK/0tfpF50fHoUePHn29urwWCtBicVgECzAEGAKHA4GviK8rf65cCwVoUsPd+IFQUOTDAURkZuZePn76JBIT6CEzjKOFWFRWv4cejGMXQbUzqQ9Cy4hFOriGgxuOJUcsGUePeugzNhThzQPmRadj/e0GuiLRZGcPP7coKT+gJSzAEGAIHFwEvgq+Rud/XT3dspMGtMfUTYlIjWbFs4oHuGvrbqLzLWjpDPwr5esMnhJLSkvXQgGakemeRPuUget3m+8JsSh49aQ99WCqDGVhHBZgCDAEDigCXwVfW0YsAT6YwS+oiK83PXjFPmp3Sl37Y0sfPXpUKjsi5Wu7c3Fh0U7rvmMOg08GUXkLL2JAyteWEQutZkvPX2MqjuM6u7t4IUx7f8e7LMAQYAgcXAS+Cr6uuF4hmgkRNZiUr0MRHh2oSimYEHLy+5N256IQizbeaaRzk0ZuvNMYjkZcK69pB6eEEHBXD5716RwwLMvXtEiSlK9VKlVff19yPTX83LKjNVUslAUYAgyBfYvAV8HXoPvV2d2VSCelS4UgzUXPXxddKIrEBPQyLqJgWLRUykoUGRpeVkkTlN9Ee0XojiLl66HhIa/fd+LECYgm4mvpBD2dGwszBBgCBx2Br4WvoZ1ALlKIRW/W1dEtJxpfZ2VlOV45l1yvwO21ZcSC642Xy8r8wTV60ZLOJ8PkCSGE5tPC84W+gD/D4JpWA8Ei/qi/FU8lbjc0EEKuXrvKC2FYbzxy5Mjk9FQinezs7pKdoMccWIAhwBA4uAh8XXwNcpHVNdWgpQLCELRwBo6yL5eVhSI8yM7O2ecDoSBMB6vV6t9v/SHLibJaG6KegWPzUISH94EoAvxEGQ6wDWQ7wPih4WfpN+vRRMzj9y6vruD+kF9qqkGqSjZDdpEhwBA4BAh8dXy9/TbjOO6HggKpksj2c1CKea3iGi+EYZisFCfDdY1GIyttkyEJu8UQYAgcAgQYX+9BI7bfb3ctuz6fQ5I9qBIrkiHAEPj8CDC+/vwYsxIYAgwBhsA/gQDj638CRZYHQ4AhwBD4/Agwvv78GLMSGAIMAYbAP4EA4+t/AkWWB0OAIcAQ+PwIML7+/BizEr4UAmq1uuBcwZcqjZXDEPjSCDC+/tKIs/I+HwK3Gxp8AX/h+cLPVwTLmSGwhwgwvt48duh0LQnxqNfva21rValUeafyXlhHy34sg4YBt6s1v9aA675nluF5+wL+6zP3E0LyTuVNTNoeP30C58vzTuUNP7fkncor+7FsenYGI0NgenYGMy//6afp2ZnOrs7tdwKpwXDg3tTVGQyHguHQwONB3CxIGzA2bgXffmgw2GObsulr9e9lycAG8OaKNtPWwilNEVx95n6MjAGABTKsrbs5b19oaNw8lrnNvxMnTsgeSsqQXK1WL7lemQce0XFA8WfV6xbi0RX3St3vdRzHGVoNtHk1v9Y8swzDRnulusN1rELNrzWQwz9ed0129sDjwWA4FIkJk9NT6LTr5PcnbVOTkZiw6nU3NDZgY6EBs/NzRpNxy3ZHH8KyLSUtHTo2RsYAPA6bT0R2tmXEMmodyyBcR7cIC38KAl8jX9P6Mg9MD+KpRJ+5v7ikuNnQ4nQtXS4rEznugGOQbR3thBAIO5YcoHJgNBlB6ABc+sVTiaobVXCU3OP3ai9qT5853XG/w2gyWkY+Oqc2moyGVgM+V+YBczQR8/p9cORyy7aUNZjjuOHnmz4I9bX66ppqX8A/tzAHbw59rT4SE/ofmY0m49Dws0Q6+cD0ACzkI7xlxGI0GfsfmYVYdPi5BVigraM9uZ6CJEaTkdZMkC297vc6QMPr93n9PgjrKnVYl+nZGSEWdbxyorOUDDI9mc/0Y55Hjx4VKRT/UX9rLRQoulCEcQCWcDTyl/FBcUlxZ1en3bmYm5srcj/Q1tHu8XuBbpTq3tbRvvHuzYpnFRquraMdjsLuou5onjSQm5vr9nqWV1eqa6orrleMjVufDD3lOA6uz87PXS4rM3WZYsl4+/3N3kgIsTsXoTd2dnWueFbdPg90JKV2V+rAhBDZ0o9++62h1QCdJLmesk1NirqErlLHC+FoIkY7V1Cr1TuSxJNCwa7IIvB18bVIX+ZK+RU+wkvPGW7J13gKHDHVXtR6/b7l1ZVR6xjN1xhBX6sX4lGRq2uNRrO8ujLweBCoFiMrBZQMhuv4wFTdqOKFMLw5RP6nnr8YAY+sojr+ZXwQiQlAdm0d7UJcRtJMqXS01u5cxAP9eLHgXIFvzWceeBTgg5eKL8F1JZmerKysxqY7lhFLNBGDFwbN+5CW4zhTlym5nnpmGcZSwOXL4JNBvEII+aP+Fi+E8ZMCb2Xma9m6t3W0u32etVAAQEa+xjy3X3dMIg2MWsdkvRR0dnX6An58ow8+GVz1uuHNQfv8Ki4pFuIf/QArtTvwtbQDgy6dbOlg5+aIJB6FUQttuXnADHWn82wxtMRTieHnFhyX0ElYeNcIfEV8TbtbArzMA2YcWNEIirhMOr6muyYk1F7U+gL+3oe9/uBawbkC7UUtjK8xW1m+1lXq/MG14pJi+qnDJNKAksF/GR+shQIoLAkGmwfM0rHqp/C1Uulopyxn3W2+5/Z6ABAcFRJCZGV64Gv99epyaiPtWHJIZ1GUBBn0tXpfwE8Prgkh07MzduciTh2gnbvja9eya9w2MT07QwjZJl8r1R0toQMF5wpCEZ6GCO6CMMW4bQIj62v14WgE3mR0z/kUvlYqHQuV5WsYcLTfb2+//99vFEgCj1uADzKNOsTw0wNfBV8r6cvA8ywFcWAX55YAABEzSURBVEu+xvkQnNmAJI1Nd9xeT7OhZZt8bR4wwyxBd2+P7JtDZJuSwZYRiyg5PsY4ztJoNHW/14WjEZjhxTqq1errOp3X75t+OS07H4IjXKXS0UhZvp6enYFvjnHbhIg9lWR60GbMGeZJh59bEumkdNSWlZW1sGgXvURBJEh0ETLMzNf0XBDWHeZMGpvuwFthm3ydoe501SCsq9SFoxHRFxhOwdEVwbaD+RDLyOZE1vtVVuuENRgOwXIrYihqd9F8CHZgpdLRTlm+1lXqAqHglfIrV8rL+QgvMh69m8k6McacWWD7CHwVfK2kLyNVhwHg6OcBHxh6/joQCsLCy8SkDebpMAl4tS4pLd1yfA2E0t3bQwiR7e7SVlQyWJavn78YgfF1cj0VS8bTb9YDoSAuVeGEe2ojLcSjRpMR1/faOtpxeDtvXzC0GsASpdLRTilfF5wrWAsF6htuE0LqG27zQhinRDCVVKYHuQbjwJCWF8IV1yvoixCuulHlC/hLSkvpW99+953b56FpDu9m5mvZugNfF54vXPGsdnZ1boevt1N3NIkQUl1TLcTEM2bY/eiKaC9qUU/D7lxMbaTjqURqIz0xaUMZaH2tXrbdga+lHVipdLRQlq/NA2bXsivrw59r2UUbiQnz8/O9fp/sLYzDAttE4KvgayV9GcuIZXMFSaMRgYXkC9e3OR8SDIf0tXrQO28xtGzJ18DRT4aeGk3Gnoc9vBAWTb+KrAJdBVmDRTMV9NASua/9fjsvhHFfCtax5rdfIzGBlodXmr9WggvtlPI1cHSfuQ8WrOKpRLOhBeMryfSgzXRM8F0ejkZEgj4cx72cm4UhPB0fxp4wfSG6npmvleav4QsGlvVMXSbRTP0u6i6ySntRG45G7jbfE12nWxNu0WNh+JDKOZ7j9m6+nHDyBzEUtTt0Zil7KpWOxkj5Oisry7XsmlvY3JdiNBkdSw6cVcdUJaWlbp8nwAdlX7QYjQW2icBXwddK+jJK61EF5woCfBCfnPz8/LVQgB5fy3Z34GugD7vDviVfd/f2CLEobpByez3S7i5qRSWD6xtuh6ORK+XlEP9S8SVeCIP9+Nyq1WrgFNAJQ77mOM4yYqE3qCjxtVLpaKSUs8ZtEziUm7cvBEJBFIPP8LGMNmPOEJBNUnWjKsBvfpKLIhNCOrs6/cG1s2fPim6ZB8z0a4+ejFKqO+4hARU325RtS77OUHeRPfATlkxR5ZmOM26bgGEsXGy/3x6K8HAyCCe+6n6vE+JRfO8ihqJ2V+LrDKVDoVK+vlJeHo5GYJlh3r7gWHII8Siscmeev6KrxsI7QuBr4WsARaQvo1ar5+0LrmUXePrXZGd39/YUlxR/5FznoiY7G3YjfGDDTUZQ6u5If7AtIZaMiyTVReuNMDaBJUGwjd7UodSESgbD8Gpk9IXqwx89PYLPLUjSCLGoqcskEq85e/bsWiiAozMlzlIqHa0V8XV+fr4v4MfXHiGk2dASDIeKLhRllunRVepCEf5axTV40eKYEQqixdW++d9vpl9Oyw6ucYPa1Mw07FI4+f3JPnN/bm5u1Y2qSEy4dbueEHL6zGm3z4M5KNUd+Rr2UcRTCbvDjhWHsTzN4BnqTqcShW/W1QmxaPv9dqhy5c+VRpOR4zj4BqINxhED8vX7JNYJK753ldpdqQMTQpRKByOlfN3d20O/9jTZ2ateN3wj3qzbXClxrbwWTVKJ6st+7hSBr4uvRfoyhJDNpciX0+tvNxLp5Ma7N16/D2YMLmi1q173xrs3qY10NBFr+rMJkIXuTkvSwGcyzdcQR/RZLeLrK+XloQiPgxF8E2w5JaJkcHFJsS/gT79ZT22kfQE/znvQzy0hpOdhTzgaKftRvMf8dkNDLBmH0ZlI3ebt3+9wF5dS6QCOiK/rG24HQkF6zwYM/JsNLRlkegghWVlZ47YJQF6IRWU3GMD2g0hM4CO8dMcePgYXtNol16uNd2+gfR2vnKfPnOY4rvdhb2ojndpIb7x7s7Box63cSnWn+Vpfq09tpGl2lvJ1hrqjbbKBxjuNfISHdkxtpAefDMK6gqHVkFxPJddT6Tfrtikb7pNDviaE0O9dpXZX6sBgjFLp8IKn9/PBgEPUXS0jFvhGzM3Nra6pFr1oZevLLu4Iga+Or2XRUavVRReKpBPZOcdz9qeSi5LBeafyvsA5BaXSZbHd9UWNRlN4vhBXQaX5HDlyxPHKKTuBIIqs0WiKLhSJBONVKtX79UNpo4vS7snPvFN50o73xQyWLX1PcGCFihBgfC0CZO9/Xiq+hIcnMYDzkntv376x4FLxJY/f+3PV5oHSg/IHB4KwWSFAnyA9KBVhdu4JAoyv9wT2TIWKXFjAgiTt7yJTYnZvfyMgdd8xb18QeWjZ3zVg1u0lAoyv9xJ9VjZDgCHAENg+Aoyvt48Vi8kQYAgwBPYSAcbXe4k+K5shwBBgCGwfgQPA1xzHFV0oYnuDtt+oLCZDgCFwKBE4AHx99drVQCh4sLYBbL+vFJcUu32e1rbW7SdhMRkCDIGvE4H9ztdwagtdx2EjqdXqb7/7Dn8e3ADj64PbdsxyhsAXRmB/8bUmO/vEiRM0BOA+iT4HCHfpY110/K82fPbs2QxHS75aWFjFGQKHCYF9xNeNdxrD0cj77cbf/O83CPGodQw9BMFFOE7i9fvACTU68CWEgDjTpeJL4Cli1Dp2QasFHxS6St3A40HblK2x6Q7y2ukzpxsaG44dO9bc0jw2bqU1DMGhvnnAbJuyGVoNeF6Z47iyH8se9vdNzUy3trfhsWCwTZOd3dreNjUz3fOwBz1bwq2r164OP7eMjVvxnC59dEJ6HObs2bN95n46Pji7kDX46NGjr1eX10IB2aPbCCYLMAQYAgcagX3B17QHHyRTYExfwC8aXMNxEiEWBcdvtNBnn7k/EApaJ6wrntVVr5sXwuBAvfB84bx9Yfi55fHTJ0I8SmsbCvHoWijwwjoK2ob3Wj56s7zbfC+eSrywjoLon2vZdfToUfA6NjUzPTZu3SyLD7q9HpQZ3ZS/83m8fp95wDxvX/D4vXg0/IHpQSKdtE3ZQPqr5+Gmz2s8OhEIBUXOKKprqqOJ2Mzcy02DKWVFcEIia7AmO3v4+UeJSNFb5EB3UGY8Q4AhgAjsMV/LeshE4ywjloVFO4q04nWU1aCvQNgyYomnEg9MD3KO57xeXRYJXnz0mh/hQXYa6A/GtuC/Bt2eWUYsjiVH5k0pIpGBUesY7RAVzb5SfiUSE9Dvs0qlEmUrcsfMcdx7HRbb1CRE+6P+lhCLgtBJBoOh+kpyWVKg2BWGAEPgwCGwx3wNBHSr/pYUuKILRb6AX0q4EFNp/ho9hHEcd/rMaXTxA5MeoFPOU3wdDIeAu0XvgPqG28n11KrX3WxoEbkEUqvVDY0N4IA/EhPAQlAzGRoeklbE0GoIRyO0mzpRHBFfF5wr4IUwusSjf4qcrsmCwHFcZ3cXL4SxXqLi2E+GAEPggCKwx3wNyoqJdNLUZRKNOkFYC0epInxlqQoUWERzC+DYN5qIjdsmts/X4J3yydDTtVAgtZF+P/cN5l0uK+Mj/Lx9QcTX4KbyL+MDkZ0gZOX1+0TrqHQ0EV+LHA1DzkDfW/K1SqXq6+9LrqeGn1vwXUWXxcIMAYbAwUVgj/kaHFI3/dkk8m4OKh5/yI27Aesd8bXduYiLljTl0WHR+Jpu0Yf9fZGYAANkHL+LXP6DaBNIJtJpCSF3m+9FYkJxSbHoOv4U8fWJEye8fh/oOhJCikuKIzFBJBYDaUUgSAXgsQgWYAgwBA4BAnvP1wAiLJeh+rV54BEIhytBPD07AzO877Vg6CVKEfdBchCK5T78dXZ3IXtm4Oua334FaQyO4/rM/bwQBvmloeEhVCK/dbs+mojV1t2EUkAKAFRRNNnZN+vqYEgOXuRB/IUQcl13HXatYNWkNo9ax9w+T25uLsdxD/v7pKLXkBb5+siRI5PTU4l0srO7i0YDi2ABhgBD4BAgsF/4GqCE5bJoIibEorcbGjLge+OXG+FoJJ5KxFMJ2/QkkJTduQjKL6mNND3xXfNrDUSOJmKz83MevxfWFZX4Wq1WDw0/A9npRDoZTyVQIxxkXBLpZDQRe/XateR6ZXfYoXS1Wj0y+gKlahadDtw6AgJXIBoSTyVgF4pU6QNncnJzc52uJTAgHI3U/FoDUCgZTAj5paYaVM0ygMZuMQQYAgcagf3F1zA9MmodW3K92nL6leO4HwoKkBMzNwOtzaFSqbbMHCz5oaAA9+Rh/nS5HMf96//+hbcIIWq1uvB8oWz+OxV/2bfqNnR9WZghwBD4YgjsO77OOZ6z4l7BfdBfDAhWEEOAIcAQ2OcI7Du+3ud4MfMYAgwBhsBeIcD4eq+QZ+UyBBgCDIGdIcD4emd4sdgMAYYAQ2CvEGB8vVfIs3IZAgwBhsDOEPhUvj75/Un0XbezkllshgBDgCHAENgJAp/E1+/Pg1gnrFIxgZ0YwOIyBBgCDAGGwLYQ+CS+/qeUug6NWMy2IGeRGAIMAYbArhDYAV/n5+eLvC9JxQR2ZQPBc9W7S77rVFlZWfn5+btOzhIyBBgCDIEvicC2+Bq96P2m/w2Nu1J+JcAHRWICSgovIPJS93sdOMlDh/oZxGLAQ55UY0WTnW1oNYCszNVrV8fGrb0Pe48cOZKVlXW7oaHwfGHF9YoXYy+MJiOWAscOm1uabVM2WhTm56oqkAUQacFgHVmAIcAQYAjsHwS24GuO46TO88B6y4gFnd5hfZQUXtRq9dzCXCjCmwfMjldOt3fTmREhJINYjJLGSt6pvMnpKV4Imwce8UJ41esGkRdwx7EWCjiWHA/7+wJ8ECfWN89MelbdPk+fud/t9WDpIGHjWnktxKJNfzaJHLpipViAIcAQYAjsBwQy8XUGsZKS0tK1UID2qYSVkVV4+aP+VoAPgsc7tVr9enXZPGDGJNL5kAwaK4SQnOM5bq8nwAcvl5Xpa/XvpQtzjucAX1tGLEC73b096Eiv/X77WijwQ0EBISQ3N9cfXKNLz/BOQgtZgCHAEGAI7DkCmfja7lxcWLSDbqHI0MEng0pKXeghmlZ4sYxYXCuv//3vf2svat/rnlgnrAuLdsxTyte0qAohRPQTqHnwySBMdJw+c5rjOLiIsixtHe3I19OzM+j6jhAi+glmHD16FNyuolUswBBgCDAE9hUCmfgaBMtdK69F/poziwlIvTmD7Ev6zboQj+K/qZlpBELK1xk0VmB87fF7kZohnwx8bXcu0nwttfDk9yftzkUhFm2804hWsQBDgCHAENhXCGTia0KIrHJ5ZqUuKRsSQswD5hXPqkgIEYGQ8nUGjZVd8PXzFyOuZRdsbuE4zrHkmJ6dgdIzC/6ihSzAEGAIMAT2HIEt+Brso4WmCs8X+gL+DEpdsnz9c1VVJCa0trWCX+myH8toD9GyYjFKGiu74OtNifF49GZd3Qd5F10kJoC/1stlZf7g2looUPlz5Z63BDOAIcAQYAhkRmBbfA278Tq7uxLpZCjCZxATUFJ4IYQYWg0gB5PaSPvWfJfLytAyWbEYJY0VmCoBHRmcoZaSOD1/zXHcwOPB1EY6lozT4rlqtfr3W38wAS1sCBZgCDAE9jMC2+VrqMO1imu8EM6s1JWhtrQyiyia0q1/UGNFraz8IjKG/WQIMAQYAvsQgZ3xdfv9dteyiz6Hsg+rxExiCDAEGAKHEoGd8fWhhIBViiHAEGAIHAgEGF8fiGZiRjIEGAIMAcL4mnUChgBDgCFwMBBgfH0w2olZyRBgCDAEGF+zPsAQYAgwBA4GAoyvD0Y7MSsZAgwBhgDja9YHGAIMAYbAwUCA8fXBaCdmJUOAIcAQ+H9FsJwXutAPLAAAAABJRU5ErkJggg==;movable=0;resizable=0;rotatable=0;deletable=0;editable=0;locked=1;connectable=0;" vertex="1" parent="1">
          <mxGeometry x="-1569" y="-604" width="485" height="116" as="geometry" />
        </mxCell>
        <mxCell id="NM8_mZAWdIv0FdGWZ86l-26" value="" style="edgeStyle=entityRelationEdgeStyle;orthogonalLoop=1;jettySize=auto;html=1;rounded=0;strokeColor=#FF3333;" edge="1" parent="1">
          <mxGeometry width="80" relative="1" as="geometry">
            <mxPoint x="-1250" y="-1034" as="sourcePoint" />
            <mxPoint x="-880" y="-1044" as="targetPoint" />
          </mxGeometry>
        </mxCell>
        <mxCell id="NM8_mZAWdIv0FdGWZ86l-27" value="" style="edgeStyle=entityRelationEdgeStyle;orthogonalLoop=1;jettySize=auto;html=1;rounded=0;strokeColor=#FF3333;" edge="1" parent="1">
          <mxGeometry width="80" relative="1" as="geometry">
            <mxPoint x="-1220" y="-1016" as="sourcePoint" />
            <mxPoint x="-880" y="-1026" as="targetPoint" />
          </mxGeometry>
        </mxCell>
        <mxCell id="NM8_mZAWdIv0FdGWZ86l-28" value="" style="edgeStyle=entityRelationEdgeStyle;orthogonalLoop=1;jettySize=auto;html=1;rounded=0;strokeColor=#FF3333;" edge="1" parent="1">
          <mxGeometry width="80" relative="1" as="geometry">
            <mxPoint x="-1297" y="-924" as="sourcePoint" />
            <mxPoint x="-877" y="-990" as="targetPoint" />
          </mxGeometry>
        </mxCell>
        <mxCell id="NM8_mZAWdIv0FdGWZ86l-29" value="" style="edgeStyle=entityRelationEdgeStyle;orthogonalLoop=1;jettySize=auto;html=1;rounded=0;strokeColor=#FF3333;" edge="1" parent="1">
          <mxGeometry width="80" relative="1" as="geometry">
            <mxPoint x="-1292" y="-910" as="sourcePoint" />
            <mxPoint x="-875" y="-972" as="targetPoint" />
            <Array as="points">
              <mxPoint x="-1240" y="-910" />
              <mxPoint x="-1250" y="-910" />
              <mxPoint x="-1280" y="-900" />
            </Array>
          </mxGeometry>
        </mxCell>
        <mxCell id="NM8_mZAWdIv0FdGWZ86l-30" value="" style="edgeStyle=entityRelationEdgeStyle;orthogonalLoop=1;jettySize=auto;html=1;rounded=0;strokeColor=#FF0000;" edge="1" parent="1">
          <mxGeometry width="80" relative="1" as="geometry">
            <mxPoint x="-1290" y="-940" as="sourcePoint" />
            <mxPoint x="-878" y="-1007" as="targetPoint" />
          </mxGeometry>
        </mxCell>
        <mxCell id="NM8_mZAWdIv0FdGWZ86l-31" value="" style="edgeStyle=entityRelationEdgeStyle;orthogonalLoop=1;jettySize=auto;html=1;rounded=0;strokeColor=#FF3333;" edge="1" parent="1">
          <mxGeometry width="80" relative="1" as="geometry">
            <mxPoint x="-1240" y="-890" as="sourcePoint" />
            <mxPoint x="-876" y="-953" as="targetPoint" />
          </mxGeometry>
        </mxCell>
        <mxCell id="NM8_mZAWdIv0FdGWZ86l-32" value="" style="edgeStyle=entityRelationEdgeStyle;orthogonalLoop=1;jettySize=auto;html=1;rounded=0;strokeColor=#FF3333;" edge="1" parent="1">
          <mxGeometry width="80" relative="1" as="geometry">
            <mxPoint x="-1280" y="-870" as="sourcePoint" />
            <mxPoint x="-876" y="-935" as="targetPoint" />
          </mxGeometry>
        </mxCell>
        <mxCell id="NM8_mZAWdIv0FdGWZ86l-36" value="" style="edgeStyle=entityRelationEdgeStyle;orthogonalLoop=1;jettySize=auto;html=1;rounded=0;strokeColor=#FF3333;" edge="1" parent="1">
          <mxGeometry width="80" relative="1" as="geometry">
            <mxPoint x="-1190" y="-540" as="sourcePoint" />
            <mxPoint x="-910" y="-520" as="targetPoint" />
          </mxGeometry>
        </mxCell>
      </root>
    </mxGraphModel>
  </diagram>
</mxfile>
